<svg xmlns="http://www.w3.org/2000/svg" width="420mm" height="297mm" viewBox="0 0 420 297">
<rect width="420" height="297" fill="white" />
<defs><pattern id="hatch45" patternUnits="userSpaceOnUse" width="3" height="3" patternTransform="rotate(45)"><line x1="0" y1="0" x2="0" y2="3" stroke="#555" stroke-width="0.15" /></pattern></defs>
<rect x="15" y="15" width="390" height="267" fill="none" stroke="black" stroke-width="0.7" />
<rect x="16" y="16" width="388" height="265" fill="none" stroke="black" stroke-width="0.35" />
<rect x="15.0" y="15.0" width="195.0" height="116.0" fill="none" stroke="#ccc" stroke-width="0.15" stroke-dasharray="6,3" />
<rect x="210.0" y="15.0" width="195.0" height="116.0" fill="none" stroke="#ccc" stroke-width="0.15" stroke-dasharray="6,3" />
<rect x="15.0" y="131.0" width="195.0" height="116.0" fill="none" stroke="#ccc" stroke-width="0.15" stroke-dasharray="6,3" />
<rect x="210.0" y="131.0" width="195.0" height="116.0" fill="none" stroke="#ccc" stroke-width="0.15" stroke-dasharray="6,3" />

<g class="drawing-view drawing-view-top" id="drawing-view-top" data-view-id="top" data-view-kind="orthographic" data-view-label="TOP" data-region-ref="drawing-view-top">
<g class="smooth_visible" stroke="#000" stroke-width="0.35" fill="none" stroke-linecap="round" stroke-linejoin="round">
  <path d="M72.50,97.50L72.50,48.50" />
  <path d="M72.50,97.50L73.00,98.00" />
  <path d="M73.00,97.50L72.50,97.50" />
  <path d="M73.00,97.50L73.00,48.50" />
  <path d="M72.50,48.50L73.00,48.50" />
  <path d="M73.00,48.00L72.50,48.50" />
  <path d="M73.00,97.50L73.00,98.00" />
  <path d="M73.00,98.00L152.00,98.00" />
  <path d="M73.00,97.50L152.00,97.50" />
  <path d="M73.00,48.50L152.00,48.50" />
  <path d="M152.00,97.50L152.00,48.50" />
  <circle cx="87.50" cy="83.00" r="2.00" />
  <circle cx="135.00" cy="63.00" r="3.00" />
  <path d="M73.00,48.00L73.00,48.50" />
  <path d="M73.00,48.00L152.00,48.00" />
  <path d="M152.00,97.50L152.00,98.00" />
  <path d="M152.00,98.00L152.50,97.50" />
  <path d="M152.00,48.50L152.00,48.00" />
  <path d="M152.00,97.50L152.50,97.50" />
  <path d="M152.50,97.50L152.50,48.50" />
  <path d="M152.50,48.50L152.00,48.50" />
  <circle cx="87.50" cy="83.00" r="1.50" />
  <circle cx="135.00" cy="63.00" r="2.50" />
  <path d="M152.50,48.50L152.00,48.00" />
</g>
<g class="outer_visible" stroke="#000" stroke-width="0.50" fill="none" stroke-linecap="round" stroke-linejoin="round">
  <path d="M89.50,83.00L89.00,83.00" />
  <path d="M138.00,63.00L137.50,63.00" />
</g>
<g class="hard_visible" stroke="#000" stroke-width="0.7" fill="none" stroke-linecap="round" stroke-linejoin="round">
  <path d="M72.50,97.50L72.50,48.50" />
  <path d="M72.50,97.50L73.00,98.00" />
  <path d="M73.00,97.50L72.50,97.50" />
  <path d="M73.00,97.50L73.00,48.50" />
  <path d="M73.00,48.50L72.50,48.50" />
  <path d="M72.50,48.50L73.00,48.00" />
  <path d="M73.00,97.50L73.00,98.00" />
  <path d="M73.00,98.00L152.00,98.00" />
  <path d="M73.00,97.50L152.00,97.50" />
  <path d="M73.00,48.50L152.00,48.50" />
  <path d="M152.00,97.50L152.00,48.50" />
  <circle cx="87.50" cy="83.00" r="2.00" />
  <circle cx="135.00" cy="63.00" r="3.00" />
  <path d="M73.00,48.50L73.00,48.00" />
  <path d="M73.00,48.00L152.00,48.00" />
  <path d="M152.00,98.00L152.00,97.50" />
  <path d="M152.50,97.50L152.00,98.00" />
  <path d="M152.00,48.00L152.00,48.50" />
  <path d="M152.50,97.50L152.00,97.50" />
  <path d="M152.50,97.50L152.50,48.50" />
  <path d="M152.50,48.50L152.00,48.50" />
  <circle cx="87.50" cy="83.00" r="1.50" />
  <circle cx="135.00" cy="63.00" r="2.50" />
  <path d="M152.50,48.50L152.00,48.00" />
</g>
<g class="centerlines" stroke="#000" stroke-width="0.18" fill="none" stroke-dasharray="8,2,1.5,2" stroke-linecap="round" vector-effect="non-scaling-stroke">
  <line x1="80.54" y1="83.00" x2="94.46" y2="83.00" />
  <line x1="87.50" y1="76.04" x2="87.50" y2="89.96" />
  <line x1="128.04" y1="63.00" x2="141.96" y2="63.00" />
  <line x1="135.00" y1="56.04" x2="135.00" y2="69.96" />
</g>
<text x="18.0" y="25.0" font-family="monospace" font-size="3.5" fill="#666">TOP</text>
<g class="dimensions-top" stroke="#000" stroke-width="0.18" fill="none" stroke-linecap="round" vector-effect="non-scaling-stroke">
<line x1="72.50" y1="100.00" x2="72.50" y2="104.50" />
<line x1="152.50" y1="100.00" x2="152.50" y2="104.50" />
<line x1="72.50" y1="106.00" x2="152.50" y2="106.00" />
<polygon points="72.50,106.00 70.50,105.30 70.50,106.70" fill="#000" />
<polygon points="152.50,106.00 154.50,106.70 154.50,105.30" fill="#000" />
<text x="112.50" y="105.00" text-anchor="middle" font-family="sans-serif" font-size="3" fill="#000">160</text>
<line x1="150.50" y1="48.00" x2="162.00" y2="48.00" />
<line x1="150.50" y1="98.00" x2="162.00" y2="98.00" />
<line x1="160.50" y1="48.00" x2="160.50" y2="98.00" />
<polygon points="160.50,48.00 161.20,46.00 159.80,46.00" fill="#000" />
<polygon points="160.50,98.00 159.80,100.00 161.20,100.00" fill="#000" />
<text x="159.00" y="73.00" text-anchor="middle" font-family="sans-serif" font-size="3" fill="#000" transform="rotate(-90,159.00,73.00)">100</text>
<line x1="88.91" y1="81.59" x2="93.16" y2="77.34" />
<line x1="93.16" y1="77.34" x2="101.16" y2="77.34" />
<polygon points="88.91,81.59 89.83,83.49 90.82,82.51" fill="#000" />
<text x="97.16" y="76.14" text-anchor="middle" font-family="sans-serif" font-size="3" fill="#000">⌀8</text>
<line x1="135.78" y1="60.10" x2="137.33" y2="54.31" />
<line x1="137.33" y1="54.31" x2="145.33" y2="54.31" />
<polygon points="135.78,60.10 135.62,62.22 136.97,61.85" fill="#000" />
<text x="141.33" y="53.11" text-anchor="middle" font-family="sans-serif" font-size="3" fill="#000">⌀12</text>
<line x1="87.11" y1="81.55" x2="85.56" y2="75.76" />
<line x1="85.56" y1="75.76" x2="77.56" y2="75.76" />
<polygon points="87.11,81.55 85.92,83.30 87.27,83.66" fill="#000" />
<text x="81.56" y="74.56" text-anchor="middle" font-family="sans-serif" font-size="3" fill="#000">⌀6</text>
<line x1="133.23" y1="61.23" x2="128.99" y2="56.99" />
<line x1="128.99" y1="56.99" x2="120.99" y2="56.99" />
<polygon points="133.23,61.23 131.32,62.15 132.31,63.14" fill="#000" />
<text x="124.99" y="55.79" text-anchor="middle" font-family="sans-serif" font-size="3" fill="#000">⌀10</text>
<line x1="72.50" y1="100.00" x2="72.50" y2="111.50" />
<line x1="87.50" y1="100.00" x2="87.50" y2="111.50" />
<line x1="72.50" y1="113.00" x2="87.50" y2="113.00" />
<polygon points="72.50,113.00 70.50,112.30 70.50,113.70" fill="#000" />
<polygon points="87.50,113.00 89.50,113.70 89.50,112.30" fill="#000" />
<text x="80.00" y="112.00" text-anchor="middle" font-family="sans-serif" font-size="3" fill="#000">30.0</text>
<line x1="87.50" y1="100.00" x2="87.50" y2="111.50" />
<line x1="135.00" y1="100.00" x2="135.00" y2="111.50" />
<line x1="87.50" y1="113.00" x2="135.00" y2="113.00" />
<polygon points="87.50,113.00 85.50,112.30 85.50,113.70" fill="#000" />
<polygon points="135.00,113.00 137.00,113.70 137.00,112.30" fill="#000" />
<text x="111.25" y="112.00" text-anchor="middle" font-family="sans-serif" font-size="3" fill="#000">95</text>
<line x1="135.00" y1="100.00" x2="135.00" y2="111.50" />
<line x1="152.50" y1="100.00" x2="152.50" y2="111.50" />
<line x1="135.00" y1="113.00" x2="152.50" y2="113.00" />
<polygon points="135.00,113.00 133.00,112.30 133.00,113.70" fill="#000" />
<polygon points="152.50,113.00 154.50,113.70 154.50,112.30" fill="#000" />
<text x="143.75" y="112.00" text-anchor="middle" font-family="sans-serif" font-size="3" fill="#000">35</text>
<line x1="150.50" y1="83.00" x2="169.00" y2="83.00" />
<line x1="150.50" y1="98.00" x2="169.00" y2="98.00" />
<line x1="167.50" y1="83.00" x2="167.50" y2="98.00" />
<polygon points="167.50,83.00 168.20,81.00 166.80,81.00" fill="#000" />
<polygon points="167.50,98.00 166.80,100.00 168.20,100.00" fill="#000" />
<text x="166.00" y="90.50" text-anchor="middle" font-family="sans-serif" font-size="3" fill="#000" transform="rotate(-90,166.00,90.50)">30</text>
<line x1="150.50" y1="63.00" x2="169.00" y2="63.00" />
<line x1="150.50" y1="83.00" x2="169.00" y2="83.00" />
<line x1="167.50" y1="63.00" x2="167.50" y2="83.00" />
<polygon points="167.50,63.00 168.20,61.00 166.80,61.00" fill="#000" />
<polygon points="167.50,83.00 166.80,85.00 168.20,85.00" fill="#000" />
<text x="166.00" y="73.00" text-anchor="middle" font-family="sans-serif" font-size="3" fill="#000" transform="rotate(-90,166.00,73.00)">40</text>
<line x1="150.50" y1="48.00" x2="169.00" y2="48.00" />
<line x1="150.50" y1="63.00" x2="169.00" y2="63.00" />
<line x1="167.50" y1="48.00" x2="167.50" y2="63.00" />
<polygon points="167.50,48.00 168.20,46.00 166.80,46.00" fill="#000" />
<polygon points="167.50,63.00 166.80,65.00 168.20,65.00" fill="#000" />
<text x="166.00" y="55.50" text-anchor="middle" font-family="sans-serif" font-size="3" fill="#000" transform="rotate(-90,166.00,55.50)">30</text>
</g>
<g class="dimensions-top plan-dimensions-top" stroke="#000" stroke-width="0.18" fill="none" vector-effect="non-scaling-stroke">
<line x1="86.75" y1="81.70" x2="80.75" y2="71.31" />
<line x1="80.75" y1="71.31" x2="72.75" y2="71.31" />
<polygon points="86.75,81.70 88.36,80.32 87.14,79.62" fill="#000" />
<text x="72.25" y="70.81" text-anchor="end" font-family="sans-serif" font-size="3" fill="#000" data-dim-id="HOLE_LEFT_DIA" data-value-mm="6">Ø6</text>
<line x1="137.17" y1="64.25" x2="149.29" y2="71.25" />
<line x1="149.29" y1="71.25" x2="157.29" y2="71.25" />
<polygon points="137.17,64.25 135.08,64.64 135.78,65.86" fill="#000" />
<text x="157.79" y="75.75" text-anchor="start" font-family="sans-serif" font-size="3" fill="#000" data-dim-id="HOLE_RIGHT_DIA" data-value-mm="10">Ø10</text>
</g>
<g class="datums-top">
  <polygon points="72.50,81.50 72.50,84.50 70.00,83.00" fill="#000" stroke="#000" stroke-width="0.25" />
  <line x1="70.00" y1="83.00" x2="67.00" y2="83.00" stroke="#000" stroke-width="0.3" />
  <rect x="62.50" y="80.75" width="4.5" height="4.5" fill="white" stroke="#000" stroke-width="0.35" />
  <text x="64.75" y="83.99" text-anchor="middle" font-family="sans-serif" font-size="3.5" font-weight="bold" fill="#000">B</text>
  <polygon points="91.00,48.00 94.00,48.00 92.50,45.50" fill="#000" stroke="#000" stroke-width="0.25" />
  <line x1="92.50" y1="45.50" x2="92.50" y2="42.50" stroke="#000" stroke-width="0.3" />
  <rect x="90.25" y="38.00" width="4.5" height="4.5" fill="white" stroke="#000" stroke-width="0.35" />
  <text x="92.50" y="41.24" text-anchor="middle" font-family="sans-serif" font-size="3.5" font-weight="bold" fill="#000">C</text>
</g>
<g class="baseline-dimensions">
<line x1="72.50" y1="98.00" x2="72.50" y2="111.00" stroke="#000" stroke-width="0.18" />
<line x1="87.50" y1="83.00" x2="87.50" y2="111.00" stroke="#000" stroke-width="0.18" />
<line x1="72.50" y1="109.00" x2="87.50" y2="109.00" stroke="#000" stroke-width="0.18" />
<polygon points="72.50,109.00 74.50,108.30 74.50,109.70" fill="#000" />
<polygon points="87.50,109.00 85.50,108.30 85.50,109.70" fill="#000" />
<text x="80.00" y="107.80" text-anchor="middle" font-family="sans-serif" font-size="3" fill="#000">30</text>
<line x1="72.50" y1="98.00" x2="72.50" y2="116.00" stroke="#000" stroke-width="0.18" />
<line x1="135.00" y1="63.00" x2="135.00" y2="116.00" stroke="#000" stroke-width="0.18" />
<line x1="72.50" y1="114.00" x2="135.00" y2="114.00" stroke="#000" stroke-width="0.18" />
<polygon points="72.50,114.00 74.50,113.30 74.50,114.70" fill="#000" />
<polygon points="135.00,114.00 133.00,113.30 133.00,114.70" fill="#000" />
<text x="103.75" y="112.80" text-anchor="middle" font-family="sans-serif" font-size="3" fill="#000">125</text>
</g>
</g>

<g class="drawing-view drawing-view-iso" id="drawing-view-iso" data-view-id="iso" data-view-kind="isometric" data-view-label="ISOMETRIC" data-region-ref="drawing-view-iso">
<g class="smooth_visible" stroke="#000" stroke-width="0.35" fill="none" stroke-linecap="round" stroke-linejoin="round">
  <path d="M280.28,109.95L278.16,108.72" />
  <path d="M280.28,109.95L280.28,69.94" />
  <path d="M278.16,108.72L278.16,68.71" />
  <path d="M280.28,69.94L278.16,68.71" />
  <path d="M280.28,109.95L280.63,110.15" />
  <path d="M280.98,109.95L280.28,109.95" />
  <path d="M280.98,109.95L280.98,69.94" />
  <path d="M280.98,69.94L280.28,69.94" />
  <path d="M278.16,68.71L278.16,68.31" />
  <path d="M280.28,69.94L280.63,69.33" />
  <path d="M278.51,68.10L278.16,68.71" />
  <path d="M280.63,69.33L278.51,68.10" />
  <path d="M280.98,109.95L280.63,110.15" />
  <path d="M280.98,109.95L336.84,77.69" />
  <path d="M280.98,69.94L336.84,37.69" />
  <path d="M336.84,77.69L336.84,37.69" />
  <path d="M292.65,91.37L292.65,91.30L292.64,91.23L292.64,91.15L292.63,91.08L292.61,91.01L292.59,90.94L292.57,90.87L292.54,90.81L292.51,90.74L292.47,90.68L292.43,90.62L292.38,90.57L292.33,90.52L292.27,90.47L292.20,90.44L292.14,90.41L292.07,90.39L292.00,90.37L291.93,90.36L291.85,90.36L291.78,90.37L291.71,90.38L291.64,90.39L291.57,90.41L291.50,90.43L291.43,90.46L291.37,90.49L291.30,90.52L291.24,90.55" />
  <path d="M291.24,90.55L291.15,90.61L291.07,90.66L290.99,90.73L290.91,90.79L290.83,90.86L290.76,90.93L290.69,91.00L290.62,91.08L290.55,91.15L290.49,91.23L290.43,91.31L290.37,91.40L290.32,91.48L290.26,91.57L290.21,91.65L290.16,91.74L290.12,91.83L290.08,91.93L290.04,92.02L290.00,92.11L289.96,92.21L289.93,92.31L289.91,92.40L289.88,92.50L289.86,92.60L289.84,92.70L289.83,92.80L289.82,92.90L289.82,93.00" />
  <path d="M289.82,93.00L289.83,93.18L289.86,93.35L289.91,93.52L289.99,93.67L290.09,93.81L290.23,93.92L290.39,93.98L290.56,94.01L290.73,94.00L290.90,93.97L291.07,93.91L291.22,93.83L291.37,93.74L291.51,93.63L291.64,93.52L291.76,93.40L291.88,93.27L291.99,93.13L292.09,92.99L292.19,92.85L292.27,92.70L292.35,92.54L292.43,92.38L292.49,92.22L292.54,92.06L292.59,91.89L292.62,91.72L292.64,91.54L292.65,91.37" />
  <path d="M326.95,55.24L326.94,55.13L326.94,55.02L326.93,54.92L326.91,54.81L326.89,54.70L326.86,54.60L326.82,54.49L326.78,54.39L326.73,54.30L326.68,54.20L326.61,54.11L326.54,54.03L326.46,53.96L326.37,53.90L326.28,53.84L326.18,53.80L326.07,53.76L325.97,53.74L325.86,53.73L325.75,53.73L325.64,53.73L325.53,53.75L325.43,53.77L325.32,53.80L325.22,53.83L325.12,53.87L325.02,53.92L324.92,53.96L324.82,54.02" />
  <path d="M324.82,54.02L324.79,54.04L324.75,54.06L324.72,54.08L324.68,54.10L324.65,54.13L324.61,54.15L324.58,54.17L324.55,54.20L324.51,54.22L324.48,54.25L324.45,54.27L324.42,54.30L324.38,54.32L324.35,54.35L324.32,54.38L324.29,54.40L324.26,54.43L324.23,54.46L324.20,54.49L324.17,54.52L324.14,54.54L324.11,54.57L324.08,54.60L324.05,54.63L324.02,54.66L323.99,54.69L323.97,54.72L323.94,54.75L323.91,54.78" />
  <path d="M322.91,56.52L322.90,56.55L322.88,56.59L322.87,56.63L322.86,56.67L322.85,56.71L322.84,56.75L322.83,56.79L322.82,56.83L322.81,56.87L322.80,56.91L322.79,56.95L322.78,56.99L322.77,57.03L322.76,57.07L322.76,57.12L322.75,57.16L322.74,57.20L322.74,57.24L322.73,57.28L322.73,57.32L322.72,57.36L322.72,57.40L322.71,57.44L322.71,57.48L322.71,57.53L322.71,57.57L322.70,57.61L322.70,57.65L322.70,57.69" />
  <path d="M322.70,57.69L322.72,57.95L322.76,58.21L322.83,58.46L322.95,58.69L323.11,58.90L323.31,59.06L323.55,59.16L323.81,59.20L324.07,59.19L324.32,59.14L324.57,59.05L324.80,58.93L325.02,58.79L325.23,58.63L325.43,58.46L325.62,58.28L325.79,58.09L325.96,57.89L326.11,57.67L326.25,57.46L326.38,57.23L326.50,57.00L326.61,56.76L326.70,56.52L326.78,56.27L326.85,56.02L326.90,55.76L326.93,55.50L326.95,55.24" />
  <path d="M280.98,69.94L280.63,69.33" />
  <path d="M278.51,68.10L278.16,68.31" />
  <path d="M280.63,69.33L336.49,37.07" />
  <path d="M278.51,68.10L334.37,35.85" />
  <path d="M336.49,37.07L334.37,35.85" />
  <path d="M336.49,37.07L336.84,37.69" />
  <path d="M336.84,37.28L336.84,37.69" />
  <path d="M291.94,91.37L291.94,91.34L291.94,91.32L291.94,91.29L291.94,91.26L291.94,91.24L291.93,91.21L291.93,91.18L291.93,91.15L291.92,91.13L291.91,91.10L291.91,91.07L291.90,91.05L291.89,91.02L291.88,91.00L291.87,90.97L291.86,90.95L291.85,90.92L291.84,90.90L291.82,90.87L291.81,90.85L291.79,90.83L291.78,90.81L291.76,90.79L291.74,90.77L291.72,90.75L291.70,90.73L291.68,90.71L291.66,90.70L291.63,90.68" />
  <path d="M291.63,90.68L291.61,90.67L291.58,90.66L291.56,90.65L291.53,90.64L291.51,90.63L291.48,90.63L291.45,90.62L291.43,90.62L291.40,90.62L291.37,90.61L291.35,90.61L291.32,90.62L291.29,90.62L291.26,90.62L291.24,90.62L291.21,90.63L291.18,90.64L291.16,90.64L291.13,90.65L291.11,90.66L291.08,90.67L291.05,90.68L291.03,90.69L291.00,90.70L290.98,90.71L290.95,90.72L290.93,90.73L290.91,90.75L290.88,90.76" />
  <path d="M290.88,90.76L290.82,90.80L290.76,90.84L290.69,90.89L290.64,90.94L290.58,90.99L290.52,91.04L290.47,91.09L290.42,91.15L290.37,91.21L290.32,91.27L290.28,91.33L290.23,91.39L290.19,91.45L290.15,91.52L290.11,91.58L290.08,91.65L290.04,91.72L290.01,91.79L289.98,91.86L289.95,91.93L289.93,92.00L289.91,92.07L289.88,92.15L289.87,92.22L289.85,92.29L289.84,92.37L289.83,92.44L289.82,92.52L289.82,92.60" />
  <path d="M289.82,92.60L289.82,92.62L289.82,92.65L289.82,92.68L289.83,92.70L289.83,92.73L289.83,92.76L289.84,92.79L289.84,92.81L289.85,92.84L289.85,92.87L289.86,92.89L289.87,92.92L289.87,92.94L289.88,92.97L289.89,93.00L289.90,93.02L289.92,93.04L289.93,93.07L289.94,93.09L289.96,93.12L289.97,93.14L289.99,93.16L290.01,93.18L290.03,93.20L290.05,93.22L290.07,93.24L290.09,93.25L290.11,93.27L290.13,93.28" />
  <path d="M290.13,93.28L290.23,93.32L290.33,93.35L290.43,93.35L290.53,93.34L290.63,93.32L290.73,93.28L290.82,93.24L290.91,93.19L291.00,93.13L291.08,93.07L291.16,93.00L291.24,92.93L291.31,92.86L291.38,92.78L291.44,92.70L291.50,92.62L291.56,92.53L291.62,92.45L291.67,92.36L291.71,92.26L291.76,92.17L291.80,92.07L291.83,91.98L291.86,91.88L291.89,91.78L291.91,91.68L291.93,91.58L291.94,91.47L291.94,91.37" />
  <path d="M326.24,55.24L326.24,55.20L326.24,55.15L326.23,55.11L326.23,55.06L326.23,55.01L326.22,54.97L326.22,54.92L326.21,54.88L326.20,54.84L326.19,54.79L326.18,54.75L326.17,54.70L326.15,54.66L326.14,54.62L326.12,54.58L326.10,54.53L326.08,54.49L326.06,54.45L326.04,54.41L326.01,54.38L325.99,54.34L325.96,54.30L325.93,54.27L325.90,54.24L325.87,54.20L325.83,54.17L325.80,54.15L325.76,54.12L325.72,54.10" />
  <path d="M325.72,54.10L325.68,54.08L325.64,54.06L325.60,54.04L325.55,54.02L325.51,54.01L325.47,54.00L325.42,53.99L325.38,53.99L325.33,53.98L325.29,53.98L325.24,53.98L325.20,53.98L325.15,53.98L325.11,53.99L325.06,54.00L325.02,54.01L324.97,54.01L324.93,54.03L324.88,54.04L324.84,54.05L324.80,54.07L324.76,54.08L324.71,54.10L324.67,54.12L324.63,54.14L324.59,54.16L324.55,54.18L324.51,54.20L324.47,54.22" />
  <path d="M324.47,54.22L324.45,54.23L324.43,54.24L324.41,54.25L324.40,54.27L324.38,54.28L324.36,54.29L324.34,54.30L324.32,54.31L324.31,54.32L324.29,54.34L324.27,54.35L324.25,54.36L324.24,54.37L324.22,54.39L324.20,54.40L324.18,54.41L324.17,54.43L324.15,54.44L324.13,54.45L324.12,54.47L324.10,54.48L324.08,54.49L324.07,54.51L324.05,54.52L324.03,54.54L324.02,54.55L324.00,54.57L323.98,54.58L323.97,54.59" />
  <path d="M322.78,56.66L322.77,56.68L322.77,56.70L322.76,56.72L322.76,56.75L322.75,56.77L322.75,56.79L322.75,56.81L322.74,56.83L322.74,56.85L322.74,56.87L322.73,56.89L322.73,56.92L322.73,56.94L322.72,56.96L322.72,56.98L322.72,57.00L322.72,57.02L322.71,57.04L322.71,57.07L322.71,57.09L322.71,57.11L322.71,57.13L322.71,57.15L322.71,57.17L322.70,57.20L322.70,57.22L322.70,57.24L322.70,57.26L322.70,57.28" />
  <path d="M322.70,57.28L322.70,57.33L322.70,57.37L322.71,57.42L322.71,57.46L322.71,57.51L322.72,57.55L322.73,57.60L322.73,57.64L322.74,57.69L322.75,57.73L322.76,57.78L322.78,57.82L322.79,57.86L322.80,57.91L322.82,57.95L322.84,57.99L322.86,58.03L322.88,58.07L322.90,58.11L322.93,58.15L322.95,58.19L322.98,58.22L323.01,58.26L323.04,58.29L323.07,58.32L323.11,58.35L323.14,58.38L323.18,58.40L323.22,58.43" />
  <path d="M323.22,58.43L323.38,58.50L323.54,58.54L323.72,58.54L323.89,58.53L324.05,58.49L324.22,58.43L324.37,58.36L324.52,58.27L324.67,58.18L324.80,58.07L324.94,57.96L325.06,57.84L325.18,57.72L325.29,57.59L325.40,57.46L325.51,57.32L325.60,57.18L325.69,57.03L325.78,56.88L325.86,56.73L325.93,56.57L326.00,56.41L326.05,56.25L326.11,56.09L326.15,55.92L326.19,55.75L326.22,55.58L326.23,55.41L326.24,55.24" />
  <path d="M289.82,89.74L289.82,90.15" />
  <path d="M289.82,90.15L289.82,90.14L289.82,90.13L289.82,90.13L289.82,90.12L289.82,90.11L289.82,90.11L289.82,90.10L289.82,90.10L289.82,90.09L289.82,90.08L289.82,90.08L289.82,90.07L289.82,90.06L289.82,90.06L289.82,90.05L289.82,90.05L289.82,90.04L289.82,90.03L289.82,90.03L289.82,90.02L289.82,90.01L289.82,90.01L289.81,90.00L289.81,90.00L289.81,89.99L289.81,89.98L289.81,89.98L289.81,89.97L289.81,89.96" />
  <path d="M288.60,92.06L288.60,92.06L288.61,92.06L288.62,92.06L288.62,92.05L288.63,92.05L288.63,92.05L288.64,92.05L288.64,92.04L288.65,92.04L288.66,92.04L288.66,92.04L288.67,92.03L288.67,92.03L288.68,92.03L288.68,92.03L288.69,92.02L288.70,92.02L288.70,92.02L288.71,92.01L288.71,92.01L288.72,92.01L288.72,92.00L288.73,92.00L288.73,92.00L288.74,92.00L288.75,91.99L288.75,91.99L288.76,91.99L288.76,91.98" />
  <path d="M288.76,91.98L288.83,91.94L288.89,91.90L288.95,91.86L289.01,91.81L289.07,91.76L289.12,91.70L289.17,91.65L289.22,91.59L289.27,91.54L289.32,91.48L289.37,91.42L289.41,91.35L289.45,91.29L289.49,91.22L289.53,91.16L289.57,91.09L289.60,91.02L289.63,90.95L289.66,90.89L289.69,90.81L289.72,90.74L289.74,90.67L289.76,90.60L289.78,90.52L289.79,90.45L289.81,90.37L289.81,90.30L289.82,90.22L289.82,90.15" />
  <path d="M324.12,53.61L324.12,54.02" />
  <path d="M324.12,54.02L324.12,54.01L324.12,54.00L324.12,54.00L324.12,53.99L324.12,53.98L324.12,53.98L324.12,53.97L324.12,53.96L324.12,53.96L324.12,53.95L324.12,53.94L324.12,53.94L324.12,53.93L324.12,53.92L324.11,53.92L324.11,53.91L324.11,53.90L324.11,53.90L324.11,53.89L324.11,53.89L324.11,53.88L324.11,53.87L324.11,53.87L324.11,53.86L324.11,53.85L324.11,53.85L324.11,53.84L324.11,53.83L324.11,53.83" />
  <path d="M322.18,57.17L322.19,57.16L322.19,57.16L322.20,57.16L322.20,57.16L322.21,57.15L322.22,57.15L322.22,57.15L322.23,57.14L322.23,57.14L322.24,57.14L322.25,57.13L322.25,57.13L322.26,57.13L322.26,57.13L322.27,57.12L322.27,57.12L322.28,57.12L322.29,57.11L322.29,57.11L322.30,57.11L322.30,57.10L322.31,57.10L322.31,57.10L322.32,57.09L322.33,57.09L322.33,57.09L322.34,57.08L322.34,57.08L322.35,57.08" />
  <path d="M322.35,57.08L322.46,57.01L322.56,56.94L322.66,56.86L322.76,56.78L322.86,56.70L322.95,56.61L323.04,56.52L323.12,56.43L323.20,56.33L323.28,56.23L323.36,56.13L323.43,56.03L323.50,55.92L323.57,55.81L323.63,55.70L323.69,55.59L323.75,55.48L323.80,55.36L323.85,55.25L323.90,55.13L323.94,55.01L323.98,54.89L324.01,54.77L324.04,54.64L324.07,54.52L324.09,54.40L324.10,54.27L324.11,54.14L324.12,54.02" />
  <path d="M336.84,37.28L336.49,37.07" />
</g>
<g class="hard_visible" stroke="#000" stroke-width="0.7" fill="none" stroke-linecap="round" stroke-linejoin="round">
  <path d="M278.16,108.72L278.51,108.93" />
  <path d="M280.63,110.15L278.51,108.93" />
  <path d="M278.16,108.31L278.16,108.72" />
  <path d="M278.16,108.31L278.16,68.31" />
  <path d="M278.16,108.31L278.51,108.93" />
  <path d="M280.63,110.15L336.49,77.90" />
  <path d="M278.51,108.93L334.37,76.67" />
  <path d="M336.49,77.90L334.37,76.67" />
  <path d="M323.91,54.78L323.86,54.84L323.82,54.89L323.78,54.94L323.73,55.00L323.69,55.05L323.65,55.11L323.61,55.16L323.57,55.22L323.53,55.28L323.49,55.33L323.45,55.39L323.41,55.45L323.38,55.51L323.34,55.57L323.31,55.63L323.27,55.69L323.24,55.75L323.21,55.81L323.18,55.87L323.15,55.94L323.12,56.00L323.09,56.06L323.06,56.13L323.03,56.19L323.01,56.25L322.98,56.32L322.96,56.38L322.93,56.45L322.91,56.52" />
  <path d="M278.16,108.31L334.02,76.06" />
  <path d="M278.16,68.31L334.02,36.05" />
  <path d="M334.02,76.06L334.02,36.05" />
  <path d="M289.82,89.74L289.80,89.49L289.75,89.25L289.64,89.03L289.46,88.86L289.24,88.75L289.00,88.73L288.75,88.77L288.53,88.86L288.31,88.98L288.11,89.13L287.93,89.29L287.76,89.47L287.61,89.67L287.47,89.87L287.35,90.09L287.24,90.31L287.15,90.54L287.08,90.77L287.03,91.01L287.00,91.26L287.00,91.50L287.04,91.75L287.12,91.98L287.27,92.18L287.47,92.32L287.70,92.38L287.95,92.36L288.19,92.30L288.41,92.19" />
  <path d="M288.41,92.19L288.49,92.13L288.58,92.08L288.66,92.02L288.74,91.95L288.81,91.89L288.89,91.81L288.96,91.74L289.03,91.67L289.09,91.59L289.15,91.51L289.22,91.43L289.27,91.35L289.33,91.26L289.38,91.18L289.43,91.09L289.48,91.00L289.53,90.91L289.57,90.82L289.61,90.72L289.65,90.63L289.68,90.53L289.71,90.44L289.74,90.34L289.76,90.24L289.78,90.14L289.80,90.04L289.81,89.94L289.82,89.84L289.82,89.74" />
  <path d="M324.12,53.61L324.09,53.24L324.00,52.88L323.84,52.55L323.58,52.29L323.25,52.13L322.88,52.10L322.52,52.16L322.17,52.29L321.85,52.47L321.55,52.69L321.28,52.94L321.03,53.21L320.80,53.50L320.59,53.81L320.41,54.13L320.24,54.46L320.11,54.80L320.00,55.16L319.92,55.52L319.88,55.89L319.88,56.26L319.94,56.62L320.07,56.97L320.28,57.27L320.58,57.48L320.94,57.57L321.31,57.55L321.66,57.44L322.00,57.28" />
  <path d="M322.00,57.28L322.13,57.20L322.25,57.12L322.37,57.03L322.49,56.93L322.60,56.83L322.71,56.72L322.82,56.61L322.92,56.50L323.02,56.39L323.12,56.27L323.21,56.15L323.29,56.02L323.38,55.89L323.46,55.76L323.53,55.63L323.61,55.50L323.67,55.36L323.74,55.23L323.80,55.09L323.85,54.94L323.90,54.80L323.95,54.66L323.99,54.51L324.03,54.36L324.06,54.21L324.08,54.06L324.10,53.91L324.11,53.76L324.12,53.61" />
  <path d="M336.49,77.90L336.84,77.69" />
  <path d="M334.02,76.06L334.37,76.67" />
  <path d="M336.84,77.29L336.49,77.90" />
  <path d="M336.84,77.29L334.72,76.06" />
  <path d="M334.37,76.67L334.72,76.06" />
  <path d="M336.84,77.29L336.84,77.69" />
  <path d="M336.84,77.29L336.84,37.28" />
  <path d="M323.97,54.59L323.91,54.65L323.85,54.71L323.79,54.77L323.73,54.83L323.68,54.89L323.62,54.96L323.57,55.02L323.52,55.09L323.47,55.16L323.42,55.22L323.38,55.29L323.33,55.36L323.28,55.43L323.24,55.50L323.20,55.58L323.16,55.65L323.12,55.72L323.08,55.80L323.05,55.87L323.01,55.95L322.98,56.03L322.95,56.10L322.92,56.18L322.89,56.26L322.86,56.34L322.84,56.42L322.82,56.50L322.79,56.58L322.78,56.66" />
  <path d="M334.02,36.05L334.37,35.85" />
  <path d="M334.02,76.06L334.72,76.06" />
  <path d="M334.72,76.06L334.72,36.05" />
  <path d="M334.72,36.05L334.02,36.05" />
  <path d="M289.81,89.96L289.81,89.94L289.80,89.92L289.80,89.90L289.79,89.88L289.79,89.86L289.78,89.84L289.78,89.82L289.77,89.80L289.76,89.78L289.76,89.76L289.75,89.74L289.74,89.72L289.73,89.70L289.72,89.69L289.71,89.67L289.70,89.65L289.69,89.63L289.68,89.61L289.67,89.60L289.65,89.58L289.64,89.57L289.63,89.55L289.61,89.54L289.60,89.52L289.58,89.51L289.56,89.49L289.55,89.48L289.53,89.47L289.51,89.46" />
  <path d="M289.51,89.46L289.39,89.41L289.26,89.39L289.13,89.40L289.01,89.43L288.88,89.47L288.77,89.53L288.66,89.60L288.55,89.68L288.45,89.76L288.36,89.86L288.27,89.95L288.19,90.05L288.12,90.16L288.04,90.27L287.98,90.38L287.92,90.50L287.87,90.62L287.82,90.74L287.78,90.86L287.75,90.99L287.72,91.12L287.71,91.25L287.70,91.38L287.71,91.51L287.73,91.64L287.77,91.76L287.83,91.88L287.91,91.98L288.01,92.06" />
  <path d="M288.01,92.06L288.03,92.07L288.05,92.08L288.07,92.09L288.09,92.09L288.11,92.10L288.13,92.11L288.15,92.11L288.17,92.12L288.19,92.12L288.21,92.12L288.23,92.13L288.25,92.13L288.27,92.13L288.29,92.13L288.31,92.13L288.33,92.13L288.36,92.12L288.38,92.12L288.40,92.12L288.42,92.12L288.44,92.11L288.46,92.11L288.48,92.10L288.50,92.10L288.52,92.09L288.54,92.08L288.56,92.08L288.58,92.07L288.60,92.06" />
  <path d="M324.11,53.83L324.11,53.79L324.10,53.75L324.10,53.71L324.09,53.67L324.08,53.63L324.07,53.60L324.07,53.56L324.06,53.52L324.05,53.48L324.03,53.45L324.02,53.41L324.01,53.37L323.99,53.34L323.98,53.30L323.96,53.27L323.94,53.23L323.92,53.20L323.90,53.17L323.88,53.13L323.86,53.10L323.83,53.07L323.81,53.04L323.78,53.01L323.75,52.99L323.73,52.96L323.70,52.94L323.66,52.91L323.63,52.89L323.60,52.87" />
  <path d="M323.60,52.87L323.40,52.79L323.18,52.76L322.97,52.77L322.76,52.82L322.55,52.89L322.36,52.99L322.17,53.11L322.00,53.24L321.84,53.38L321.68,53.53L321.54,53.69L321.40,53.86L321.27,54.04L321.15,54.22L321.05,54.41L320.95,54.60L320.86,54.80L320.78,55.00L320.71,55.21L320.66,55.42L320.62,55.64L320.59,55.85L320.58,56.07L320.59,56.29L320.63,56.50L320.69,56.71L320.79,56.90L320.93,57.07L321.10,57.20" />
  <path d="M321.10,57.20L321.13,57.22L321.17,57.24L321.20,57.25L321.24,57.27L321.28,57.28L321.31,57.29L321.35,57.30L321.39,57.31L321.43,57.31L321.47,57.32L321.51,57.32L321.54,57.32L321.58,57.32L321.62,57.32L321.66,57.31L321.70,57.31L321.74,57.31L321.78,57.30L321.81,57.29L321.85,57.28L321.89,57.27L321.93,57.26L321.96,57.25L322.00,57.24L322.04,57.23L322.07,57.21L322.11,57.20L322.15,57.18L322.18,57.17" />
  <path d="M336.84,37.28L334.72,36.05" />
  <path d="M334.72,36.05L334.37,35.85" />
</g>
<text x="213.0" y="25.0" font-family="monospace" font-size="3.5" fill="#666">ISO</text>
</g>
<rect x="15" y="247" width="390" height="35" fill="#fafafa" stroke="black" stroke-width="0.5" />
<line x1="235" y1="247" x2="235" y2="282" stroke="black" stroke-width="0.35" />
<line x1="235" y1="255.8" x2="405" y2="255.8" stroke="black" stroke-width="0.25" />
<line x1="235" y1="264.5" x2="405" y2="264.5" stroke="black" stroke-width="0.25" />
<line x1="235" y1="273.2" x2="405" y2="273.2" stroke="black" stroke-width="0.25" />
<line x1="320.0" y1="247" x2="320.0" y2="282" stroke="black" stroke-width="0.25" />
<text x="237.0" y="250.5" font-family="sans-serif" font-size="2" fill="#888" letter-spacing="0.3">PART NAME</text>
<text x="237.0" y="254.2" font-family="sans-serif" font-size="4.5" font-weight="bold">Quality Pass Bracket</text>
<text x="322.0" y="250.5" font-family="sans-serif" font-size="2" fill="#888" letter-spacing="0.3">DRAWING NO.</text>
<text x="322.0" y="254.2" font-family="sans-serif" font-size="4.5" font-weight="bold">-</text>
<text x="237.0" y="259.2" font-family="sans-serif" font-size="2" fill="#888" letter-spacing="0.3">MATERIAL</text>
<text x="237.0" y="263.0" font-family="sans-serif" font-size="3.5" font-weight="normal">AL6061</text>
<text x="322.0" y="259.2" font-family="sans-serif" font-size="2" fill="#888" letter-spacing="0.3">SCALE</text>
<text x="322.0" y="263.0" font-family="sans-serif" font-size="3.5" font-weight="normal">1:2</text>
<text x="237.0" y="268.0" font-family="sans-serif" font-size="2" fill="#888" letter-spacing="0.3">TOLERANCE</text>
<text x="237.0" y="271.8" font-family="sans-serif" font-size="3.5" font-weight="normal">KS B 0401:2014-m</text>
<text x="322.0" y="268.0" font-family="sans-serif" font-size="2" fill="#888" letter-spacing="0.3">DATE</text>
<text x="322.0" y="271.8" font-family="sans-serif" font-size="3.5" font-weight="normal">2026-04-26</text>
<text x="237.0" y="276.8" font-family="sans-serif" font-size="2" fill="#888" letter-spacing="0.3">DESIGNED BY</text>
<text x="237.0" y="280.5" font-family="sans-serif" font-size="3.5" font-weight="normal">-</text>
<text x="322.0" y="276.8" font-family="sans-serif" font-size="2" fill="#888" letter-spacing="0.3">SIZE / SHEET</text>
<text x="322.0" y="280.5" font-family="sans-serif" font-size="3.5" font-weight="normal">A3</text>
<g class="projection-symbol" transform="translate(387,277.625)">
<line x1="0" y1="-4.0" x2="0" y2="4.0" stroke="black" stroke-width="0.35" />
<line x1="0" y1="-1.6" x2="4.8" y2="-4.0" stroke="black" stroke-width="0.35" />
<line x1="0" y1="1.6" x2="4.8" y2="4.0" stroke="black" stroke-width="0.35" />
<line x1="4.8" y1="-4.0" x2="4.8" y2="4.0" stroke="black" stroke-width="0.35" />
<line x1="-1" y1="0" x2="5.8" y2="0" stroke="black" stroke-width="0.13" stroke-dasharray="2,1" />
<circle cx="8.4" cy="0" r="4.0" fill="none" stroke="black" stroke-width="0.35" />
<circle cx="8.4" cy="0" r="1.6" fill="none" stroke="black" stroke-width="0.35" />
<line x1="3.40" y1="0" x2="13.4" y2="0" stroke="black" stroke-width="0.13" stroke-dasharray="2,1" />
<line x1="8.4" y1="-5.0" x2="8.4" y2="5.0" stroke="black" stroke-width="0.13" stroke-dasharray="2,1" />
</g>
<text x="322.0" y="276.8" font-family="monospace" font-size="1.8" fill="#999">BBox: 160 x 100 x 8 mm</text>
<line x1="19" y1="277" x2="29" y2="277" stroke="#000" stroke-width="0.7" stroke-linecap="round" />
<text x="31" y="277.8" font-family="monospace" font-size="2" fill="#666">Visible</text>
<line x1="51" y1="277" x2="61" y2="277" stroke="#000" stroke-width="0.30" stroke-linecap="round" stroke-dasharray="4,2" />
<text x="63" y="277.8" font-family="monospace" font-size="2" fill="#666">Hidden</text>
<line x1="83" y1="277" x2="93" y2="277" stroke="#000" stroke-width="0.18" stroke-linecap="round" stroke-dasharray="8,2,1.5,2" />
<text x="95" y="277.8" font-family="monospace" font-size="2" fill="#666">Center</text>
<line x1="115" y1="277" x2="125" y2="277" stroke="#000" stroke-width="0.18" stroke-linecap="round" />
<text x="127" y="277.8" font-family="monospace" font-size="2" fill="#666">Dimension</text>
<g class="general-notes" font-family="sans-serif" font-size="2.0" fill="#333">
<text x="19.0" y="236.0" font-size="2.5" font-weight="bold" fill="#000">NOTES:</text><text x="19.0" y="240.0">1. GENERAL TOLERANCES PER KS B 0401:2014-m</text><text x="19.0" y="244.0">2. BREAK ALL SHARP EDGES C1</text><text x="19.0" y="248.0">3. DEBURR ALL MACHINED EDGES</text><text x="19.0" y="252.0">4. MATERIAL: AL6061</text><text x="19.0" y="256.0">5. ALL DIMENSIONS IN mm</text></g>
</svg>