<svg xmlns="http://www.w3.org/2000/svg" width="420mm" height="297mm" viewBox="0 0 420 297">
<rect width="420" height="297" fill="white" />
<defs><pattern id="hatch45" patternUnits="userSpaceOnUse" width="3" height="3" patternTransform="rotate(45)"><line x1="0" y1="0" x2="0" y2="3" stroke="#555" stroke-width="0.15" /></pattern></defs>
<rect x="15" y="15" width="390" height="267" fill="none" stroke="black" stroke-width="0.7" />
<rect x="16" y="16" width="388" height="265" fill="none" stroke="black" stroke-width="0.35" />
<rect x="15.0" y="15.0" width="195.0" height="116.0" fill="none" stroke="#ccc" stroke-width="0.15" stroke-dasharray="6,3" />
<rect x="210.0" y="15.0" width="195.0" height="116.0" fill="none" stroke="#ccc" stroke-width="0.15" stroke-dasharray="6,3" />
<rect x="15.0" y="131.0" width="195.0" height="116.0" fill="none" stroke="#ccc" stroke-width="0.15" stroke-dasharray="6,3" />
<rect x="210.0" y="131.0" width="195.0" height="116.0" fill="none" stroke="#ccc" stroke-width="0.15" stroke-dasharray="6,3" />

<g class="drawing-view drawing-view-front" id="drawing-view-front" data-view-id="front" data-view-kind="orthographic" data-view-label="FRONT" data-region-ref="drawing-view-front">
<g class="iso_visible" stroke="#999" stroke-width="0.13" fill="none" stroke-linecap="round" stroke-linejoin="round">
  <path d="M88.50,208.00L88.50,196.00" />
  <path d="M130.50,208.00L130.50,196.00" />
</g>
<g class="smooth_visible" stroke="#000" stroke-width="0.35" fill="none" stroke-linecap="round" stroke-linejoin="round">
  <path d="M67.50,208.00L67.50,196.00" />
  <path d="M67.50,196.00L157.50,196.00" />
  <path d="M94.50,196.00L94.29,196.00L94.09,196.00L93.88,196.00L93.67,196.00L93.47,196.00L93.26,196.00L93.05,196.00L92.84,196.00L92.64,196.00L92.43,196.00L92.22,196.00L92.02,196.00L91.81,196.00L91.60,196.00L91.40,196.00L91.19,196.00L90.98,196.00L90.78,196.00L90.57,196.00L90.36,196.00L90.16,196.00L89.95,196.00L89.74,196.00L89.53,196.00L89.33,196.00L89.12,196.00L88.91,196.00L88.71,196.00L88.50,196.00" />
  <path d="M88.50,196.00L88.71,196.00L88.91,196.00L89.12,196.00L89.33,196.00L89.53,196.00L89.74,196.00L89.95,196.00L90.16,196.00L90.36,196.00L90.57,196.00L90.78,196.00L90.98,196.00L91.19,196.00L91.40,196.00L91.60,196.00L91.81,196.00L92.02,196.00L92.22,196.00L92.43,196.00L92.64,196.00L92.84,196.00L93.05,196.00L93.26,196.00L93.47,196.00L93.67,196.00L93.88,196.00L94.09,196.00L94.29,196.00L94.50,196.00" />
  <path d="M136.50,196.00L136.29,196.00L136.09,196.00L135.88,196.00L135.67,196.00L135.47,196.00L135.26,196.00L135.05,196.00L134.84,196.00L134.64,196.00L134.43,196.00L134.22,196.00L134.02,196.00L133.81,196.00L133.60,196.00L133.40,196.00L133.19,196.00L132.98,196.00L132.78,196.00L132.57,196.00L132.36,196.00L132.16,196.00L131.95,196.00L131.74,196.00L131.53,196.00L131.33,196.00L131.12,196.00L130.91,196.00L130.71,196.00L130.50,196.00" />
  <path d="M130.50,196.00L130.71,196.00L130.91,196.00L131.12,196.00L131.33,196.00L131.53,196.00L131.74,196.00L131.95,196.00L132.16,196.00L132.36,196.00L132.57,196.00L132.78,196.00L132.98,196.00L133.19,196.00L133.40,196.00L133.60,196.00L133.81,196.00L134.02,196.00L134.22,196.00L134.43,196.00L134.64,196.00L134.84,196.00L135.05,196.00L135.26,196.00L135.47,196.00L135.67,196.00L135.88,196.00L136.09,196.00L136.29,196.00L136.50,196.00" />
  <path d="M77.50,196.00L99.50,196.00" />
  <path d="M77.50,196.00L99.50,196.00" />
  <path d="M125.50,196.00L147.50,196.00" />
  <path d="M125.50,196.00L147.50,196.00" />
  <path d="M67.50,208.00L157.50,208.00" />
  <path d="M157.50,208.00L157.50,196.00" />
  <path d="M94.50,208.00L94.29,208.00L94.09,208.00L93.88,208.00L93.67,208.00L93.47,208.00L93.26,208.00L93.05,208.00L92.84,208.00L92.64,208.00L92.43,208.00L92.22,208.00L92.02,208.00L91.81,208.00L91.60,208.00L91.40,208.00L91.19,208.00L90.98,208.00L90.78,208.00L90.57,208.00L90.36,208.00L90.16,208.00L89.95,208.00L89.74,208.00L89.53,208.00L89.33,208.00L89.12,208.00L88.91,208.00L88.71,208.00L88.50,208.00" />
  <path d="M88.50,208.00L88.71,208.00L88.91,208.00L89.12,208.00L89.33,208.00L89.53,208.00L89.74,208.00L89.95,208.00L90.16,208.00L90.36,208.00L90.57,208.00L90.78,208.00L90.98,208.00L91.19,208.00L91.40,208.00L91.60,208.00L91.81,208.00L92.02,208.00L92.22,208.00L92.43,208.00L92.64,208.00L92.84,208.00L93.05,208.00L93.26,208.00L93.47,208.00L93.67,208.00L93.88,208.00L94.09,208.00L94.29,208.00L94.50,208.00" />
  <path d="M136.50,208.00L136.29,208.00L136.09,208.00L135.88,208.00L135.67,208.00L135.47,208.00L135.26,208.00L135.05,208.00L134.84,208.00L134.64,208.00L134.43,208.00L134.22,208.00L134.02,208.00L133.81,208.00L133.60,208.00L133.40,208.00L133.19,208.00L132.98,208.00L132.78,208.00L132.57,208.00L132.36,208.00L132.16,208.00L131.95,208.00L131.74,208.00L131.53,208.00L131.33,208.00L131.12,208.00L130.91,208.00L130.71,208.00L130.50,208.00" />
  <path d="M130.50,208.00L130.71,208.00L130.91,208.00L131.12,208.00L131.33,208.00L131.53,208.00L131.74,208.00L131.95,208.00L132.16,208.00L132.36,208.00L132.57,208.00L132.78,208.00L132.98,208.00L133.19,208.00L133.40,208.00L133.60,208.00L133.81,208.00L134.02,208.00L134.22,208.00L134.43,208.00L134.64,208.00L134.84,208.00L135.05,208.00L135.26,208.00L135.47,208.00L135.67,208.00L135.88,208.00L136.09,208.00L136.29,208.00L136.50,208.00" />
  <path d="M94.50,208.00L94.50,196.00" />
  <path d="M136.50,208.00L136.50,196.00" />
  <path d="M77.50,196.00L77.50,170.00" />
  <path d="M99.50,196.00L99.50,170.00" />
  <path d="M77.50,170.00L99.50,170.00" />
  <circle cx="88.50" cy="181.00" r="4.00" />
  <path d="M125.50,196.00L125.50,170.00" />
  <path d="M147.50,196.00L147.50,170.00" />
  <path d="M125.50,170.00L147.50,170.00" />
  <circle cx="136.50" cy="181.00" r="4.00" />
</g>
<g class="hard_visible" stroke="#000" stroke-width="0.7" fill="none" stroke-linecap="round" stroke-linejoin="round">
  <path d="M67.50,208.00L67.50,196.00" />
  <path d="M67.50,208.00L157.50,208.00" />
  <path d="M157.50,208.00L157.50,196.00" />
  <path d="M67.50,196.00L157.50,196.00" />
  <path d="M77.50,196.00L77.50,170.00" />
  <path d="M99.50,196.00L99.50,170.00" />
  <path d="M77.50,170.00L99.50,170.00" />
  <circle cx="88.50" cy="181.00" r="4.00" />
  <path d="M125.50,196.00L125.50,170.00" />
  <path d="M147.50,196.00L147.50,170.00" />
  <path d="M125.50,170.00L147.50,170.00" />
  <circle cx="136.50" cy="181.00" r="4.00" />
</g>
<g class="centerlines" stroke="#000" stroke-width="0.18" fill="none" stroke-dasharray="8,2,1.5,2" stroke-linecap="round" vector-effect="non-scaling-stroke">
  <line x1="81.54" y1="181.00" x2="95.46" y2="181.00" />
  <line x1="88.50" y1="174.04" x2="88.50" y2="187.96" />
  <line x1="129.54" y1="181.00" x2="143.46" y2="181.00" />
  <line x1="136.50" y1="174.04" x2="136.50" y2="187.96" />
</g>
<g class="symmetry-axes" stroke="#000" stroke-width="0.13" fill="none" stroke-dasharray="8,2,1.5,2" stroke-linecap="round" opacity="0.5" vector-effect="non-scaling-stroke">
  <line x1="112.50" y1="165.36" x2="112.50" y2="212.64" />
</g>
<text x="18.0" y="141.0" font-family="monospace" font-size="3.5" fill="#666">FRONT</text>
<g class="dimensions-front" stroke="#000" stroke-width="0.18" fill="none" stroke-linecap="round" vector-effect="non-scaling-stroke">
<line x1="67.50" y1="210.00" x2="67.50" y2="214.50" />
<line x1="157.50" y1="210.00" x2="157.50" y2="214.50" />
<line x1="67.50" y1="216.00" x2="157.50" y2="216.00" />
<polygon points="67.50,216.00 65.50,215.30 65.50,216.70" fill="#000" />
<polygon points="157.50,216.00 159.50,216.70 159.50,215.30" fill="#000" />
<text x="112.50" y="215.00" text-anchor="middle" font-family="sans-serif" font-size="3" fill="#000">90</text>
<line x1="155.50" y1="170.00" x2="167.00" y2="170.00" />
<line x1="155.50" y1="208.00" x2="167.00" y2="208.00" />
<line x1="165.50" y1="170.00" x2="165.50" y2="208.00" />
<polygon points="165.50,170.00 166.20,168.00 164.80,168.00" fill="#000" />
<polygon points="165.50,208.00 164.80,210.00 166.20,210.00" fill="#000" />
<text x="164.00" y="189.00" text-anchor="middle" font-family="sans-serif" font-size="3" fill="#000" transform="rotate(-90,164.00,189.00)">38</text>
<line x1="91.33" y1="178.17" x2="95.57" y2="173.93" />
<line x1="95.57" y1="173.93" x2="103.57" y2="173.93" />
<polygon points="91.33,178.17 92.25,180.08 93.24,179.09" fill="#000" />
<text x="99.57" y="172.73" text-anchor="middle" font-family="sans-serif" font-size="3" fill="#000">⌀8</text>
<line x1="67.50" y1="210.00" x2="67.50" y2="221.50" />
<line x1="88.50" y1="210.00" x2="88.50" y2="221.50" />
<line x1="67.50" y1="223.00" x2="88.50" y2="223.00" />
<polygon points="67.50,223.00 65.50,222.30 65.50,223.70" fill="#000" />
<polygon points="88.50,223.00 90.50,223.70 90.50,222.30" fill="#000" />
<text x="78.00" y="222.00" text-anchor="middle" font-family="sans-serif" font-size="3" fill="#000">21</text>
<line x1="88.50" y1="210.00" x2="88.50" y2="221.50" />
<line x1="136.50" y1="210.00" x2="136.50" y2="221.50" />
<line x1="88.50" y1="223.00" x2="136.50" y2="223.00" />
<polygon points="88.50,223.00 86.50,222.30 86.50,223.70" fill="#000" />
<polygon points="136.50,223.00 138.50,223.70 138.50,222.30" fill="#000" />
<text x="112.50" y="222.00" text-anchor="middle" font-family="sans-serif" font-size="3" fill="#000">48</text>
<line x1="136.50" y1="210.00" x2="136.50" y2="221.50" />
<line x1="157.50" y1="210.00" x2="157.50" y2="221.50" />
<line x1="136.50" y1="223.00" x2="157.50" y2="223.00" />
<polygon points="136.50,223.00 134.50,222.30 134.50,223.70" fill="#000" />
<polygon points="157.50,223.00 159.50,223.70 159.50,222.30" fill="#000" />
<text x="147.00" y="222.00" text-anchor="middle" font-family="sans-serif" font-size="3" fill="#000">21</text>
<line x1="155.50" y1="181.00" x2="174.00" y2="181.00" />
<line x1="155.50" y1="208.00" x2="174.00" y2="208.00" />
<line x1="172.50" y1="181.00" x2="172.50" y2="208.00" />
<polygon points="172.50,181.00 173.20,179.00 171.80,179.00" fill="#000" />
<polygon points="172.50,208.00 171.80,210.00 173.20,210.00" fill="#000" />
<text x="171.00" y="194.50" text-anchor="middle" font-family="sans-serif" font-size="3" fill="#000" transform="rotate(-90,171.00,194.50)">27</text>
<line x1="155.50" y1="170.00" x2="174.00" y2="170.00" />
<line x1="155.50" y1="181.00" x2="174.00" y2="181.00" />
<line x1="172.50" y1="170.00" x2="172.50" y2="181.00" />
<polygon points="172.50,170.00 173.20,168.00 171.80,168.00" fill="#000" />
<polygon points="172.50,181.00 171.80,183.00 173.20,183.00" fill="#000" />
<text x="171.00" y="175.50" text-anchor="middle" font-family="sans-serif" font-size="3" fill="#000" transform="rotate(-90,171.00,175.50)">11</text>
</g>
<g class="dimensions-front plan-dimensions-front" stroke="#000" stroke-width="0.18" fill="none" vector-effect="non-scaling-stroke">
<line x1="91.33" y1="178.17" x2="95.57" y2="173.93" />
<line x1="95.57" y1="173.93" x2="103.57" y2="173.93" />
<polygon points="91.33,178.17 90.41,176.26 89.42,177.25" fill="#000" />
<text x="104.07" y="173.43" text-anchor="start" font-family="sans-serif" font-size="3" fill="#000" data-dim-id="HINGE_PIN_DIA" data-value-mm="8">Ø8</text>
</g>
<g class="datums-front">
  <polygon points="88.50,208.00 91.50,208.00 90.00,210.50" fill="#000" stroke="#000" stroke-width="0.25" />
  <line x1="90.00" y1="210.50" x2="90.00" y2="213.50" stroke="#000" stroke-width="0.3" />
  <rect x="87.75" y="213.50" width="4.5" height="4.5" fill="white" stroke="#000" stroke-width="0.35" />
  <text x="90.00" y="216.74" text-anchor="middle" font-family="sans-serif" font-size="3.5" font-weight="bold" fill="#000">A</text>
  <polygon points="67.50,195.10 67.50,198.10 65.00,196.60" fill="#000" stroke="#000" stroke-width="0.25" />
  <line x1="65.00" y1="196.60" x2="62.00" y2="196.60" stroke="#000" stroke-width="0.3" />
  <rect x="57.50" y="194.35" width="4.5" height="4.5" fill="white" stroke="#000" stroke-width="0.35" />
  <text x="59.75" y="197.59" text-anchor="middle" font-family="sans-serif" font-size="3.5" font-weight="bold" fill="#000">B</text>
</g>
<g class="baseline-dimensions">
<line x1="67.50" y1="208.00" x2="67.50" y2="222.00" stroke="#000" stroke-width="0.18" />
<line x1="88.50" y1="181.00" x2="88.50" y2="222.00" stroke="#000" stroke-width="0.18" />
<line x1="67.50" y1="220.00" x2="88.50" y2="220.00" stroke="#000" stroke-width="0.18" />
<polygon points="67.50,220.00 69.50,219.30 69.50,220.70" fill="#000" />
<polygon points="88.50,220.00 86.50,219.30 86.50,220.70" fill="#000" />
<text x="78.00" y="218.80" text-anchor="middle" font-family="sans-serif" font-size="3" fill="#000">21</text>
<line x1="67.50" y1="208.00" x2="67.50" y2="227.00" stroke="#000" stroke-width="0.18" />
<line x1="91.50" y1="211.00" x2="91.50" y2="227.00" stroke="#000" stroke-width="0.18" />
<line x1="67.50" y1="225.00" x2="91.50" y2="225.00" stroke="#000" stroke-width="0.18" />
<polygon points="67.50,225.00 69.50,224.30 69.50,225.70" fill="#000" />
<polygon points="91.50,225.00 89.50,224.30 89.50,225.70" fill="#000" />
<text x="79.50" y="226.30" text-anchor="middle" font-family="sans-serif" font-size="3" fill="#000">24</text>
<line x1="67.50" y1="208.00" x2="67.50" y2="232.00" stroke="#000" stroke-width="0.18" />
<line x1="133.50" y1="211.00" x2="133.50" y2="232.00" stroke="#000" stroke-width="0.18" />
<line x1="67.50" y1="230.00" x2="133.50" y2="230.00" stroke="#000" stroke-width="0.18" />
<polygon points="67.50,230.00 69.50,229.30 69.50,230.70" fill="#000" />
<polygon points="133.50,230.00 131.50,229.30 131.50,230.70" fill="#000" />
<text x="100.50" y="228.80" text-anchor="middle" font-family="sans-serif" font-size="3" fill="#000">66</text>
<line x1="67.50" y1="208.00" x2="67.50" y2="237.00" stroke="#000" stroke-width="0.18" />
<line x1="136.50" y1="181.00" x2="136.50" y2="237.00" stroke="#000" stroke-width="0.18" />
<line x1="67.50" y1="235.00" x2="136.50" y2="235.00" stroke="#000" stroke-width="0.18" />
<polygon points="67.50,235.00 69.50,234.30 69.50,235.70" fill="#000" />
<polygon points="136.50,235.00 134.50,234.30 134.50,235.70" fill="#000" />
<text x="102.00" y="233.80" text-anchor="middle" font-family="sans-serif" font-size="3" fill="#000">69</text>
</g>
</g>

<g class="drawing-view drawing-view-top" id="drawing-view-top" data-view-id="top" data-view-kind="orthographic" data-view-label="TOP" data-region-ref="drawing-view-top">
<g class="iso_visible" stroke="#999" stroke-width="0.13" fill="none" stroke-linecap="round" stroke-linejoin="round">
  <path d="M84.50,66.00L84.50,52.00" />
  <path d="M92.50,66.00L92.50,52.00" />
  <path d="M132.50,66.00L132.50,52.00" />
  <path d="M140.50,66.00L140.50,52.00" />
</g>
<g class="smooth_visible" stroke="#000" stroke-width="0.35" fill="none" stroke-linecap="round" stroke-linejoin="round">
  <path d="M67.50,98.00L67.50,48.00" />
  <path d="M67.50,98.00L157.50,98.00" />
  <path d="M67.50,48.00L157.50,48.00" />
  <path d="M157.50,98.00L157.50,48.00" />
  <circle cx="91.50" cy="84.00" r="3.00" />
  <circle cx="133.50" cy="84.00" r="3.00" />
  <path d="M77.50,66.00L99.50,66.00" />
  <path d="M77.50,66.00L77.50,52.00" />
  <path d="M99.50,66.00L99.50,52.00" />
  <path d="M77.50,52.00L99.50,52.00" />
  <path d="M125.50,66.00L147.50,66.00" />
  <path d="M125.50,66.00L125.50,52.00" />
  <path d="M147.50,66.00L147.50,52.00" />
  <path d="M125.50,52.00L147.50,52.00" />
  <path d="M77.50,66.00L99.50,66.00" />
  <path d="M88.50,66.00L88.64,66.00L88.78,66.00L88.91,66.00L89.05,66.00L89.19,66.00L89.33,66.00L89.47,66.00L89.60,66.00L89.74,66.00L89.88,66.00L90.02,66.00L90.16,66.00L90.29,66.00L90.43,66.00L90.57,66.00L90.71,66.00L90.84,66.00L90.98,66.00L91.12,66.00L91.26,66.00L91.40,66.00L91.53,66.00L91.67,66.00L91.81,66.00L91.95,66.00L92.09,66.00L92.22,66.00L92.36,66.00L92.50,66.00" />
  <path d="M92.50,66.00L92.22,66.00L91.95,66.00L91.67,66.00L91.40,66.00L91.12,66.00L90.84,66.00L90.57,66.00L90.29,66.00L90.02,66.00L89.74,66.00L89.47,66.00L89.19,66.00L88.91,66.00L88.64,66.00L88.36,66.00L88.09,66.00L87.81,66.00L87.53,66.00L87.26,66.00L86.98,66.00L86.71,66.00L86.43,66.00L86.16,66.00L85.88,66.00L85.60,66.00L85.33,66.00L85.05,66.00L84.78,66.00L84.50,66.00" />
  <path d="M84.50,66.00L84.64,66.00L84.78,66.00L84.91,66.00L85.05,66.00L85.19,66.00L85.33,66.00L85.47,66.00L85.60,66.00L85.74,66.00L85.88,66.00L86.02,66.00L86.16,66.00L86.29,66.00L86.43,66.00L86.57,66.00L86.71,66.00L86.84,66.00L86.98,66.00L87.12,66.00L87.26,66.00L87.40,66.00L87.53,66.00L87.67,66.00L87.81,66.00L87.95,66.00L88.09,66.00L88.22,66.00L88.36,66.00L88.50,66.00" />
  <path d="M77.50,66.00L77.50,52.00" />
  <path d="M99.50,66.00L99.50,52.00" />
  <path d="M77.50,52.00L99.50,52.00" />
  <path d="M88.50,52.00L88.64,52.00L88.78,52.00L88.91,52.00L89.05,52.00L89.19,52.00L89.33,52.00L89.47,52.00L89.60,52.00L89.74,52.00L89.88,52.00L90.02,52.00L90.16,52.00L90.29,52.00L90.43,52.00L90.57,52.00L90.71,52.00L90.84,52.00L90.98,52.00L91.12,52.00L91.26,52.00L91.40,52.00L91.53,52.00L91.67,52.00L91.81,52.00L91.95,52.00L92.09,52.00L92.22,52.00L92.36,52.00L92.50,52.00" />
  <path d="M92.50,52.00L92.22,52.00L91.95,52.00L91.67,52.00L91.40,52.00L91.12,52.00L90.84,52.00L90.57,52.00L90.29,52.00L90.02,52.00L89.74,52.00L89.47,52.00L89.19,52.00L88.91,52.00L88.64,52.00L88.36,52.00L88.09,52.00L87.81,52.00L87.53,52.00L87.26,52.00L86.98,52.00L86.71,52.00L86.43,52.00L86.16,52.00L85.88,52.00L85.60,52.00L85.33,52.00L85.05,52.00L84.78,52.00L84.50,52.00" />
  <path d="M84.50,52.00L84.64,52.00L84.78,52.00L84.91,52.00L85.05,52.00L85.19,52.00L85.33,52.00L85.47,52.00L85.60,52.00L85.74,52.00L85.88,52.00L86.02,52.00L86.16,52.00L86.29,52.00L86.43,52.00L86.57,52.00L86.71,52.00L86.84,52.00L86.98,52.00L87.12,52.00L87.26,52.00L87.40,52.00L87.53,52.00L87.67,52.00L87.81,52.00L87.95,52.00L88.09,52.00L88.22,52.00L88.36,52.00L88.50,52.00" />
  <path d="M125.50,66.00L147.50,66.00" />
  <path d="M136.50,66.00L136.64,66.00L136.78,66.00L136.91,66.00L137.05,66.00L137.19,66.00L137.33,66.00L137.47,66.00L137.60,66.00L137.74,66.00L137.88,66.00L138.02,66.00L138.16,66.00L138.29,66.00L138.43,66.00L138.57,66.00L138.71,66.00L138.84,66.00L138.98,66.00L139.12,66.00L139.26,66.00L139.40,66.00L139.53,66.00L139.67,66.00L139.81,66.00L139.95,66.00L140.09,66.00L140.22,66.00L140.36,66.00L140.50,66.00" />
  <path d="M140.50,66.00L140.22,66.00L139.95,66.00L139.67,66.00L139.40,66.00L139.12,66.00L138.84,66.00L138.57,66.00L138.29,66.00L138.02,66.00L137.74,66.00L137.47,66.00L137.19,66.00L136.91,66.00L136.64,66.00L136.36,66.00L136.09,66.00L135.81,66.00L135.53,66.00L135.26,66.00L134.98,66.00L134.71,66.00L134.43,66.00L134.16,66.00L133.88,66.00L133.60,66.00L133.33,66.00L133.05,66.00L132.78,66.00L132.50,66.00" />
  <path d="M132.50,66.00L132.64,66.00L132.78,66.00L132.91,66.00L133.05,66.00L133.19,66.00L133.33,66.00L133.47,66.00L133.60,66.00L133.74,66.00L133.88,66.00L134.02,66.00L134.16,66.00L134.29,66.00L134.43,66.00L134.57,66.00L134.71,66.00L134.84,66.00L134.98,66.00L135.12,66.00L135.26,66.00L135.40,66.00L135.53,66.00L135.67,66.00L135.81,66.00L135.95,66.00L136.09,66.00L136.22,66.00L136.36,66.00L136.50,66.00" />
  <path d="M125.50,66.00L125.50,52.00" />
  <path d="M147.50,66.00L147.50,52.00" />
  <path d="M125.50,52.00L147.50,52.00" />
  <path d="M136.50,52.00L136.64,52.00L136.78,52.00L136.91,52.00L137.05,52.00L137.19,52.00L137.33,52.00L137.47,52.00L137.60,52.00L137.74,52.00L137.88,52.00L138.02,52.00L138.16,52.00L138.29,52.00L138.43,52.00L138.57,52.00L138.71,52.00L138.84,52.00L138.98,52.00L139.12,52.00L139.26,52.00L139.40,52.00L139.53,52.00L139.67,52.00L139.81,52.00L139.95,52.00L140.09,52.00L140.22,52.00L140.36,52.00L140.50,52.00" />
  <path d="M140.50,52.00L140.22,52.00L139.95,52.00L139.67,52.00L139.40,52.00L139.12,52.00L138.84,52.00L138.57,52.00L138.29,52.00L138.02,52.00L137.74,52.00L137.47,52.00L137.19,52.00L136.91,52.00L136.64,52.00L136.36,52.00L136.09,52.00L135.81,52.00L135.53,52.00L135.26,52.00L134.98,52.00L134.71,52.00L134.43,52.00L134.16,52.00L133.88,52.00L133.60,52.00L133.33,52.00L133.05,52.00L132.78,52.00L132.50,52.00" />
  <path d="M132.50,52.00L132.64,52.00L132.78,52.00L132.91,52.00L133.05,52.00L133.19,52.00L133.33,52.00L133.47,52.00L133.60,52.00L133.74,52.00L133.88,52.00L134.02,52.00L134.16,52.00L134.29,52.00L134.43,52.00L134.57,52.00L134.71,52.00L134.84,52.00L134.98,52.00L135.12,52.00L135.26,52.00L135.40,52.00L135.53,52.00L135.67,52.00L135.81,52.00L135.95,52.00L136.09,52.00L136.22,52.00L136.36,52.00L136.50,52.00" />
</g>
<g class="hard_visible" stroke="#000" stroke-width="0.7" fill="none" stroke-linecap="round" stroke-linejoin="round">
  <path d="M67.50,98.00L67.50,48.00" />
  <path d="M67.50,98.00L157.50,98.00" />
  <path d="M67.50,48.00L157.50,48.00" />
  <path d="M157.50,98.00L157.50,48.00" />
  <circle cx="91.50" cy="84.00" r="3.00" />
  <circle cx="133.50" cy="84.00" r="3.00" />
</g>
<g class="centerlines" stroke="#000" stroke-width="0.18" fill="none" stroke-dasharray="8,2,1.5,2" stroke-linecap="round" vector-effect="non-scaling-stroke">
  <line x1="84.54" y1="84.00" x2="98.46" y2="84.00" />
  <line x1="91.50" y1="77.04" x2="91.50" y2="90.96" />
  <line x1="126.54" y1="84.00" x2="140.46" y2="84.00" />
  <line x1="133.50" y1="77.04" x2="133.50" y2="90.96" />
</g>
<g class="symmetry-axes" stroke="#000" stroke-width="0.13" fill="none" stroke-dasharray="8,2,1.5,2" stroke-linecap="round" opacity="0.5" vector-effect="non-scaling-stroke">
  <line x1="112.50" y1="43.36" x2="112.50" y2="102.64" />
</g>
<text x="18.0" y="25.0" font-family="monospace" font-size="3.5" fill="#666">TOP</text>
<g class="dimensions-top" stroke="#000" stroke-width="0.18" fill="none" stroke-linecap="round" vector-effect="non-scaling-stroke">
<line x1="67.50" y1="100.00" x2="67.50" y2="104.50" />
<line x1="157.50" y1="100.00" x2="157.50" y2="104.50" />
<line x1="67.50" y1="106.00" x2="157.50" y2="106.00" />
<polygon points="67.50,106.00 65.50,105.30 65.50,106.70" fill="#000" />
<polygon points="157.50,106.00 159.50,106.70 159.50,105.30" fill="#000" />
<text x="112.50" y="105.00" text-anchor="middle" font-family="sans-serif" font-size="3" fill="#000">90</text>
<line x1="155.50" y1="48.00" x2="167.00" y2="48.00" />
<line x1="155.50" y1="98.00" x2="167.00" y2="98.00" />
<line x1="165.50" y1="48.00" x2="165.50" y2="98.00" />
<polygon points="165.50,48.00 166.20,46.00 164.80,46.00" fill="#000" />
<polygon points="165.50,98.00 164.80,100.00 166.20,100.00" fill="#000" />
<text x="164.00" y="73.00" text-anchor="middle" font-family="sans-serif" font-size="3" fill="#000" transform="rotate(-90,164.00,73.00)">50</text>
<line x1="93.62" y1="81.88" x2="97.86" y2="77.64" />
<line x1="97.86" y1="77.64" x2="105.86" y2="77.64" />
<polygon points="93.62,81.88 94.54,83.79 95.53,82.80" fill="#000" />
<text x="101.86" y="76.44" text-anchor="middle" font-family="sans-serif" font-size="3" fill="#000">⌀6</text>
<line x1="67.50" y1="100.00" x2="67.50" y2="111.50" />
<line x1="91.50" y1="100.00" x2="91.50" y2="111.50" />
<line x1="67.50" y1="113.00" x2="91.50" y2="113.00" />
<polygon points="67.50,113.00 65.50,112.30 65.50,113.70" fill="#000" />
<polygon points="91.50,113.00 93.50,113.70 93.50,112.30" fill="#000" />
<text x="79.50" y="112.00" text-anchor="middle" font-family="sans-serif" font-size="3" fill="#000">24</text>
<line x1="91.50" y1="100.00" x2="91.50" y2="111.50" />
<line x1="133.50" y1="100.00" x2="133.50" y2="111.50" />
<line x1="91.50" y1="113.00" x2="133.50" y2="113.00" />
<polygon points="91.50,113.00 89.50,112.30 89.50,113.70" fill="#000" />
<polygon points="133.50,113.00 135.50,113.70 135.50,112.30" fill="#000" />
<text x="112.50" y="112.00" text-anchor="middle" font-family="sans-serif" font-size="3" fill="#000">42</text>
<line x1="133.50" y1="100.00" x2="133.50" y2="111.50" />
<line x1="157.50" y1="100.00" x2="157.50" y2="111.50" />
<line x1="133.50" y1="113.00" x2="157.50" y2="113.00" />
<polygon points="133.50,113.00 131.50,112.30 131.50,113.70" fill="#000" />
<polygon points="157.50,113.00 159.50,113.70 159.50,112.30" fill="#000" />
<text x="145.50" y="112.00" text-anchor="middle" font-family="sans-serif" font-size="3" fill="#000">24</text>
<line x1="155.50" y1="84.00" x2="174.00" y2="84.00" />
<line x1="155.50" y1="98.00" x2="174.00" y2="98.00" />
<line x1="172.50" y1="84.00" x2="172.50" y2="98.00" />
<polygon points="172.50,84.00 173.20,82.00 171.80,82.00" fill="#000" />
<polygon points="172.50,98.00 171.80,100.00 173.20,100.00" fill="#000" />
<text x="171.00" y="91.00" text-anchor="middle" font-family="sans-serif" font-size="3" fill="#000" transform="rotate(-90,171.00,91.00)">14</text>
<line x1="155.50" y1="48.00" x2="174.00" y2="48.00" />
<line x1="155.50" y1="84.00" x2="174.00" y2="84.00" />
<line x1="172.50" y1="48.00" x2="172.50" y2="84.00" />
<polygon points="172.50,48.00 173.20,46.00 171.80,46.00" fill="#000" />
<polygon points="172.50,84.00 171.80,86.00 173.20,86.00" fill="#000" />
<text x="171.00" y="66.00" text-anchor="middle" font-family="sans-serif" font-size="3" fill="#000" transform="rotate(-90,171.00,66.00)">36</text>
</g>
<g class="dimensions-top plan-dimensions-top" stroke="#000" stroke-width="0.18" fill="none" vector-effect="non-scaling-stroke">
<line x1="93.62" y1="81.88" x2="97.86" y2="77.64" />
<line x1="97.86" y1="77.64" x2="105.86" y2="77.64" />
<polygon points="93.62,81.88 92.70,79.97 91.71,80.96" fill="#000" />
<text x="106.36" y="77.14" text-anchor="start" font-family="sans-serif" font-size="3" fill="#000" data-dim-id="MOUNTING_HOLE_DIA" data-value-mm="6">Ø6</text>
</g>
<g class="datums-top">
  <polygon points="67.50,81.50 67.50,84.50 65.00,83.00" fill="#000" stroke="#000" stroke-width="0.25" />
  <line x1="65.00" y1="83.00" x2="62.00" y2="83.00" stroke="#000" stroke-width="0.3" />
  <rect x="57.50" y="80.75" width="4.5" height="4.5" fill="white" stroke="#000" stroke-width="0.35" />
  <text x="59.75" y="83.99" text-anchor="middle" font-family="sans-serif" font-size="3.5" font-weight="bold" fill="#000">B</text>
  <polygon points="88.50,48.00 91.50,48.00 90.00,45.50" fill="#000" stroke="#000" stroke-width="0.25" />
  <line x1="90.00" y1="45.50" x2="90.00" y2="42.50" stroke="#000" stroke-width="0.3" />
  <rect x="87.75" y="38.00" width="4.5" height="4.5" fill="white" stroke="#000" stroke-width="0.35" />
  <text x="90.00" y="41.24" text-anchor="middle" font-family="sans-serif" font-size="3.5" font-weight="bold" fill="#000">C</text>
</g>
</g>

<g class="drawing-view drawing-view-right" id="drawing-view-right" data-view-id="right" data-view-kind="orthographic" data-view-label="RIGHT" data-region-ref="drawing-view-right">
<g class="iso_visible" stroke="#999" stroke-width="0.13" fill="none" stroke-linecap="round" stroke-linejoin="round">
  <path d="M299.50,208.00L299.50,196.00" />
  <path d="M293.50,208.00L293.50,196.00" />
  <path d="M299.50,208.00L299.50,196.00" />
  <path d="M293.50,208.00L293.50,196.00" />
  <path d="M314.50,185.00L328.50,185.00" />
  <path d="M314.50,185.00L328.50,185.00" />
</g>
<g class="smooth_visible" stroke="#000" stroke-width="0.35" fill="none" stroke-linecap="round" stroke-linejoin="round">
  <path d="M282.50,208.00L282.50,196.00" />
  <path d="M282.50,196.00L332.50,196.00" />
  <path d="M332.50,208.00L332.50,196.00" />
  <path d="M282.50,208.00L332.50,208.00" />
  <path d="M296.50,196.00L296.60,196.00L296.71,196.00L296.81,196.00L296.91,196.00L297.02,196.00L297.12,196.00L297.22,196.00L297.33,196.00L297.43,196.00L297.53,196.00L297.64,196.00L297.74,196.00L297.84,196.00L297.95,196.00L298.05,196.00L298.16,196.00L298.26,196.00L298.36,196.00L298.47,196.00L298.57,196.00L298.67,196.00L298.78,196.00L298.88,196.00L298.98,196.00L299.09,196.00L299.19,196.00L299.29,196.00L299.40,196.00L299.50,196.00" />
  <path d="M299.50,196.00L299.29,196.00L299.09,196.00L298.88,196.00L298.67,196.00L298.47,196.00L298.26,196.00L298.05,196.00L297.84,196.00L297.64,196.00L297.43,196.00L297.22,196.00L297.02,196.00L296.81,196.00L296.60,196.00L296.40,196.00L296.19,196.00L295.98,196.00L295.78,196.00L295.57,196.00L295.36,196.00L295.16,196.00L294.95,196.00L294.74,196.00L294.53,196.00L294.33,196.00L294.12,196.00L293.91,196.00L293.71,196.00L293.50,196.00" />
  <path d="M293.50,196.00L293.60,196.00L293.71,196.00L293.81,196.00L293.91,196.00L294.02,196.00L294.12,196.00L294.22,196.00L294.33,196.00L294.43,196.00L294.53,196.00L294.64,196.00L294.74,196.00L294.84,196.00L294.95,196.00L295.05,196.00L295.16,196.00L295.26,196.00L295.36,196.00L295.47,196.00L295.57,196.00L295.67,196.00L295.78,196.00L295.88,196.00L295.98,196.00L296.09,196.00L296.19,196.00L296.29,196.00L296.40,196.00L296.50,196.00" />
  <path d="M296.50,196.00L296.60,196.00L296.71,196.00L296.81,196.00L296.91,196.00L297.02,196.00L297.12,196.00L297.22,196.00L297.33,196.00L297.43,196.00L297.53,196.00L297.64,196.00L297.74,196.00L297.84,196.00L297.95,196.00L298.05,196.00L298.16,196.00L298.26,196.00L298.36,196.00L298.47,196.00L298.57,196.00L298.67,196.00L298.78,196.00L298.88,196.00L298.98,196.00L299.09,196.00L299.19,196.00L299.29,196.00L299.40,196.00L299.50,196.00" />
  <path d="M299.50,196.00L299.29,196.00L299.09,196.00L298.88,196.00L298.67,196.00L298.47,196.00L298.26,196.00L298.05,196.00L297.84,196.00L297.64,196.00L297.43,196.00L297.22,196.00L297.02,196.00L296.81,196.00L296.60,196.00L296.40,196.00L296.19,196.00L295.98,196.00L295.78,196.00L295.57,196.00L295.36,196.00L295.16,196.00L294.95,196.00L294.74,196.00L294.53,196.00L294.33,196.00L294.12,196.00L293.91,196.00L293.71,196.00L293.50,196.00" />
  <path d="M293.50,196.00L293.60,196.00L293.71,196.00L293.81,196.00L293.91,196.00L294.02,196.00L294.12,196.00L294.22,196.00L294.33,196.00L294.43,196.00L294.53,196.00L294.64,196.00L294.74,196.00L294.84,196.00L294.95,196.00L295.05,196.00L295.16,196.00L295.26,196.00L295.36,196.00L295.47,196.00L295.57,196.00L295.67,196.00L295.78,196.00L295.88,196.00L295.98,196.00L296.09,196.00L296.19,196.00L296.29,196.00L296.40,196.00L296.50,196.00" />
  <path d="M314.50,196.00L328.50,196.00" />
  <path d="M314.50,196.00L328.50,196.00" />
  <path d="M314.50,196.00L328.50,196.00" />
  <path d="M314.50,196.00L328.50,196.00" />
  <path d="M296.50,208.00L296.60,208.00L296.71,208.00L296.81,208.00L296.91,208.00L297.02,208.00L297.12,208.00L297.22,208.00L297.33,208.00L297.43,208.00L297.53,208.00L297.64,208.00L297.74,208.00L297.84,208.00L297.95,208.00L298.05,208.00L298.16,208.00L298.26,208.00L298.36,208.00L298.47,208.00L298.57,208.00L298.67,208.00L298.78,208.00L298.88,208.00L298.98,208.00L299.09,208.00L299.19,208.00L299.29,208.00L299.40,208.00L299.50,208.00" />
  <path d="M299.50,208.00L299.29,208.00L299.09,208.00L298.88,208.00L298.67,208.00L298.47,208.00L298.26,208.00L298.05,208.00L297.84,208.00L297.64,208.00L297.43,208.00L297.22,208.00L297.02,208.00L296.81,208.00L296.60,208.00L296.40,208.00L296.19,208.00L295.98,208.00L295.78,208.00L295.57,208.00L295.36,208.00L295.16,208.00L294.95,208.00L294.74,208.00L294.53,208.00L294.33,208.00L294.12,208.00L293.91,208.00L293.71,208.00L293.50,208.00" />
  <path d="M293.50,208.00L293.60,208.00L293.71,208.00L293.81,208.00L293.91,208.00L294.02,208.00L294.12,208.00L294.22,208.00L294.33,208.00L294.43,208.00L294.53,208.00L294.64,208.00L294.74,208.00L294.84,208.00L294.95,208.00L295.05,208.00L295.16,208.00L295.26,208.00L295.36,208.00L295.47,208.00L295.57,208.00L295.67,208.00L295.78,208.00L295.88,208.00L295.98,208.00L296.09,208.00L296.19,208.00L296.29,208.00L296.40,208.00L296.50,208.00" />
  <path d="M296.50,208.00L296.60,208.00L296.71,208.00L296.81,208.00L296.91,208.00L297.02,208.00L297.12,208.00L297.22,208.00L297.33,208.00L297.43,208.00L297.53,208.00L297.64,208.00L297.74,208.00L297.84,208.00L297.95,208.00L298.05,208.00L298.16,208.00L298.26,208.00L298.36,208.00L298.47,208.00L298.57,208.00L298.67,208.00L298.78,208.00L298.88,208.00L298.98,208.00L299.09,208.00L299.19,208.00L299.29,208.00L299.40,208.00L299.50,208.00" />
  <path d="M299.50,208.00L299.29,208.00L299.09,208.00L298.88,208.00L298.67,208.00L298.47,208.00L298.26,208.00L298.05,208.00L297.84,208.00L297.64,208.00L297.43,208.00L297.22,208.00L297.02,208.00L296.81,208.00L296.60,208.00L296.40,208.00L296.19,208.00L295.98,208.00L295.78,208.00L295.57,208.00L295.36,208.00L295.16,208.00L294.95,208.00L294.74,208.00L294.53,208.00L294.33,208.00L294.12,208.00L293.91,208.00L293.71,208.00L293.50,208.00" />
  <path d="M293.50,208.00L293.60,208.00L293.71,208.00L293.81,208.00L293.91,208.00L294.02,208.00L294.12,208.00L294.22,208.00L294.33,208.00L294.43,208.00L294.53,208.00L294.64,208.00L294.74,208.00L294.84,208.00L294.95,208.00L295.05,208.00L295.16,208.00L295.26,208.00L295.36,208.00L295.47,208.00L295.57,208.00L295.67,208.00L295.78,208.00L295.88,208.00L295.98,208.00L296.09,208.00L296.19,208.00L296.29,208.00L296.40,208.00L296.50,208.00" />
  <path d="M314.50,196.00L314.50,170.00" />
  <path d="M314.50,196.00L314.50,170.00" />
  <path d="M314.50,177.00L314.50,177.28L314.50,177.55L314.50,177.83L314.50,178.10L314.50,178.38L314.50,178.66L314.50,178.93L314.50,179.21L314.50,179.48L314.50,179.76L314.50,180.03L314.50,180.31L314.50,180.59L314.50,180.86L314.50,181.14L314.50,181.41L314.50,181.69L314.50,181.97L314.50,182.24L314.50,182.52L314.50,182.79L314.50,183.07L314.50,183.34L314.50,183.62L314.50,183.90L314.50,184.17L314.50,184.45L314.50,184.72L314.50,185.00" />
  <path d="M314.50,185.00L314.50,184.72L314.50,184.45L314.50,184.17L314.50,183.90L314.50,183.62L314.50,183.34L314.50,183.07L314.50,182.79L314.50,182.52L314.50,182.24L314.50,181.97L314.50,181.69L314.50,181.41L314.50,181.14L314.50,180.86L314.50,180.59L314.50,180.31L314.50,180.03L314.50,179.76L314.50,179.48L314.50,179.21L314.50,178.93L314.50,178.66L314.50,178.38L314.50,178.10L314.50,177.83L314.50,177.55L314.50,177.28L314.50,177.00" />
  <path d="M314.50,170.00L328.50,170.00" />
  <path d="M328.50,196.00L328.50,170.00" />
  <path d="M314.50,170.00L328.50,170.00" />
  <path d="M328.50,196.00L328.50,170.00" />
  <path d="M328.50,177.00L328.50,177.28L328.50,177.55L328.50,177.83L328.50,178.10L328.50,178.38L328.50,178.66L328.50,178.93L328.50,179.21L328.50,179.48L328.50,179.76L328.50,180.03L328.50,180.31L328.50,180.59L328.50,180.86L328.50,181.14L328.50,181.41L328.50,181.69L328.50,181.97L328.50,182.24L328.50,182.52L328.50,182.79L328.50,183.07L328.50,183.34L328.50,183.62L328.50,183.90L328.50,184.17L328.50,184.45L328.50,184.72L328.50,185.00" />
  <path d="M328.50,185.00L328.50,184.72L328.50,184.45L328.50,184.17L328.50,183.90L328.50,183.62L328.50,183.34L328.50,183.07L328.50,182.79L328.50,182.52L328.50,182.24L328.50,181.97L328.50,181.69L328.50,181.41L328.50,181.14L328.50,180.86L328.50,180.59L328.50,180.31L328.50,180.03L328.50,179.76L328.50,179.48L328.50,179.21L328.50,178.93L328.50,178.66L328.50,178.38L328.50,178.10L328.50,177.83L328.50,177.55L328.50,177.28L328.50,177.00" />
  <path d="M314.50,196.00L314.50,170.00" />
  <path d="M314.50,177.00L314.50,177.28L314.50,177.55L314.50,177.83L314.50,178.10L314.50,178.38L314.50,178.66L314.50,178.93L314.50,179.21L314.50,179.48L314.50,179.76L314.50,180.03L314.50,180.31L314.50,180.59L314.50,180.86L314.50,181.14L314.50,181.41L314.50,181.69L314.50,181.97L314.50,182.24L314.50,182.52L314.50,182.79L314.50,183.07L314.50,183.34L314.50,183.62L314.50,183.90L314.50,184.17L314.50,184.45L314.50,184.72L314.50,185.00" />
  <path d="M314.50,185.00L314.50,184.72L314.50,184.45L314.50,184.17L314.50,183.90L314.50,183.62L314.50,183.34L314.50,183.07L314.50,182.79L314.50,182.52L314.50,182.24L314.50,181.97L314.50,181.69L314.50,181.41L314.50,181.14L314.50,180.86L314.50,180.59L314.50,180.31L314.50,180.03L314.50,179.76L314.50,179.48L314.50,179.21L314.50,178.93L314.50,178.66L314.50,178.38L314.50,178.10L314.50,177.83L314.50,177.55L314.50,177.28L314.50,177.00" />
  <path d="M314.50,170.00L328.50,170.00" />
  <path d="M328.50,196.00L328.50,170.00" />
  <path d="M328.50,177.00L328.50,177.28L328.50,177.55L328.50,177.83L328.50,178.10L328.50,178.38L328.50,178.66L328.50,178.93L328.50,179.21L328.50,179.48L328.50,179.76L328.50,180.03L328.50,180.31L328.50,180.59L328.50,180.86L328.50,181.14L328.50,181.41L328.50,181.69L328.50,181.97L328.50,182.24L328.50,182.52L328.50,182.79L328.50,183.07L328.50,183.34L328.50,183.62L328.50,183.90L328.50,184.17L328.50,184.45L328.50,184.72L328.50,185.00" />
  <path d="M328.50,185.00L328.50,184.72L328.50,184.45L328.50,184.17L328.50,183.90L328.50,183.62L328.50,183.34L328.50,183.07L328.50,182.79L328.50,182.52L328.50,182.24L328.50,181.97L328.50,181.69L328.50,181.41L328.50,181.14L328.50,180.86L328.50,180.59L328.50,180.31L328.50,180.03L328.50,179.76L328.50,179.48L328.50,179.21L328.50,178.93L328.50,178.66L328.50,178.38L328.50,178.10L328.50,177.83L328.50,177.55L328.50,177.28L328.50,177.00" />
  <path d="M314.50,177.00L328.50,177.00" />
  <path d="M314.50,177.00L328.50,177.00" />
</g>
<g class="hard_visible" stroke="#000" stroke-width="0.7" fill="none" stroke-linecap="round" stroke-linejoin="round">
  <path d="M282.50,208.00L282.50,196.00" />
  <path d="M282.50,196.00L332.50,196.00" />
  <path d="M332.50,208.00L332.50,196.00" />
  <path d="M282.50,208.00L332.50,208.00" />
  <path d="M314.50,196.00L314.50,170.00" />
  <path d="M314.50,170.00L328.50,170.00" />
  <path d="M328.50,196.00L328.50,170.00" />
</g>
<text x="213.0" y="141.0" font-family="monospace" font-size="3.5" fill="#666">RIGHT</text>
<g class="dimensions-right" stroke="#000" stroke-width="0.18" fill="none" stroke-linecap="round" vector-effect="non-scaling-stroke">
<line x1="282.50" y1="210.00" x2="282.50" y2="214.50" />
<line x1="332.50" y1="210.00" x2="332.50" y2="214.50" />
<line x1="282.50" y1="216.00" x2="332.50" y2="216.00" />
<polygon points="282.50,216.00 280.50,215.30 280.50,216.70" fill="#000" />
<polygon points="332.50,216.00 334.50,216.70 334.50,215.30" fill="#000" />
<text x="307.50" y="215.00" text-anchor="middle" font-family="sans-serif" font-size="3" fill="#000">50</text>
<line x1="330.50" y1="170.00" x2="342.00" y2="170.00" />
<line x1="330.50" y1="208.00" x2="342.00" y2="208.00" />
<line x1="340.50" y1="170.00" x2="340.50" y2="208.00" />
<polygon points="340.50,170.00 341.20,168.00 339.80,168.00" fill="#000" />
<polygon points="340.50,208.00 339.80,210.00 341.20,210.00" fill="#000" />
<text x="339.00" y="189.00" text-anchor="middle" font-family="sans-serif" font-size="3" fill="#000" transform="rotate(-90,339.00,189.00)">38</text>
</g>
<g class="datums-right">
  <polygon points="293.50,208.00 296.50,208.00 295.00,210.50" fill="#000" stroke="#000" stroke-width="0.25" />
  <line x1="295.00" y1="210.50" x2="295.00" y2="213.50" stroke="#000" stroke-width="0.3" />
  <rect x="292.75" y="213.50" width="4.5" height="4.5" fill="white" stroke="#000" stroke-width="0.35" />
  <text x="295.00" y="216.74" text-anchor="middle" font-family="sans-serif" font-size="3.5" font-weight="bold" fill="#000">A</text>
  <polygon points="282.50,195.10 282.50,198.10 280.00,196.60" fill="#000" stroke="#000" stroke-width="0.25" />
  <line x1="280.00" y1="196.60" x2="277.00" y2="196.60" stroke="#000" stroke-width="0.3" />
  <rect x="272.50" y="194.35" width="4.5" height="4.5" fill="white" stroke="#000" stroke-width="0.35" />
  <text x="274.75" y="197.59" text-anchor="middle" font-family="sans-serif" font-size="3.5" font-weight="bold" fill="#000">C</text>
</g>
</g>

<g class="drawing-view drawing-view-iso" id="drawing-view-iso" data-view-id="iso" data-view-kind="isometric" data-view-label="ISOMETRIC" data-region-ref="drawing-view-iso">
<g class="smooth_visible" stroke="#000" stroke-width="0.35" fill="none" stroke-linecap="round" stroke-linejoin="round">
  <path d="M277.09,76.67L277.09,70.14" />
  <path d="M285.58,75.04L277.09,70.14" />
  <path d="M285.58,115.87L285.58,75.04" />
  <path d="M277.09,70.14L296.89,58.71" />
  <path d="M305.38,53.81L330.83,39.12" />
  <path d="M284.17,80.76L284.17,69.33" />
  <path d="M284.17,69.33L299.72,60.34" />
  <path d="M318.11,61.16L318.11,49.73" />
  <path d="M318.11,49.73L333.66,40.75" />
  <path d="M285.58,75.04L349.22,38.30" />
  <path d="M304.67,93.41L304.67,93.36L304.67,93.30L304.67,93.25L304.66,93.19L304.66,93.14L304.65,93.09L304.64,93.03L304.63,92.98L304.62,92.93L304.61,92.87L304.60,92.82L304.58,92.77L304.57,92.72L304.55,92.66L304.53,92.61L304.51,92.56L304.48,92.51L304.46,92.47L304.43,92.42L304.40,92.37L304.37,92.33L304.34,92.29L304.30,92.24L304.26,92.21L304.23,92.17L304.18,92.13L304.14,92.10L304.10,92.07L304.05,92.04" />
  <path d="M304.05,92.04L303.81,91.94L303.55,91.90L303.29,91.91L303.04,91.97L302.79,92.06L302.56,92.18L302.34,92.32L302.13,92.48L301.94,92.65L301.75,92.83L301.57,93.03L301.41,93.23L301.26,93.44L301.12,93.66L300.99,93.88L300.87,94.12L300.76,94.36L300.67,94.60L300.59,94.85L300.52,95.10L300.47,95.36L300.44,95.61L300.43,95.87L300.44,96.14L300.49,96.39L300.56,96.64L300.68,96.87L300.84,97.08L301.05,97.24" />
  <path d="M301.05,97.24L301.24,97.32L301.44,97.37L301.65,97.38L301.85,97.35L302.05,97.31L302.25,97.24L302.43,97.15L302.61,97.05L302.79,96.94L302.95,96.81L303.11,96.68L303.26,96.54L303.40,96.39L303.54,96.23L303.67,96.07L303.79,95.91L303.91,95.74L304.02,95.56L304.12,95.38L304.21,95.20L304.30,95.01L304.38,94.82L304.45,94.63L304.51,94.43L304.57,94.23L304.61,94.03L304.64,93.82L304.66,93.62L304.67,93.41" />
  <path d="M334.37,76.27L334.37,76.21L334.37,76.16L334.37,76.10L334.36,76.05L334.36,75.99L334.35,75.94L334.34,75.89L334.33,75.83L334.32,75.78L334.31,75.73L334.30,75.67L334.28,75.62L334.27,75.57L334.25,75.52L334.23,75.47L334.21,75.42L334.18,75.37L334.16,75.32L334.13,75.27L334.10,75.23L334.07,75.18L334.04,75.14L334.00,75.10L333.96,75.06L333.92,75.02L333.88,74.99L333.84,74.95L333.80,74.92L333.75,74.89" />
  <path d="M333.75,74.89L333.51,74.79L333.25,74.75L332.99,74.77L332.74,74.83L332.49,74.92L332.26,75.03L332.04,75.17L331.83,75.33L331.63,75.50L331.45,75.68L331.27,75.88L331.11,76.08L330.96,76.29L330.82,76.51L330.68,76.74L330.57,76.97L330.46,77.21L330.36,77.45L330.28,77.70L330.22,77.95L330.17,78.21L330.14,78.47L330.13,78.73L330.14,78.99L330.18,79.25L330.26,79.50L330.38,79.73L330.54,79.93L330.75,80.09" />
  <path d="M330.75,80.09L330.94,80.17L331.14,80.22L331.34,80.23L331.55,80.21L331.75,80.16L331.94,80.09L332.13,80.00L332.31,79.90L332.48,79.79L332.65,79.66L332.81,79.53L332.96,79.39L333.10,79.24L333.24,79.09L333.37,78.93L333.49,78.76L333.61,78.59L333.72,78.41L333.82,78.23L333.91,78.05L334.00,77.86L334.08,77.67L334.15,77.48L334.21,77.28L334.27,77.08L334.31,76.88L334.34,76.68L334.36,76.47L334.37,76.27" />
  <path d="M284.17,69.33L265.78,58.71" />
  <path d="M278.51,57.08L278.75,56.95L279.00,56.84L279.26,56.74L279.52,56.65L279.79,56.58L280.06,56.52L280.33,56.48L280.60,56.44L280.88,56.42L281.15,56.40L281.43,56.40L281.70,56.41L281.98,56.43L282.25,56.46L282.52,56.51L282.79,56.56L283.06,56.63L283.32,56.71L283.58,56.80L283.83,56.91L284.08,57.03L284.32,57.17L284.54,57.33L284.75,57.51L284.94,57.71L285.10,57.93L285.23,58.18L285.31,58.44L285.34,58.71" />
  <path d="M285.34,58.71L285.29,59.06L285.17,59.38L284.98,59.67L284.74,59.92L284.47,60.15L284.18,60.34L283.87,60.50L283.55,60.63L283.22,60.75L282.89,60.84L282.55,60.91L282.20,60.97L281.86,61.00L281.51,61.02L281.16,61.02L280.82,61.00L280.47,60.97L280.13,60.91L279.79,60.84L279.45,60.75L279.12,60.63L278.80,60.50L278.49,60.34L278.20,60.15L277.93,59.92L277.70,59.67L277.51,59.38L277.38,59.06L277.34,58.71" />
  <path d="M277.34,58.71L277.34,58.64L277.34,58.57L277.35,58.49L277.37,58.42L277.39,58.35L277.41,58.28L277.43,58.21L277.46,58.15L277.49,58.08L277.52,58.02L277.56,57.95L277.60,57.89L277.64,57.83L277.68,57.77L277.73,57.72L277.77,57.66L277.82,57.61L277.87,57.56L277.92,57.51L277.98,57.46L278.03,57.41L278.09,57.36L278.15,57.32L278.20,57.28L278.26,57.23L278.32,57.19L278.38,57.15L278.45,57.12L278.51,57.08" />
  <path d="M318.11,49.73L299.72,39.12" />
  <path d="M312.45,37.48L312.69,37.35L312.94,37.24L313.20,37.14L313.46,37.06L313.73,36.99L314.00,36.93L314.27,36.88L314.54,36.85L314.82,36.82L315.09,36.81L315.37,36.81L315.64,36.82L315.92,36.84L316.19,36.87L316.46,36.91L316.73,36.96L317.00,37.03L317.26,37.11L317.52,37.20L317.78,37.31L318.02,37.43L318.26,37.57L318.48,37.73L318.69,37.91L318.88,38.11L319.04,38.33L319.17,38.58L319.25,38.84L319.28,39.12" />
  <path d="M319.28,39.12L319.23,39.46L319.11,39.78L318.92,40.07L318.68,40.33L318.41,40.55L318.12,40.74L317.81,40.90L317.49,41.04L317.17,41.15L316.83,41.24L316.49,41.32L316.15,41.37L315.80,41.41L315.45,41.42L315.10,41.42L314.76,41.41L314.41,41.37L314.07,41.32L313.73,41.24L313.39,41.15L313.06,41.04L312.74,40.90L312.43,40.74L312.14,40.55L311.87,40.33L311.64,40.07L311.45,39.78L311.32,39.46L311.28,39.12" />
  <path d="M311.28,39.12L311.28,39.04L311.29,38.97L311.30,38.90L311.31,38.83L311.33,38.76L311.35,38.69L311.37,38.62L311.40,38.55L311.43,38.49L311.46,38.42L311.50,38.36L311.54,38.30L311.58,38.24L311.62,38.18L311.67,38.12L311.71,38.07L311.76,38.01L311.81,37.96L311.87,37.91L311.92,37.86L311.97,37.81L312.03,37.77L312.09,37.72L312.15,37.68L312.20,37.64L312.26,37.60L312.33,37.56L312.39,37.52L312.45,37.48" />
</g>
<g class="hard_visible" stroke="#000" stroke-width="0.7" fill="none" stroke-linecap="round" stroke-linejoin="round">
  <path d="M285.58,115.87L277.09,110.97" />
  <path d="M277.09,110.97L277.09,76.67" />
  <path d="M285.58,115.87L349.22,79.12" />
  <path d="M349.22,79.12L340.73,74.22" />
  <path d="M277.09,110.97L340.73,74.22" />
  <path d="M296.89,58.71L305.38,53.81" />
  <path d="M330.83,39.12L340.73,33.40" />
  <path d="M340.73,74.22L340.73,33.40" />
  <path d="M296.19,88.51L296.19,88.46L296.18,88.40L296.18,88.35L296.18,88.30L296.17,88.24L296.17,88.19L296.16,88.13L296.15,88.08L296.14,88.03L296.13,87.97L296.11,87.92L296.10,87.87L296.08,87.82L296.06,87.77L296.04,87.71L296.02,87.66L296.00,87.62L295.97,87.57L295.95,87.52L295.92,87.47L295.89,87.43L295.85,87.39L295.82,87.35L295.78,87.31L295.74,87.27L295.70,87.23L295.66,87.20L295.61,87.17L295.56,87.14" />
  <path d="M295.56,87.14L295.32,87.04L295.07,87.00L294.81,87.01L294.55,87.07L294.31,87.16L294.08,87.28L293.86,87.42L293.65,87.58L293.45,87.75L293.26,87.93L293.09,88.13L292.93,88.33L292.77,88.54L292.63,88.76L292.50,88.99L292.38,89.22L292.28,89.46L292.18,89.70L292.10,89.95L292.03,90.20L291.99,90.46L291.95,90.72L291.94,90.98L291.96,91.24L292.00,91.49L292.08,91.74L292.20,91.98L292.36,92.18L292.56,92.34" />
  <path d="M292.56,92.34L292.75,92.42L292.95,92.47L293.16,92.48L293.37,92.45L293.57,92.41L293.76,92.34L293.95,92.25L294.13,92.15L294.30,92.04L294.47,91.91L294.62,91.78L294.77,91.64L294.92,91.49L295.05,91.33L295.18,91.17L295.31,91.01L295.42,90.84L295.53,90.66L295.63,90.48L295.73,90.30L295.82,90.11L295.89,89.92L295.97,89.73L296.03,89.53L296.08,89.33L296.13,89.13L296.16,88.93L296.18,88.72L296.19,88.51" />
  <path d="M325.88,71.37L325.88,71.31L325.88,71.26L325.88,71.20L325.88,71.15L325.87,71.10L325.86,71.04L325.86,70.99L325.85,70.93L325.84,70.88L325.83,70.83L325.81,70.77L325.80,70.72L325.78,70.67L325.76,70.62L325.74,70.57L325.72,70.52L325.70,70.47L325.67,70.42L325.64,70.37L325.62,70.33L325.58,70.28L325.55,70.24L325.52,70.20L325.48,70.16L325.44,70.12L325.40,70.09L325.35,70.05L325.31,70.02L325.26,69.99" />
  <path d="M325.26,69.99L325.02,69.89L324.77,69.85L324.51,69.87L324.25,69.93L324.01,70.02L323.77,70.14L323.55,70.28L323.35,70.43L323.15,70.60L322.96,70.79L322.79,70.98L322.62,71.18L322.47,71.39L322.33,71.61L322.20,71.84L322.08,72.07L321.97,72.31L321.88,72.55L321.80,72.80L321.73,73.05L321.68,73.31L321.65,73.57L321.64,73.83L321.66,74.09L321.70,74.35L321.78,74.60L321.89,74.83L322.06,75.03L322.26,75.19" />
  <path d="M322.26,75.19L322.45,75.27L322.65,75.32L322.86,75.33L323.06,75.31L323.26,75.26L323.46,75.19L323.65,75.10L323.83,75.00L324.00,74.89L324.16,74.77L324.32,74.63L324.47,74.49L324.62,74.34L324.75,74.19L324.88,74.03L325.00,73.86L325.12,73.69L325.23,73.52L325.33,73.34L325.43,73.15L325.51,72.97L325.59,72.77L325.66,72.58L325.73,72.38L325.78,72.18L325.82,71.98L325.86,71.78L325.88,71.57L325.88,71.37" />
  <path d="M284.17,80.76L299.72,71.78" />
  <path d="M299.72,71.78L299.72,60.34" />
  <path d="M318.11,61.16L333.66,52.18" />
  <path d="M333.66,52.18L333.66,40.75" />
  <path d="M349.22,38.30L340.73,33.40" />
  <path d="M349.22,79.12L349.22,38.30" />
  <path d="M284.17,80.76L265.78,70.14" />
  <path d="M299.72,71.78L281.34,61.16" />
  <path d="M265.78,70.14L281.34,61.16" />
  <path d="M278.51,68.51L278.75,68.38L279.00,68.27L279.26,68.17L279.52,68.08L279.79,68.01L280.06,67.95L280.33,67.91L280.60,67.87L280.88,67.85L281.15,67.84L281.43,67.83L281.70,67.84L281.98,67.86L282.25,67.89L282.52,67.94L282.79,67.99L283.06,68.06L283.32,68.14L283.58,68.23L283.83,68.34L284.08,68.46L284.32,68.60L284.54,68.76L284.75,68.94L284.94,69.14L285.10,69.36L285.23,69.61L285.31,69.87L285.34,70.14" />
  <path d="M285.34,70.14L285.29,70.49L285.17,70.81L284.98,71.10L284.74,71.36L284.47,71.58L284.18,71.77L283.87,71.93L283.55,72.07L283.22,72.18L282.89,72.27L282.55,72.34L282.20,72.40L281.86,72.43L281.51,72.45L281.16,72.45L280.82,72.43L280.47,72.40L280.13,72.34L279.79,72.27L279.45,72.18L279.12,72.07L278.80,71.93L278.49,71.77L278.20,71.58L277.93,71.36L277.70,71.10L277.51,70.81L277.38,70.49L277.34,70.14" />
  <path d="M277.34,70.14L277.34,70.07L277.34,70.00L277.35,69.93L277.37,69.85L277.39,69.78L277.41,69.71L277.43,69.65L277.46,69.58L277.49,69.51L277.52,69.45L277.56,69.39L277.60,69.32L277.64,69.26L277.68,69.21L277.73,69.15L277.77,69.09L277.82,69.04L277.87,68.99L277.92,68.94L277.98,68.89L278.03,68.84L278.09,68.79L278.15,68.75L278.20,68.71L278.26,68.66L278.32,68.62L278.38,68.58L278.45,68.55L278.51,68.51" />
  <path d="M265.78,70.14L265.78,58.71" />
  <path d="M281.34,61.16L281.34,49.73" />
  <path d="M299.72,60.34L281.34,49.73" />
  <path d="M265.78,58.71L281.34,49.73" />
  <path d="M318.11,61.16L299.72,50.55" />
  <path d="M333.66,52.18L315.28,41.56" />
  <path d="M299.72,50.55L315.28,41.56" />
  <path d="M312.45,48.91L312.69,48.78L312.94,48.67L313.20,48.57L313.46,48.49L313.73,48.42L314.00,48.36L314.27,48.31L314.54,48.28L314.82,48.25L315.09,48.24L315.37,48.24L315.64,48.25L315.92,48.27L316.19,48.30L316.46,48.34L316.73,48.39L317.00,48.46L317.26,48.54L317.52,48.63L317.78,48.74L318.02,48.87L318.26,49.01L318.48,49.16L318.69,49.34L318.88,49.54L319.04,49.77L319.17,50.01L319.25,50.27L319.28,50.55" />
  <path d="M319.28,50.55L319.23,50.89L319.11,51.21L318.92,51.50L318.68,51.76L318.41,51.98L318.12,52.17L317.81,52.33L317.49,52.47L317.17,52.58L316.83,52.67L316.49,52.75L316.15,52.80L315.80,52.84L315.45,52.85L315.10,52.85L314.76,52.84L314.41,52.80L314.07,52.75L313.73,52.67L313.39,52.58L313.06,52.47L312.74,52.33L312.43,52.17L312.14,51.98L311.87,51.76L311.64,51.50L311.45,51.21L311.32,50.89L311.28,50.55" />
  <path d="M311.28,50.55L311.28,50.47L311.29,50.40L311.30,50.33L311.31,50.26L311.33,50.19L311.35,50.12L311.37,50.05L311.40,49.98L311.43,49.92L311.46,49.85L311.50,49.79L311.54,49.73L311.58,49.67L311.62,49.61L311.67,49.55L311.71,49.50L311.76,49.44L311.81,49.39L311.87,49.34L311.92,49.29L311.97,49.24L312.03,49.20L312.09,49.15L312.15,49.11L312.20,49.07L312.26,49.03L312.33,48.99L312.39,48.95L312.45,48.91" />
  <path d="M299.72,50.55L299.72,39.12" />
  <path d="M315.28,41.56L315.28,30.13" />
  <path d="M333.66,40.75L315.28,30.13" />
  <path d="M299.72,39.12L315.28,30.13" />
</g>
<text x="213.0" y="25.0" font-family="monospace" font-size="3.5" fill="#666">ISO</text>
</g>
<rect x="15" y="247" width="390" height="35" fill="#fafafa" stroke="black" stroke-width="0.5" />
<line x1="235" y1="247" x2="235" y2="282" stroke="black" stroke-width="0.35" />
<line x1="235" y1="255.8" x2="405" y2="255.8" stroke="black" stroke-width="0.25" />
<line x1="235" y1="264.5" x2="405" y2="264.5" stroke="black" stroke-width="0.25" />
<line x1="235" y1="273.2" x2="405" y2="273.2" stroke="black" stroke-width="0.25" />
<line x1="320.0" y1="247" x2="320.0" y2="282" stroke="black" stroke-width="0.25" />
<text x="237.0" y="250.5" font-family="sans-serif" font-size="2" fill="#888" letter-spacing="0.3">PART NAME</text>
<text x="237.0" y="254.2" font-family="sans-serif" font-size="4.5" font-weight="bold">Hinge Block</text>
<text x="322.0" y="250.5" font-family="sans-serif" font-size="2" fill="#888" letter-spacing="0.3">DRAWING NO.</text>
<text x="322.0" y="254.2" font-family="sans-serif" font-size="4.5" font-weight="bold">HINGE-BLOCK-A</text>
<text x="237.0" y="259.2" font-family="sans-serif" font-size="2" fill="#888" letter-spacing="0.3">MATERIAL</text>
<text x="237.0" y="263.0" font-family="sans-serif" font-size="3.5" font-weight="normal">AL6061</text>
<text x="322.0" y="259.2" font-family="sans-serif" font-size="2" fill="#888" letter-spacing="0.3">SCALE</text>
<text x="322.0" y="263.0" font-family="sans-serif" font-size="3.5" font-weight="normal">1:1</text>
<text x="237.0" y="268.0" font-family="sans-serif" font-size="2" fill="#888" letter-spacing="0.3">TOLERANCE</text>
<text x="237.0" y="271.8" font-family="sans-serif" font-size="3.5" font-weight="normal">Project default</text>
<text x="322.0" y="268.0" font-family="sans-serif" font-size="2" fill="#888" letter-spacing="0.3">DATE</text>
<text x="322.0" y="271.8" font-family="sans-serif" font-size="3.5" font-weight="normal">2026-04-30</text>
<text x="237.0" y="276.8" font-family="sans-serif" font-size="2" fill="#888" letter-spacing="0.3">DESIGNED BY</text>
<text x="237.0" y="280.5" font-family="sans-serif" font-size="3.5" font-weight="normal">-</text>
<text x="322.0" y="276.8" font-family="sans-serif" font-size="2" fill="#888" letter-spacing="0.3">SIZE / SHEET</text>
<text x="322.0" y="280.5" font-family="sans-serif" font-size="3.5" font-weight="normal">A3</text>
<g class="projection-symbol" transform="translate(387,277.625)">
<line x1="0" y1="-4.0" x2="0" y2="4.0" stroke="black" stroke-width="0.35" />
<line x1="0" y1="-1.6" x2="4.8" y2="-4.0" stroke="black" stroke-width="0.35" />
<line x1="0" y1="1.6" x2="4.8" y2="4.0" stroke="black" stroke-width="0.35" />
<line x1="4.8" y1="-4.0" x2="4.8" y2="4.0" stroke="black" stroke-width="0.35" />
<line x1="-1" y1="0" x2="5.8" y2="0" stroke="black" stroke-width="0.13" stroke-dasharray="2,1" />
<circle cx="8.4" cy="0" r="4.0" fill="none" stroke="black" stroke-width="0.35" />
<circle cx="8.4" cy="0" r="1.6" fill="none" stroke="black" stroke-width="0.35" />
<line x1="3.40" y1="0" x2="13.4" y2="0" stroke="black" stroke-width="0.13" stroke-dasharray="2,1" />
<line x1="8.4" y1="-5.0" x2="8.4" y2="5.0" stroke="black" stroke-width="0.13" stroke-dasharray="2,1" />
</g>
<text x="322.0" y="276.8" font-family="monospace" font-size="1.8" fill="#999">BBox: 90 x 50 x 38 mm</text>
<line x1="19" y1="277" x2="29" y2="277" stroke="#000" stroke-width="0.7" stroke-linecap="round" />
<text x="31" y="277.8" font-family="monospace" font-size="2" fill="#666">Visible</text>
<line x1="51" y1="277" x2="61" y2="277" stroke="#000" stroke-width="0.30" stroke-linecap="round" stroke-dasharray="4,2" />
<text x="63" y="277.8" font-family="monospace" font-size="2" fill="#666">Hidden</text>
<line x1="83" y1="277" x2="93" y2="277" stroke="#000" stroke-width="0.18" stroke-linecap="round" stroke-dasharray="8,2,1.5,2" />
<text x="95" y="277.8" font-family="monospace" font-size="2" fill="#666">Center</text>
<line x1="115" y1="277" x2="125" y2="277" stroke="#000" stroke-width="0.18" stroke-linecap="round" />
<text x="127" y="277.8" font-family="monospace" font-size="2" fill="#666">Dimension</text>
<g class="general-notes" font-family="sans-serif" font-size="2.0" fill="#333">
<text x="19.0" y="236.0" font-size="2.5" font-weight="bold" fill="#000">NOTES:</text><text x="19.0" y="240.0">1. GENERAL TOLERANCES PER KS B 0401:2014 Project default</text><text x="19.0" y="244.0">2. BREAK ALL SHARP EDGES 0.2~0.5</text><text x="19.0" y="248.0">3. DEBURR ALL MACHINED EDGES</text><text x="19.0" y="252.0">4. MATERIAL: AL6061</text><text x="19.0" y="256.0">5. ALL DIMENSIONS IN mm</text></g>
</svg>