<svg xmlns="http://www.w3.org/2000/svg" width="420mm" height="297mm" viewBox="0 0 420 297">
<rect width="420" height="297" fill="white" />
<defs><pattern id="hatch45" patternUnits="userSpaceOnUse" width="3" height="3" patternTransform="rotate(45)"><line x1="0" y1="0" x2="0" y2="3" stroke="#555" stroke-width="0.15" /></pattern></defs>
<rect x="15" y="15" width="390" height="267" fill="none" stroke="black" stroke-width="0.7" />
<rect x="16" y="16" width="388" height="265" fill="none" stroke="black" stroke-width="0.35" />
<rect x="15.0" y="15.0" width="195.0" height="116.0" fill="none" stroke="#ccc" stroke-width="0.15" stroke-dasharray="6,3" />
<rect x="210.0" y="15.0" width="195.0" height="116.0" fill="none" stroke="#ccc" stroke-width="0.15" stroke-dasharray="6,3" />
<rect x="15.0" y="131.0" width="195.0" height="116.0" fill="none" stroke="#ccc" stroke-width="0.15" stroke-dasharray="6,3" />
<rect x="210.0" y="131.0" width="195.0" height="116.0" fill="none" stroke="#ccc" stroke-width="0.15" stroke-dasharray="6,3" />

<g class="drawing-view drawing-view-front" id="drawing-view-front" data-view-id="front" data-view-kind="orthographic" data-view-label="FRONT" data-region-ref="drawing-view-front">
<g class="iso_visible" stroke="#999" stroke-width="0.13" fill="none" stroke-linecap="round" stroke-linejoin="round">
  <path d="M80.38,200.64L80.38,196.91" />
  <path d="M141.83,200.64L141.83,196.91" />
  <path d="M80.38,200.64L80.38,196.91" />
  <path d="M141.83,200.64L141.83,196.91" />
  <path d="M80.38,181.09L80.38,178.48" />
  <path d="M141.83,181.09L141.83,178.48" />
  <path d="M80.38,181.09L80.38,178.48" />
  <path d="M141.83,181.09L141.83,178.48" />
</g>
<g class="smooth_visible" stroke="#000" stroke-width="0.35" fill="none" stroke-linecap="round" stroke-linejoin="round">
  <path d="M72.47,200.64L72.47,177.36" />
  <path d="M72.47,177.36L152.53,177.36" />
  <path d="M77.59,177.36L147.41,177.36" />
  <path d="M77.59,177.36L147.41,177.36" />
  <path d="M72.47,200.64L152.53,200.64" />
  <path d="M152.53,200.64L152.53,177.36" />
  <path d="M83.17,200.64L83.08,200.64L82.98,200.64L82.88,200.64L82.79,200.64L82.69,200.64L82.60,200.64L82.50,200.64L82.40,200.64L82.31,200.64L82.21,200.64L82.11,200.64L82.02,200.64L81.92,200.64L81.82,200.64L81.73,200.64L81.63,200.64L81.54,200.64L81.44,200.64L81.34,200.64L81.25,200.64L81.15,200.64L81.05,200.64L80.96,200.64L80.86,200.64L80.77,200.64L80.67,200.64L80.57,200.64L80.48,200.64L80.38,200.64" />
  <path d="M80.38,200.64L80.48,200.64L80.57,200.64L80.67,200.64L80.77,200.64L80.86,200.64L80.96,200.64L81.05,200.64L81.15,200.64L81.25,200.64L81.34,200.64L81.44,200.64L81.54,200.64L81.63,200.64L81.73,200.64L81.82,200.64L81.92,200.64L82.02,200.64L82.11,200.64L82.21,200.64L82.31,200.64L82.40,200.64L82.50,200.64L82.60,200.64L82.69,200.64L82.79,200.64L82.88,200.64L82.98,200.64L83.08,200.64L83.17,200.64" />
  <path d="M144.62,200.64L144.52,200.64L144.43,200.64L144.33,200.64L144.23,200.64L144.14,200.64L144.04,200.64L143.95,200.64L143.85,200.64L143.75,200.64L143.66,200.64L143.56,200.64L143.46,200.64L143.37,200.64L143.27,200.64L143.18,200.64L143.08,200.64L142.98,200.64L142.89,200.64L142.79,200.64L142.69,200.64L142.60,200.64L142.50,200.64L142.40,200.64L142.31,200.64L142.21,200.64L142.12,200.64L142.02,200.64L141.92,200.64L141.83,200.64" />
  <path d="M141.83,200.64L141.92,200.64L142.02,200.64L142.12,200.64L142.21,200.64L142.31,200.64L142.40,200.64L142.50,200.64L142.60,200.64L142.69,200.64L142.79,200.64L142.89,200.64L142.98,200.64L143.08,200.64L143.18,200.64L143.27,200.64L143.37,200.64L143.46,200.64L143.56,200.64L143.66,200.64L143.75,200.64L143.85,200.64L143.95,200.64L144.04,200.64L144.14,200.64L144.23,200.64L144.33,200.64L144.43,200.64L144.52,200.64L144.62,200.64" />
  <path d="M83.17,200.64L83.08,200.64L82.98,200.64L82.88,200.64L82.79,200.64L82.69,200.64L82.60,200.64L82.50,200.64L82.40,200.64L82.31,200.64L82.21,200.64L82.11,200.64L82.02,200.64L81.92,200.64L81.82,200.64L81.73,200.64L81.63,200.64L81.54,200.64L81.44,200.64L81.34,200.64L81.25,200.64L81.15,200.64L81.05,200.64L80.96,200.64L80.86,200.64L80.77,200.64L80.67,200.64L80.57,200.64L80.48,200.64L80.38,200.64" />
  <path d="M80.38,200.64L80.48,200.64L80.57,200.64L80.67,200.64L80.77,200.64L80.86,200.64L80.96,200.64L81.05,200.64L81.15,200.64L81.25,200.64L81.34,200.64L81.44,200.64L81.54,200.64L81.63,200.64L81.73,200.64L81.82,200.64L81.92,200.64L82.02,200.64L82.11,200.64L82.21,200.64L82.31,200.64L82.40,200.64L82.50,200.64L82.60,200.64L82.69,200.64L82.79,200.64L82.88,200.64L82.98,200.64L83.08,200.64L83.17,200.64" />
  <path d="M144.62,200.64L144.52,200.64L144.43,200.64L144.33,200.64L144.23,200.64L144.14,200.64L144.04,200.64L143.95,200.64L143.85,200.64L143.75,200.64L143.66,200.64L143.56,200.64L143.46,200.64L143.37,200.64L143.27,200.64L143.18,200.64L143.08,200.64L142.98,200.64L142.89,200.64L142.79,200.64L142.69,200.64L142.60,200.64L142.50,200.64L142.40,200.64L142.31,200.64L142.21,200.64L142.12,200.64L142.02,200.64L141.92,200.64L141.83,200.64" />
  <path d="M141.83,200.64L141.92,200.64L142.02,200.64L142.12,200.64L142.21,200.64L142.31,200.64L142.40,200.64L142.50,200.64L142.60,200.64L142.69,200.64L142.79,200.64L142.89,200.64L142.98,200.64L143.08,200.64L143.18,200.64L143.27,200.64L143.37,200.64L143.46,200.64L143.56,200.64L143.66,200.64L143.75,200.64L143.85,200.64L143.95,200.64L144.04,200.64L144.14,200.64L144.23,200.64L144.33,200.64L144.43,200.64L144.52,200.64L144.62,200.64" />
  <path d="M77.59,178.48L147.41,178.48" />
  <path d="M147.41,178.48L147.41,177.36" />
  <path d="M77.59,178.48L77.59,177.36" />
  <path d="M147.41,178.48L147.41,177.36" />
  <path d="M77.59,178.48L147.41,178.48" />
  <path d="M77.59,178.48L77.59,177.36" />
  <path d="M83.17,196.91L83.08,196.91L82.98,196.91L82.88,196.91L82.79,196.91L82.69,196.91L82.60,196.91L82.50,196.91L82.40,196.91L82.31,196.91L82.21,196.91L82.11,196.91L82.02,196.91L81.92,196.91L81.82,196.91L81.73,196.91L81.63,196.91L81.54,196.91L81.44,196.91L81.34,196.91L81.25,196.91L81.15,196.91L81.05,196.91L80.96,196.91L80.86,196.91L80.77,196.91L80.67,196.91L80.57,196.91L80.48,196.91L80.38,196.91" />
  <path d="M80.38,196.91L80.48,196.91L80.57,196.91L80.67,196.91L80.77,196.91L80.86,196.91L80.96,196.91L81.05,196.91L81.15,196.91L81.25,196.91L81.34,196.91L81.44,196.91L81.54,196.91L81.63,196.91L81.73,196.91L81.82,196.91L81.92,196.91L82.02,196.91L82.11,196.91L82.21,196.91L82.31,196.91L82.40,196.91L82.50,196.91L82.60,196.91L82.69,196.91L82.79,196.91L82.88,196.91L82.98,196.91L83.08,196.91L83.17,196.91" />
  <path d="M83.17,200.64L83.17,196.91" />
  <path d="M144.62,196.91L144.52,196.91L144.43,196.91L144.33,196.91L144.23,196.91L144.14,196.91L144.04,196.91L143.95,196.91L143.85,196.91L143.75,196.91L143.66,196.91L143.56,196.91L143.46,196.91L143.37,196.91L143.27,196.91L143.18,196.91L143.08,196.91L142.98,196.91L142.89,196.91L142.79,196.91L142.69,196.91L142.60,196.91L142.50,196.91L142.40,196.91L142.31,196.91L142.21,196.91L142.12,196.91L142.02,196.91L141.92,196.91L141.83,196.91" />
  <path d="M141.83,196.91L141.92,196.91L142.02,196.91L142.12,196.91L142.21,196.91L142.31,196.91L142.40,196.91L142.50,196.91L142.60,196.91L142.69,196.91L142.79,196.91L142.89,196.91L142.98,196.91L143.08,196.91L143.18,196.91L143.27,196.91L143.37,196.91L143.46,196.91L143.56,196.91L143.66,196.91L143.75,196.91L143.85,196.91L143.95,196.91L144.04,196.91L144.14,196.91L144.23,196.91L144.33,196.91L144.43,196.91L144.52,196.91L144.62,196.91" />
  <path d="M144.62,200.64L144.62,196.91" />
  <path d="M83.17,196.91L83.08,196.91L82.98,196.91L82.88,196.91L82.79,196.91L82.69,196.91L82.60,196.91L82.50,196.91L82.40,196.91L82.31,196.91L82.21,196.91L82.11,196.91L82.02,196.91L81.92,196.91L81.82,196.91L81.73,196.91L81.63,196.91L81.54,196.91L81.44,196.91L81.34,196.91L81.25,196.91L81.15,196.91L81.05,196.91L80.96,196.91L80.86,196.91L80.77,196.91L80.67,196.91L80.57,196.91L80.48,196.91L80.38,196.91" />
  <path d="M80.38,196.91L80.48,196.91L80.57,196.91L80.67,196.91L80.77,196.91L80.86,196.91L80.96,196.91L81.05,196.91L81.15,196.91L81.25,196.91L81.34,196.91L81.44,196.91L81.54,196.91L81.63,196.91L81.73,196.91L81.82,196.91L81.92,196.91L82.02,196.91L82.11,196.91L82.21,196.91L82.31,196.91L82.40,196.91L82.50,196.91L82.60,196.91L82.69,196.91L82.79,196.91L82.88,196.91L82.98,196.91L83.08,196.91L83.17,196.91" />
  <path d="M83.17,200.64L83.17,196.91" />
  <path d="M144.62,196.91L144.52,196.91L144.43,196.91L144.33,196.91L144.23,196.91L144.14,196.91L144.04,196.91L143.95,196.91L143.85,196.91L143.75,196.91L143.66,196.91L143.56,196.91L143.46,196.91L143.37,196.91L143.27,196.91L143.18,196.91L143.08,196.91L142.98,196.91L142.89,196.91L142.79,196.91L142.69,196.91L142.60,196.91L142.50,196.91L142.40,196.91L142.31,196.91L142.21,196.91L142.12,196.91L142.02,196.91L141.92,196.91L141.83,196.91" />
  <path d="M141.83,196.91L141.92,196.91L142.02,196.91L142.12,196.91L142.21,196.91L142.31,196.91L142.40,196.91L142.50,196.91L142.60,196.91L142.69,196.91L142.79,196.91L142.89,196.91L142.98,196.91L143.08,196.91L143.18,196.91L143.27,196.91L143.37,196.91L143.46,196.91L143.56,196.91L143.66,196.91L143.75,196.91L143.85,196.91L143.95,196.91L144.04,196.91L144.14,196.91L144.23,196.91L144.33,196.91L144.43,196.91L144.52,196.91L144.62,196.91" />
  <path d="M144.62,200.64L144.62,196.91" />
  <path d="M83.17,178.48L83.08,178.48L82.98,178.48L82.88,178.48L82.79,178.48L82.69,178.48L82.60,178.48L82.50,178.48L82.40,178.48L82.31,178.48L82.21,178.48L82.11,178.48L82.02,178.48L81.92,178.48L81.82,178.48L81.73,178.48L81.63,178.48L81.54,178.48L81.44,178.48L81.34,178.48L81.25,178.48L81.15,178.48L81.05,178.48L80.96,178.48L80.86,178.48L80.77,178.48L80.67,178.48L80.57,178.48L80.48,178.48L80.38,178.48" />
  <path d="M80.38,178.48L80.48,178.48L80.57,178.48L80.67,178.48L80.77,178.48L80.86,178.48L80.96,178.48L81.05,178.48L81.15,178.48L81.25,178.48L81.34,178.48L81.44,178.48L81.54,178.48L81.63,178.48L81.73,178.48L81.82,178.48L81.92,178.48L82.02,178.48L82.11,178.48L82.21,178.48L82.31,178.48L82.40,178.48L82.50,178.48L82.60,178.48L82.69,178.48L82.79,178.48L82.88,178.48L82.98,178.48L83.08,178.48L83.17,178.48" />
  <path d="M144.62,178.48L144.52,178.48L144.43,178.48L144.33,178.48L144.23,178.48L144.14,178.48L144.04,178.48L143.95,178.48L143.85,178.48L143.75,178.48L143.66,178.48L143.56,178.48L143.46,178.48L143.37,178.48L143.27,178.48L143.18,178.48L143.08,178.48L142.98,178.48L142.89,178.48L142.79,178.48L142.69,178.48L142.60,178.48L142.50,178.48L142.40,178.48L142.31,178.48L142.21,178.48L142.12,178.48L142.02,178.48L141.92,178.48L141.83,178.48" />
  <path d="M141.83,178.48L141.92,178.48L142.02,178.48L142.12,178.48L142.21,178.48L142.31,178.48L142.40,178.48L142.50,178.48L142.60,178.48L142.69,178.48L142.79,178.48L142.89,178.48L142.98,178.48L143.08,178.48L143.18,178.48L143.27,178.48L143.37,178.48L143.46,178.48L143.56,178.48L143.66,178.48L143.75,178.48L143.85,178.48L143.95,178.48L144.04,178.48L144.14,178.48L144.23,178.48L144.33,178.48L144.43,178.48L144.52,178.48L144.62,178.48" />
  <path d="M83.17,178.48L83.08,178.48L82.98,178.48L82.88,178.48L82.79,178.48L82.69,178.48L82.60,178.48L82.50,178.48L82.40,178.48L82.31,178.48L82.21,178.48L82.11,178.48L82.02,178.48L81.92,178.48L81.82,178.48L81.73,178.48L81.63,178.48L81.54,178.48L81.44,178.48L81.34,178.48L81.25,178.48L81.15,178.48L81.05,178.48L80.96,178.48L80.86,178.48L80.77,178.48L80.67,178.48L80.57,178.48L80.48,178.48L80.38,178.48" />
  <path d="M80.38,178.48L80.48,178.48L80.57,178.48L80.67,178.48L80.77,178.48L80.86,178.48L80.96,178.48L81.05,178.48L81.15,178.48L81.25,178.48L81.34,178.48L81.44,178.48L81.54,178.48L81.63,178.48L81.73,178.48L81.82,178.48L81.92,178.48L82.02,178.48L82.11,178.48L82.21,178.48L82.31,178.48L82.40,178.48L82.50,178.48L82.60,178.48L82.69,178.48L82.79,178.48L82.88,178.48L82.98,178.48L83.08,178.48L83.17,178.48" />
  <path d="M144.62,178.48L144.52,178.48L144.43,178.48L144.33,178.48L144.23,178.48L144.14,178.48L144.04,178.48L143.95,178.48L143.85,178.48L143.75,178.48L143.66,178.48L143.56,178.48L143.46,178.48L143.37,178.48L143.27,178.48L143.18,178.48L143.08,178.48L142.98,178.48L142.89,178.48L142.79,178.48L142.69,178.48L142.60,178.48L142.50,178.48L142.40,178.48L142.31,178.48L142.21,178.48L142.12,178.48L142.02,178.48L141.92,178.48L141.83,178.48" />
  <path d="M141.83,178.48L141.92,178.48L142.02,178.48L142.12,178.48L142.21,178.48L142.31,178.48L142.40,178.48L142.50,178.48L142.60,178.48L142.69,178.48L142.79,178.48L142.89,178.48L142.98,178.48L143.08,178.48L143.18,178.48L143.27,178.48L143.37,178.48L143.46,178.48L143.56,178.48L143.66,178.48L143.75,178.48L143.85,178.48L143.95,178.48L144.04,178.48L144.14,178.48L144.23,178.48L144.33,178.48L144.43,178.48L144.52,178.48L144.62,178.48" />
  <path d="M79.45,196.91L145.55,196.91" />
  <path d="M79.45,196.91L145.55,196.91" />
  <path d="M83.17,181.09L83.17,178.48" />
  <path d="M83.17,181.09L83.08,181.09L82.98,181.09L82.88,181.09L82.79,181.09L82.69,181.09L82.60,181.09L82.50,181.09L82.40,181.09L82.31,181.09L82.21,181.09L82.11,181.09L82.02,181.09L81.92,181.09L81.82,181.09L81.73,181.09L81.63,181.09L81.54,181.09L81.44,181.09L81.34,181.09L81.25,181.09L81.15,181.09L81.05,181.09L80.96,181.09L80.86,181.09L80.77,181.09L80.67,181.09L80.57,181.09L80.48,181.09L80.38,181.09" />
  <path d="M80.38,181.09L80.48,181.09L80.57,181.09L80.67,181.09L80.77,181.09L80.86,181.09L80.96,181.09L81.05,181.09L81.15,181.09L81.25,181.09L81.34,181.09L81.44,181.09L81.54,181.09L81.63,181.09L81.73,181.09L81.82,181.09L81.92,181.09L82.02,181.09L82.11,181.09L82.21,181.09L82.31,181.09L82.40,181.09L82.50,181.09L82.60,181.09L82.69,181.09L82.79,181.09L82.88,181.09L82.98,181.09L83.08,181.09L83.17,181.09" />
  <path d="M144.62,181.09L144.62,178.48" />
  <path d="M144.62,181.09L144.52,181.09L144.43,181.09L144.33,181.09L144.23,181.09L144.14,181.09L144.04,181.09L143.95,181.09L143.85,181.09L143.75,181.09L143.66,181.09L143.56,181.09L143.46,181.09L143.37,181.09L143.27,181.09L143.18,181.09L143.08,181.09L142.98,181.09L142.89,181.09L142.79,181.09L142.69,181.09L142.60,181.09L142.50,181.09L142.40,181.09L142.31,181.09L142.21,181.09L142.12,181.09L142.02,181.09L141.92,181.09L141.83,181.09" />
  <path d="M141.83,181.09L141.92,181.09L142.02,181.09L142.12,181.09L142.21,181.09L142.31,181.09L142.40,181.09L142.50,181.09L142.60,181.09L142.69,181.09L142.79,181.09L142.89,181.09L142.98,181.09L143.08,181.09L143.18,181.09L143.27,181.09L143.37,181.09L143.46,181.09L143.56,181.09L143.66,181.09L143.75,181.09L143.85,181.09L143.95,181.09L144.04,181.09L144.14,181.09L144.23,181.09L144.33,181.09L144.43,181.09L144.52,181.09L144.62,181.09" />
  <path d="M83.17,181.09L83.17,178.48" />
  <path d="M83.17,181.09L83.08,181.09L82.98,181.09L82.88,181.09L82.79,181.09L82.69,181.09L82.60,181.09L82.50,181.09L82.40,181.09L82.31,181.09L82.21,181.09L82.11,181.09L82.02,181.09L81.92,181.09L81.82,181.09L81.73,181.09L81.63,181.09L81.54,181.09L81.44,181.09L81.34,181.09L81.25,181.09L81.15,181.09L81.05,181.09L80.96,181.09L80.86,181.09L80.77,181.09L80.67,181.09L80.57,181.09L80.48,181.09L80.38,181.09" />
  <path d="M80.38,181.09L80.48,181.09L80.57,181.09L80.67,181.09L80.77,181.09L80.86,181.09L80.96,181.09L81.05,181.09L81.15,181.09L81.25,181.09L81.34,181.09L81.44,181.09L81.54,181.09L81.63,181.09L81.73,181.09L81.82,181.09L81.92,181.09L82.02,181.09L82.11,181.09L82.21,181.09L82.31,181.09L82.40,181.09L82.50,181.09L82.60,181.09L82.69,181.09L82.79,181.09L82.88,181.09L82.98,181.09L83.08,181.09L83.17,181.09" />
  <path d="M144.62,181.09L144.62,178.48" />
  <path d="M144.62,181.09L144.52,181.09L144.43,181.09L144.33,181.09L144.23,181.09L144.14,181.09L144.04,181.09L143.95,181.09L143.85,181.09L143.75,181.09L143.66,181.09L143.56,181.09L143.46,181.09L143.37,181.09L143.27,181.09L143.18,181.09L143.08,181.09L142.98,181.09L142.89,181.09L142.79,181.09L142.69,181.09L142.60,181.09L142.50,181.09L142.40,181.09L142.31,181.09L142.21,181.09L142.12,181.09L142.02,181.09L141.92,181.09L141.83,181.09" />
  <path d="M141.83,181.09L141.92,181.09L142.02,181.09L142.12,181.09L142.21,181.09L142.31,181.09L142.40,181.09L142.50,181.09L142.60,181.09L142.69,181.09L142.79,181.09L142.89,181.09L142.98,181.09L143.08,181.09L143.18,181.09L143.27,181.09L143.37,181.09L143.46,181.09L143.56,181.09L143.66,181.09L143.75,181.09L143.85,181.09L143.95,181.09L144.04,181.09L144.14,181.09L144.23,181.09L144.33,181.09L144.43,181.09L144.52,181.09L144.62,181.09" />
  <path d="M79.45,196.91L79.45,181.09" />
  <path d="M79.45,196.91L79.45,181.09" />
  <path d="M145.55,196.91L145.55,181.09" />
  <path d="M79.45,181.09L145.55,181.09" />
  <path d="M145.55,196.91L145.55,181.09" />
  <path d="M79.45,181.09L145.55,181.09" />
  <path d="M145.55,195.98L145.55,187.60" />
  <path d="M145.55,195.98L145.55,187.60" />
  <path d="M145.55,195.98L146.95,195.98" />
  <path d="M145.55,195.98L146.95,195.98" />
  <path d="M146.95,195.98L146.95,187.60" />
  <path d="M145.55,187.60L146.95,187.60" />
  <path d="M145.55,187.60L146.95,187.60" />
  <path d="M146.95,195.98L146.95,187.60" />
</g>
<g class="hard_visible" stroke="#000" stroke-width="0.7" fill="none" stroke-linecap="round" stroke-linejoin="round">
  <path d="M72.47,200.64L72.47,177.36" />
  <path d="M72.47,200.64L152.53,200.64" />
  <path d="M152.53,200.64L152.53,177.36" />
  <path d="M72.47,177.36L152.53,177.36" />
</g>
<g class="symmetry-axes" stroke="#000" stroke-width="0.13" fill="none" stroke-dasharray="8,2,1.5,2" stroke-linecap="round" opacity="0.5" vector-effect="non-scaling-stroke">
  <line x1="112.50" y1="172.72" x2="112.50" y2="205.28" />
</g>
<text x="18.0" y="141.0" font-family="monospace" font-size="3.5" fill="#666">FRONT</text>
<g class="dimensions-front" stroke="#000" stroke-width="0.18" fill="none" stroke-linecap="round" vector-effect="non-scaling-stroke">
<line x1="72.47" y1="202.64" x2="72.47" y2="207.14" />
<line x1="152.53" y1="202.64" x2="152.53" y2="207.14" />
<line x1="72.47" y1="208.64" x2="152.53" y2="208.64" />
<polygon points="72.47,208.64 70.47,207.94 70.47,209.34" fill="#000" />
<polygon points="152.53,208.64 154.53,209.34 154.53,207.94" fill="#000" />
<text x="112.50" y="207.64" text-anchor="middle" font-family="sans-serif" font-size="3" fill="#000">172</text>
<line x1="150.53" y1="177.36" x2="162.03" y2="177.36" />
<line x1="150.53" y1="200.64" x2="162.03" y2="200.64" />
<line x1="160.53" y1="177.36" x2="160.53" y2="200.64" />
<polygon points="160.53,177.36 161.23,175.36 159.83,175.36" fill="#000" />
<polygon points="160.53,200.64 159.83,202.64 161.23,202.64" fill="#000" />
<text x="159.03" y="189.00" text-anchor="middle" font-family="sans-serif" font-size="3" fill="#000" transform="rotate(-90,159.03,189.00)">50</text>
</g>
<g class="datums-front">
  <polygon points="90.98,200.64 93.98,200.64 92.48,203.14" fill="#000" stroke="#000" stroke-width="0.25" />
  <line x1="92.48" y1="203.14" x2="92.48" y2="206.14" stroke="#000" stroke-width="0.3" />
  <rect x="90.23" y="206.14" width="4.5" height="4.5" fill="white" stroke="#000" stroke-width="0.35" />
  <text x="92.48" y="209.38" text-anchor="middle" font-family="sans-serif" font-size="3.5" font-weight="bold" fill="#000">A</text>
  <polygon points="72.47,192.16 72.47,195.16 69.97,193.66" fill="#000" stroke="#000" stroke-width="0.25" />
  <line x1="69.97" y1="193.66" x2="66.97" y2="193.66" stroke="#000" stroke-width="0.3" />
  <rect x="62.47" y="191.41" width="4.5" height="4.5" fill="white" stroke="#000" stroke-width="0.35" />
  <text x="64.72" y="194.65" text-anchor="middle" font-family="sans-serif" font-size="3.5" font-weight="bold" fill="#000">B</text>
</g>
<g class="baseline-dimensions">
<line x1="72.47" y1="200.64" x2="72.47" y2="213.57" stroke="#000" stroke-width="0.18" />
<line x1="81.78" y1="202.50" x2="81.78" y2="213.57" stroke="#000" stroke-width="0.18" />
<line x1="72.47" y1="211.57" x2="81.78" y2="211.57" stroke="#000" stroke-width="0.18" />
<polygon points="72.47,211.57 74.47,210.87 74.47,212.27" fill="#000" />
<polygon points="81.78,211.57 79.78,210.87 79.78,212.27" fill="#000" />
<text x="77.12" y="210.37" text-anchor="middle" font-family="sans-serif" font-size="3" fill="#000">20</text>
<line x1="72.47" y1="200.64" x2="72.47" y2="218.57" stroke="#000" stroke-width="0.18" />
<line x1="81.78" y1="202.50" x2="81.78" y2="218.57" stroke="#000" stroke-width="0.18" />
<line x1="72.47" y1="216.57" x2="81.78" y2="216.57" stroke="#000" stroke-width="0.18" />
<polygon points="72.47,216.57 74.47,215.87 74.47,217.27" fill="#000" />
<polygon points="81.78,216.57 79.78,215.87 79.78,217.27" fill="#000" />
<text x="77.12" y="215.37" text-anchor="middle" font-family="sans-serif" font-size="3" fill="#000">20</text>
<line x1="72.47" y1="200.64" x2="72.47" y2="223.57" stroke="#000" stroke-width="0.18" />
<line x1="143.22" y1="202.50" x2="143.22" y2="223.57" stroke="#000" stroke-width="0.18" />
<line x1="72.47" y1="221.57" x2="143.22" y2="221.57" stroke="#000" stroke-width="0.18" />
<polygon points="72.47,221.57 74.47,220.87 74.47,222.27" fill="#000" />
<polygon points="143.22,221.57 141.22,220.87 141.22,222.27" fill="#000" />
<text x="107.84" y="220.37" text-anchor="middle" font-family="sans-serif" font-size="3" fill="#000">152</text>
<line x1="72.47" y1="200.64" x2="72.47" y2="228.57" stroke="#000" stroke-width="0.18" />
<line x1="143.22" y1="202.50" x2="143.22" y2="228.57" stroke="#000" stroke-width="0.18" />
<line x1="72.47" y1="226.57" x2="143.22" y2="226.57" stroke="#000" stroke-width="0.18" />
<polygon points="72.47,226.57 74.47,225.87 74.47,227.27" fill="#000" />
<polygon points="143.22,226.57 141.22,225.87 141.22,227.27" fill="#000" />
<text x="107.84" y="225.37" text-anchor="middle" font-family="sans-serif" font-size="3" fill="#000">152</text>
</g>
</g>

<g class="drawing-view drawing-view-top" id="drawing-view-top" data-view-id="top" data-view-kind="orthographic" data-view-label="TOP" data-region-ref="drawing-view-top">
<g class="smooth_visible" stroke="#000" stroke-width="0.35" fill="none" stroke-linecap="round" stroke-linejoin="round">
  <path d="M72.47,102.33L72.47,43.67" />
  <path d="M72.47,102.33L152.53,102.33" />
  <path d="M72.47,43.67L152.53,43.67" />
  <path d="M152.53,102.33L152.53,43.67" />
  <path d="M77.59,97.21L147.41,97.21" />
  <path d="M147.41,97.21L147.41,48.79" />
  <path d="M77.59,48.79L147.41,48.79" />
  <path d="M77.59,97.21L77.59,48.79" />
  <path d="M77.59,97.21L147.41,97.21" />
  <path d="M147.41,97.21L147.41,48.79" />
  <path d="M77.59,48.79L147.41,48.79" />
  <path d="M77.59,97.21L77.59,48.79" />
  <circle cx="81.78" cy="93.02" r="1.40" />
  <circle cx="143.22" cy="93.02" r="1.40" />
  <circle cx="81.78" cy="52.98" r="1.40" />
  <circle cx="143.22" cy="52.98" r="1.40" />
  <circle cx="81.78" cy="93.02" r="1.40" />
  <circle cx="143.22" cy="93.02" r="1.40" />
  <circle cx="81.78" cy="52.98" r="1.40" />
  <circle cx="143.22" cy="52.98" r="1.40" />
  <path d="M79.45,95.34L79.45,50.66" />
  <path d="M79.45,50.66L145.55,50.66" />
  <path d="M79.45,95.34L145.55,95.34" />
  <path d="M145.55,95.34L145.55,50.66" />
  <circle cx="81.78" cy="93.02" r="1.40" />
  <circle cx="143.22" cy="93.02" r="1.40" />
  <circle cx="81.78" cy="52.98" r="1.40" />
  <circle cx="143.22" cy="52.98" r="1.40" />
  <path d="M79.45,95.34L79.45,50.66" />
  <path d="M79.45,50.66L145.55,50.66" />
  <path d="M79.45,95.34L145.55,95.34" />
  <path d="M145.55,95.34L145.55,50.66" />
  <path d="M145.55,66.95L145.55,80.91" />
  <path d="M145.55,66.95L145.55,80.91" />
  <path d="M145.55,66.95L146.95,66.95" />
  <path d="M146.95,80.91L146.95,66.95" />
  <path d="M145.55,80.91L146.95,80.91" />
  <path d="M145.55,66.95L146.95,66.95" />
  <path d="M146.95,80.91L146.95,66.95" />
  <path d="M145.55,80.91L146.95,80.91" />
</g>
<g class="hard_visible" stroke="#000" stroke-width="0.7" fill="none" stroke-linecap="round" stroke-linejoin="round">
  <path d="M72.47,102.33L72.47,43.67" />
  <path d="M72.47,102.33L152.53,102.33" />
  <path d="M72.47,43.67L152.53,43.67" />
  <path d="M152.53,102.33L152.53,43.67" />
  <circle cx="81.78" cy="93.02" r="1.40" />
  <circle cx="143.22" cy="93.02" r="1.40" />
  <circle cx="81.78" cy="52.98" r="1.40" />
  <circle cx="143.22" cy="52.98" r="1.40" />
</g>
<g class="centerlines" stroke="#000" stroke-width="0.18" fill="none" stroke-dasharray="8,2,1.5,2" stroke-linecap="round" vector-effect="non-scaling-stroke">
  <line x1="74.82" y1="93.02" x2="88.74" y2="93.02" />
  <line x1="81.78" y1="86.06" x2="81.78" y2="99.98" />
  <line x1="136.26" y1="93.02" x2="150.18" y2="93.02" />
  <line x1="143.22" y1="86.06" x2="143.22" y2="99.98" />
  <line x1="74.82" y1="52.98" x2="88.74" y2="52.98" />
  <line x1="81.78" y1="46.02" x2="81.78" y2="59.94" />
  <line x1="136.26" y1="52.98" x2="150.18" y2="52.98" />
  <line x1="143.22" y1="46.02" x2="143.22" y2="59.94" />
</g>
<g class="symmetry-axes" stroke="#000" stroke-width="0.13" fill="none" stroke-dasharray="8,2,1.5,2" stroke-linecap="round" opacity="0.5" vector-effect="non-scaling-stroke">
  <line x1="67.83" y1="73.00" x2="157.17" y2="73.00" />
  <line x1="112.50" y1="39.03" x2="112.50" y2="106.97" />
</g>
<text x="18.0" y="25.0" font-family="monospace" font-size="3.5" fill="#666">TOP</text>
<g class="dimensions-top" stroke="#000" stroke-width="0.18" fill="none" stroke-linecap="round" vector-effect="non-scaling-stroke">
<line x1="72.47" y1="104.33" x2="72.47" y2="108.83" />
<line x1="152.53" y1="104.33" x2="152.53" y2="108.83" />
<line x1="72.47" y1="110.33" x2="152.53" y2="110.33" />
<polygon points="72.47,110.33 70.47,109.63 70.47,111.03" fill="#000" />
<polygon points="152.53,110.33 154.53,111.03 154.53,109.63" fill="#000" />
<text x="112.50" y="109.33" text-anchor="middle" font-family="sans-serif" font-size="3" fill="#000">172</text>
<line x1="150.53" y1="43.67" x2="162.03" y2="43.67" />
<line x1="150.53" y1="102.33" x2="162.03" y2="102.33" />
<line x1="160.53" y1="43.67" x2="160.53" y2="102.33" />
<polygon points="160.53,43.67 161.23,41.67 159.83,41.67" fill="#000" />
<polygon points="160.53,102.33 159.83,104.33 161.23,104.33" fill="#000" />
<text x="159.03" y="73.00" text-anchor="middle" font-family="sans-serif" font-size="3" fill="#000" transform="rotate(-90,159.03,73.00)">126</text>
<line x1="72.47" y1="104.33" x2="72.47" y2="115.83" />
<line x1="81.78" y1="104.33" x2="81.78" y2="115.83" />
<line x1="72.47" y1="117.33" x2="81.78" y2="117.33" />
<polygon points="72.47,117.33 70.47,116.63 70.47,118.03" fill="#000" />
<polygon points="81.78,117.33 83.78,118.03 83.78,116.63" fill="#000" />
<text x="77.12" y="116.33" text-anchor="middle" font-family="sans-serif" font-size="3" fill="#000">20</text>
<line x1="81.78" y1="104.33" x2="81.78" y2="115.83" />
<line x1="143.22" y1="104.33" x2="143.22" y2="115.83" />
<line x1="81.78" y1="117.33" x2="143.22" y2="117.33" />
<polygon points="81.78,117.33 79.78,116.63 79.78,118.03" fill="#000" />
<polygon points="143.22,117.33 145.22,118.03 145.22,116.63" fill="#000" />
<text x="112.50" y="116.33" text-anchor="middle" font-family="sans-serif" font-size="3" fill="#000">132</text>
<line x1="143.22" y1="104.33" x2="143.22" y2="115.83" />
<line x1="152.53" y1="104.33" x2="152.53" y2="115.83" />
<line x1="143.22" y1="117.33" x2="152.53" y2="117.33" />
<polygon points="143.22,117.33 141.22,116.63 141.22,118.03" fill="#000" />
<polygon points="152.53,117.33 154.53,118.03 154.53,116.63" fill="#000" />
<text x="147.88" y="116.33" text-anchor="middle" font-family="sans-serif" font-size="3" fill="#000">20</text>
<line x1="150.53" y1="93.02" x2="169.03" y2="93.02" />
<line x1="150.53" y1="102.33" x2="169.03" y2="102.33" />
<line x1="167.53" y1="93.02" x2="167.53" y2="102.33" />
<polygon points="167.53,93.02 168.23,91.02 166.83,91.02" fill="#000" />
<polygon points="167.53,102.33 166.83,104.33 168.23,104.33" fill="#000" />
<text x="166.03" y="97.67" text-anchor="middle" font-family="sans-serif" font-size="3" fill="#000" transform="rotate(-90,166.03,97.67)">20</text>
<line x1="150.53" y1="52.98" x2="169.03" y2="52.98" />
<line x1="150.53" y1="93.02" x2="169.03" y2="93.02" />
<line x1="167.53" y1="52.98" x2="167.53" y2="93.02" />
<polygon points="167.53,52.98 168.23,50.98 166.83,50.98" fill="#000" />
<polygon points="167.53,93.02 166.83,95.02 168.23,95.02" fill="#000" />
<text x="166.03" y="73.00" text-anchor="middle" font-family="sans-serif" font-size="3" fill="#000" transform="rotate(-90,166.03,73.00)">86</text>
<line x1="150.53" y1="43.67" x2="169.03" y2="43.67" />
<line x1="150.53" y1="52.98" x2="169.03" y2="52.98" />
<line x1="167.53" y1="43.67" x2="167.53" y2="52.98" />
<polygon points="167.53,43.67 168.23,41.67 166.83,41.67" fill="#000" />
<polygon points="167.53,52.98 166.83,54.98 168.23,54.98" fill="#000" />
<text x="166.03" y="48.33" text-anchor="middle" font-family="sans-serif" font-size="3" fill="#000" transform="rotate(-90,166.03,48.33)">20</text>
</g>
<g class="dimensions-top plan-dimensions-top" stroke="#000" stroke-width="0.18" fill="none" vector-effect="non-scaling-stroke">
<line x1="82.76" y1="92.03" x2="87.01" y2="87.79" />
<line x1="87.01" y1="87.79" x2="95.01" y2="87.79" />
<polygon points="82.76,92.03 81.84,90.12 80.85,91.11" fill="#000" />
<text x="95.51" y="87.29" text-anchor="start" font-family="sans-serif" font-size="3" fill="#000" data-dim-id="MOUNTING_HOLE_DIA" data-value-mm="6">Ø6</text>
</g>
<g class="datums-top">
  <polygon points="72.47,83.23 72.47,86.23 69.97,84.73" fill="#000" stroke="#000" stroke-width="0.25" />
  <line x1="69.97" y1="84.73" x2="66.97" y2="84.73" stroke="#000" stroke-width="0.3" />
  <rect x="62.47" y="82.48" width="4.5" height="4.5" fill="white" stroke="#000" stroke-width="0.35" />
  <text x="64.72" y="85.72" text-anchor="middle" font-family="sans-serif" font-size="3.5" font-weight="bold" fill="#000">B</text>
  <polygon points="90.98,43.67 93.98,43.67 92.48,41.17" fill="#000" stroke="#000" stroke-width="0.25" />
  <line x1="92.48" y1="41.17" x2="92.48" y2="38.17" stroke="#000" stroke-width="0.3" />
  <rect x="90.23" y="33.67" width="4.5" height="4.5" fill="white" stroke="#000" stroke-width="0.35" />
  <text x="92.48" y="36.91" text-anchor="middle" font-family="sans-serif" font-size="3.5" font-weight="bold" fill="#000">C</text>
</g>
</g>

<g class="drawing-view drawing-view-right" id="drawing-view-right" data-view-id="right" data-view-kind="orthographic" data-view-label="RIGHT" data-region-ref="drawing-view-right">
<g class="iso_visible" stroke="#999" stroke-width="0.13" fill="none" stroke-linecap="round" stroke-linejoin="round">
  <path d="M288.88,200.64L288.88,196.91" />
  <path d="M286.09,200.64L286.09,196.91" />
  <path d="M288.88,200.64L288.88,196.91" />
  <path d="M286.09,200.64L286.09,196.91" />
  <path d="M328.91,200.64L328.91,196.91" />
  <path d="M326.12,200.64L326.12,196.91" />
  <path d="M328.91,200.64L328.91,196.91" />
  <path d="M326.12,200.64L326.12,196.91" />
  <path d="M288.88,181.09L288.88,178.48" />
  <path d="M286.09,181.09L286.09,178.48" />
  <path d="M288.88,181.09L288.88,178.48" />
  <path d="M286.09,181.09L286.09,178.48" />
  <path d="M328.91,181.09L328.91,178.48" />
  <path d="M326.12,181.09L326.12,178.48" />
  <path d="M328.91,181.09L328.91,178.48" />
  <path d="M326.12,181.09L326.12,178.48" />
</g>
<g class="smooth_visible" stroke="#000" stroke-width="0.35" fill="none" stroke-linecap="round" stroke-linejoin="round">
  <path d="M278.17,200.64L278.17,177.36" />
  <path d="M278.17,177.36L336.83,177.36" />
  <path d="M336.83,200.64L336.83,177.36" />
  <path d="M278.17,200.64L336.83,200.64" />
  <path d="M283.29,177.36L331.71,177.36" />
  <path d="M283.29,177.36L331.71,177.36" />
  <path d="M287.48,200.64L287.53,200.64L287.58,200.64L287.63,200.64L287.68,200.64L287.72,200.64L287.77,200.64L287.82,200.64L287.87,200.64L287.92,200.64L287.96,200.64L288.01,200.64L288.06,200.64L288.11,200.64L288.16,200.64L288.21,200.64L288.25,200.64L288.30,200.64L288.35,200.64L288.40,200.64L288.45,200.64L288.49,200.64L288.54,200.64L288.59,200.64L288.64,200.64L288.69,200.64L288.74,200.64L288.78,200.64L288.83,200.64L288.88,200.64" />
  <path d="M288.88,200.64L288.78,200.64L288.69,200.64L288.59,200.64L288.49,200.64L288.40,200.64L288.30,200.64L288.21,200.64L288.11,200.64L288.01,200.64L287.92,200.64L287.82,200.64L287.72,200.64L287.63,200.64L287.53,200.64L287.44,200.64L287.34,200.64L287.24,200.64L287.15,200.64L287.05,200.64L286.95,200.64L286.86,200.64L286.76,200.64L286.66,200.64L286.57,200.64L286.47,200.64L286.38,200.64L286.28,200.64L286.18,200.64L286.09,200.64" />
  <path d="M286.09,200.64L286.13,200.64L286.18,200.64L286.23,200.64L286.28,200.64L286.33,200.64L286.38,200.64L286.42,200.64L286.47,200.64L286.52,200.64L286.57,200.64L286.62,200.64L286.66,200.64L286.71,200.64L286.76,200.64L286.81,200.64L286.86,200.64L286.91,200.64L286.95,200.64L287.00,200.64L287.05,200.64L287.10,200.64L287.15,200.64L287.19,200.64L287.24,200.64L287.29,200.64L287.34,200.64L287.39,200.64L287.44,200.64L287.48,200.64" />
  <path d="M287.48,200.64L287.53,200.64L287.58,200.64L287.63,200.64L287.68,200.64L287.72,200.64L287.77,200.64L287.82,200.64L287.87,200.64L287.92,200.64L287.96,200.64L288.01,200.64L288.06,200.64L288.11,200.64L288.16,200.64L288.21,200.64L288.25,200.64L288.30,200.64L288.35,200.64L288.40,200.64L288.45,200.64L288.49,200.64L288.54,200.64L288.59,200.64L288.64,200.64L288.69,200.64L288.74,200.64L288.78,200.64L288.83,200.64L288.88,200.64" />
  <path d="M288.88,200.64L288.78,200.64L288.69,200.64L288.59,200.64L288.49,200.64L288.40,200.64L288.30,200.64L288.21,200.64L288.11,200.64L288.01,200.64L287.92,200.64L287.82,200.64L287.72,200.64L287.63,200.64L287.53,200.64L287.44,200.64L287.34,200.64L287.24,200.64L287.15,200.64L287.05,200.64L286.95,200.64L286.86,200.64L286.76,200.64L286.66,200.64L286.57,200.64L286.47,200.64L286.38,200.64L286.28,200.64L286.18,200.64L286.09,200.64" />
  <path d="M286.09,200.64L286.13,200.64L286.18,200.64L286.23,200.64L286.28,200.64L286.33,200.64L286.38,200.64L286.42,200.64L286.47,200.64L286.52,200.64L286.57,200.64L286.62,200.64L286.66,200.64L286.71,200.64L286.76,200.64L286.81,200.64L286.86,200.64L286.91,200.64L286.95,200.64L287.00,200.64L287.05,200.64L287.10,200.64L287.15,200.64L287.19,200.64L287.24,200.64L287.29,200.64L287.34,200.64L287.39,200.64L287.44,200.64L287.48,200.64" />
  <path d="M327.52,200.64L327.56,200.64L327.61,200.64L327.66,200.64L327.71,200.64L327.76,200.64L327.81,200.64L327.85,200.64L327.90,200.64L327.95,200.64L328.00,200.64L328.05,200.64L328.09,200.64L328.14,200.64L328.19,200.64L328.24,200.64L328.29,200.64L328.34,200.64L328.38,200.64L328.43,200.64L328.48,200.64L328.53,200.64L328.58,200.64L328.62,200.64L328.67,200.64L328.72,200.64L328.77,200.64L328.82,200.64L328.87,200.64L328.91,200.64" />
  <path d="M328.91,200.64L328.82,200.64L328.72,200.64L328.62,200.64L328.53,200.64L328.43,200.64L328.34,200.64L328.24,200.64L328.14,200.64L328.05,200.64L327.95,200.64L327.85,200.64L327.76,200.64L327.66,200.64L327.56,200.64L327.47,200.64L327.37,200.64L327.28,200.64L327.18,200.64L327.08,200.64L326.99,200.64L326.89,200.64L326.79,200.64L326.70,200.64L326.60,200.64L326.51,200.64L326.41,200.64L326.31,200.64L326.22,200.64L326.12,200.64" />
  <path d="M326.12,200.64L326.17,200.64L326.22,200.64L326.26,200.64L326.31,200.64L326.36,200.64L326.41,200.64L326.46,200.64L326.51,200.64L326.55,200.64L326.60,200.64L326.65,200.64L326.70,200.64L326.75,200.64L326.79,200.64L326.84,200.64L326.89,200.64L326.94,200.64L326.99,200.64L327.04,200.64L327.08,200.64L327.13,200.64L327.18,200.64L327.23,200.64L327.28,200.64L327.32,200.64L327.37,200.64L327.42,200.64L327.47,200.64L327.52,200.64" />
  <path d="M327.52,200.64L327.56,200.64L327.61,200.64L327.66,200.64L327.71,200.64L327.76,200.64L327.81,200.64L327.85,200.64L327.90,200.64L327.95,200.64L328.00,200.64L328.05,200.64L328.09,200.64L328.14,200.64L328.19,200.64L328.24,200.64L328.29,200.64L328.34,200.64L328.38,200.64L328.43,200.64L328.48,200.64L328.53,200.64L328.58,200.64L328.62,200.64L328.67,200.64L328.72,200.64L328.77,200.64L328.82,200.64L328.87,200.64L328.91,200.64" />
  <path d="M328.91,200.64L328.82,200.64L328.72,200.64L328.62,200.64L328.53,200.64L328.43,200.64L328.34,200.64L328.24,200.64L328.14,200.64L328.05,200.64L327.95,200.64L327.85,200.64L327.76,200.64L327.66,200.64L327.56,200.64L327.47,200.64L327.37,200.64L327.28,200.64L327.18,200.64L327.08,200.64L326.99,200.64L326.89,200.64L326.79,200.64L326.70,200.64L326.60,200.64L326.51,200.64L326.41,200.64L326.31,200.64L326.22,200.64L326.12,200.64" />
  <path d="M326.12,200.64L326.17,200.64L326.22,200.64L326.26,200.64L326.31,200.64L326.36,200.64L326.41,200.64L326.46,200.64L326.51,200.64L326.55,200.64L326.60,200.64L326.65,200.64L326.70,200.64L326.75,200.64L326.79,200.64L326.84,200.64L326.89,200.64L326.94,200.64L326.99,200.64L327.04,200.64L327.08,200.64L327.13,200.64L327.18,200.64L327.23,200.64L327.28,200.64L327.32,200.64L327.37,200.64L327.42,200.64L327.47,200.64L327.52,200.64" />
  <path d="M283.29,178.48L283.29,177.36" />
  <path d="M283.29,178.48L283.29,177.36" />
  <path d="M331.71,178.48L331.71,177.36" />
  <path d="M283.29,178.48L331.71,178.48" />
  <path d="M331.71,178.48L331.71,177.36" />
  <path d="M283.29,178.48L331.71,178.48" />
  <path d="M287.48,196.91L287.53,196.91L287.58,196.91L287.63,196.91L287.68,196.91L287.72,196.91L287.77,196.91L287.82,196.91L287.87,196.91L287.92,196.91L287.96,196.91L288.01,196.91L288.06,196.91L288.11,196.91L288.16,196.91L288.21,196.91L288.25,196.91L288.30,196.91L288.35,196.91L288.40,196.91L288.45,196.91L288.49,196.91L288.54,196.91L288.59,196.91L288.64,196.91L288.69,196.91L288.74,196.91L288.78,196.91L288.83,196.91L288.88,196.91" />
  <path d="M288.88,196.91L288.78,196.91L288.69,196.91L288.59,196.91L288.49,196.91L288.40,196.91L288.30,196.91L288.21,196.91L288.11,196.91L288.01,196.91L287.92,196.91L287.82,196.91L287.72,196.91L287.63,196.91L287.53,196.91L287.44,196.91L287.34,196.91L287.24,196.91L287.15,196.91L287.05,196.91L286.95,196.91L286.86,196.91L286.76,196.91L286.66,196.91L286.57,196.91L286.47,196.91L286.38,196.91L286.28,196.91L286.18,196.91L286.09,196.91" />
  <path d="M286.09,196.91L286.13,196.91L286.18,196.91L286.23,196.91L286.28,196.91L286.33,196.91L286.38,196.91L286.42,196.91L286.47,196.91L286.52,196.91L286.57,196.91L286.62,196.91L286.66,196.91L286.71,196.91L286.76,196.91L286.81,196.91L286.86,196.91L286.91,196.91L286.95,196.91L287.00,196.91L287.05,196.91L287.10,196.91L287.15,196.91L287.19,196.91L287.24,196.91L287.29,196.91L287.34,196.91L287.39,196.91L287.44,196.91L287.48,196.91" />
  <path d="M287.48,196.91L287.53,196.91L287.58,196.91L287.63,196.91L287.68,196.91L287.72,196.91L287.77,196.91L287.82,196.91L287.87,196.91L287.92,196.91L287.96,196.91L288.01,196.91L288.06,196.91L288.11,196.91L288.16,196.91L288.21,196.91L288.25,196.91L288.30,196.91L288.35,196.91L288.40,196.91L288.45,196.91L288.49,196.91L288.54,196.91L288.59,196.91L288.64,196.91L288.69,196.91L288.74,196.91L288.78,196.91L288.83,196.91L288.88,196.91" />
  <path d="M288.88,196.91L288.78,196.91L288.69,196.91L288.59,196.91L288.49,196.91L288.40,196.91L288.30,196.91L288.21,196.91L288.11,196.91L288.01,196.91L287.92,196.91L287.82,196.91L287.72,196.91L287.63,196.91L287.53,196.91L287.44,196.91L287.34,196.91L287.24,196.91L287.15,196.91L287.05,196.91L286.95,196.91L286.86,196.91L286.76,196.91L286.66,196.91L286.57,196.91L286.47,196.91L286.38,196.91L286.28,196.91L286.18,196.91L286.09,196.91" />
  <path d="M286.09,196.91L286.13,196.91L286.18,196.91L286.23,196.91L286.28,196.91L286.33,196.91L286.38,196.91L286.42,196.91L286.47,196.91L286.52,196.91L286.57,196.91L286.62,196.91L286.66,196.91L286.71,196.91L286.76,196.91L286.81,196.91L286.86,196.91L286.91,196.91L286.95,196.91L287.00,196.91L287.05,196.91L287.10,196.91L287.15,196.91L287.19,196.91L287.24,196.91L287.29,196.91L287.34,196.91L287.39,196.91L287.44,196.91L287.48,196.91" />
  <path d="M327.52,196.91L327.56,196.91L327.61,196.91L327.66,196.91L327.71,196.91L327.76,196.91L327.81,196.91L327.85,196.91L327.90,196.91L327.95,196.91L328.00,196.91L328.05,196.91L328.09,196.91L328.14,196.91L328.19,196.91L328.24,196.91L328.29,196.91L328.34,196.91L328.38,196.91L328.43,196.91L328.48,196.91L328.53,196.91L328.58,196.91L328.62,196.91L328.67,196.91L328.72,196.91L328.77,196.91L328.82,196.91L328.87,196.91L328.91,196.91" />
  <path d="M328.91,196.91L328.82,196.91L328.72,196.91L328.62,196.91L328.53,196.91L328.43,196.91L328.34,196.91L328.24,196.91L328.14,196.91L328.05,196.91L327.95,196.91L327.85,196.91L327.76,196.91L327.66,196.91L327.56,196.91L327.47,196.91L327.37,196.91L327.28,196.91L327.18,196.91L327.08,196.91L326.99,196.91L326.89,196.91L326.79,196.91L326.70,196.91L326.60,196.91L326.51,196.91L326.41,196.91L326.31,196.91L326.22,196.91L326.12,196.91" />
  <path d="M326.12,196.91L326.17,196.91L326.22,196.91L326.26,196.91L326.31,196.91L326.36,196.91L326.41,196.91L326.46,196.91L326.51,196.91L326.55,196.91L326.60,196.91L326.65,196.91L326.70,196.91L326.75,196.91L326.79,196.91L326.84,196.91L326.89,196.91L326.94,196.91L326.99,196.91L327.04,196.91L327.08,196.91L327.13,196.91L327.18,196.91L327.23,196.91L327.28,196.91L327.32,196.91L327.37,196.91L327.42,196.91L327.47,196.91L327.52,196.91" />
  <path d="M327.52,196.91L327.56,196.91L327.61,196.91L327.66,196.91L327.71,196.91L327.76,196.91L327.81,196.91L327.85,196.91L327.90,196.91L327.95,196.91L328.00,196.91L328.05,196.91L328.09,196.91L328.14,196.91L328.19,196.91L328.24,196.91L328.29,196.91L328.34,196.91L328.38,196.91L328.43,196.91L328.48,196.91L328.53,196.91L328.58,196.91L328.62,196.91L328.67,196.91L328.72,196.91L328.77,196.91L328.82,196.91L328.87,196.91L328.91,196.91" />
  <path d="M328.91,196.91L328.82,196.91L328.72,196.91L328.62,196.91L328.53,196.91L328.43,196.91L328.34,196.91L328.24,196.91L328.14,196.91L328.05,196.91L327.95,196.91L327.85,196.91L327.76,196.91L327.66,196.91L327.56,196.91L327.47,196.91L327.37,196.91L327.28,196.91L327.18,196.91L327.08,196.91L326.99,196.91L326.89,196.91L326.79,196.91L326.70,196.91L326.60,196.91L326.51,196.91L326.41,196.91L326.31,196.91L326.22,196.91L326.12,196.91" />
  <path d="M326.12,196.91L326.17,196.91L326.22,196.91L326.26,196.91L326.31,196.91L326.36,196.91L326.41,196.91L326.46,196.91L326.51,196.91L326.55,196.91L326.60,196.91L326.65,196.91L326.70,196.91L326.75,196.91L326.79,196.91L326.84,196.91L326.89,196.91L326.94,196.91L326.99,196.91L327.04,196.91L327.08,196.91L327.13,196.91L327.18,196.91L327.23,196.91L327.28,196.91L327.32,196.91L327.37,196.91L327.42,196.91L327.47,196.91L327.52,196.91" />
  <path d="M287.48,178.48L287.53,178.48L287.58,178.48L287.63,178.48L287.68,178.48L287.72,178.48L287.77,178.48L287.82,178.48L287.87,178.48L287.92,178.48L287.96,178.48L288.01,178.48L288.06,178.48L288.11,178.48L288.16,178.48L288.21,178.48L288.25,178.48L288.30,178.48L288.35,178.48L288.40,178.48L288.45,178.48L288.49,178.48L288.54,178.48L288.59,178.48L288.64,178.48L288.69,178.48L288.74,178.48L288.78,178.48L288.83,178.48L288.88,178.48" />
  <path d="M288.88,178.48L288.78,178.48L288.69,178.48L288.59,178.48L288.49,178.48L288.40,178.48L288.30,178.48L288.21,178.48L288.11,178.48L288.01,178.48L287.92,178.48L287.82,178.48L287.72,178.48L287.63,178.48L287.53,178.48L287.44,178.48L287.34,178.48L287.24,178.48L287.15,178.48L287.05,178.48L286.95,178.48L286.86,178.48L286.76,178.48L286.66,178.48L286.57,178.48L286.47,178.48L286.38,178.48L286.28,178.48L286.18,178.48L286.09,178.48" />
  <path d="M286.09,178.48L286.13,178.48L286.18,178.48L286.23,178.48L286.28,178.48L286.33,178.48L286.38,178.48L286.42,178.48L286.47,178.48L286.52,178.48L286.57,178.48L286.62,178.48L286.66,178.48L286.71,178.48L286.76,178.48L286.81,178.48L286.86,178.48L286.91,178.48L286.95,178.48L287.00,178.48L287.05,178.48L287.10,178.48L287.15,178.48L287.19,178.48L287.24,178.48L287.29,178.48L287.34,178.48L287.39,178.48L287.44,178.48L287.48,178.48" />
  <path d="M287.48,178.48L287.53,178.48L287.58,178.48L287.63,178.48L287.68,178.48L287.72,178.48L287.77,178.48L287.82,178.48L287.87,178.48L287.92,178.48L287.96,178.48L288.01,178.48L288.06,178.48L288.11,178.48L288.16,178.48L288.21,178.48L288.25,178.48L288.30,178.48L288.35,178.48L288.40,178.48L288.45,178.48L288.49,178.48L288.54,178.48L288.59,178.48L288.64,178.48L288.69,178.48L288.74,178.48L288.78,178.48L288.83,178.48L288.88,178.48" />
  <path d="M288.88,178.48L288.78,178.48L288.69,178.48L288.59,178.48L288.49,178.48L288.40,178.48L288.30,178.48L288.21,178.48L288.11,178.48L288.01,178.48L287.92,178.48L287.82,178.48L287.72,178.48L287.63,178.48L287.53,178.48L287.44,178.48L287.34,178.48L287.24,178.48L287.15,178.48L287.05,178.48L286.95,178.48L286.86,178.48L286.76,178.48L286.66,178.48L286.57,178.48L286.47,178.48L286.38,178.48L286.28,178.48L286.18,178.48L286.09,178.48" />
  <path d="M286.09,178.48L286.13,178.48L286.18,178.48L286.23,178.48L286.28,178.48L286.33,178.48L286.38,178.48L286.42,178.48L286.47,178.48L286.52,178.48L286.57,178.48L286.62,178.48L286.66,178.48L286.71,178.48L286.76,178.48L286.81,178.48L286.86,178.48L286.91,178.48L286.95,178.48L287.00,178.48L287.05,178.48L287.10,178.48L287.15,178.48L287.19,178.48L287.24,178.48L287.29,178.48L287.34,178.48L287.39,178.48L287.44,178.48L287.48,178.48" />
  <path d="M327.52,178.48L327.56,178.48L327.61,178.48L327.66,178.48L327.71,178.48L327.76,178.48L327.81,178.48L327.85,178.48L327.90,178.48L327.95,178.48L328.00,178.48L328.05,178.48L328.09,178.48L328.14,178.48L328.19,178.48L328.24,178.48L328.29,178.48L328.34,178.48L328.38,178.48L328.43,178.48L328.48,178.48L328.53,178.48L328.58,178.48L328.62,178.48L328.67,178.48L328.72,178.48L328.77,178.48L328.82,178.48L328.87,178.48L328.91,178.48" />
  <path d="M328.91,178.48L328.82,178.48L328.72,178.48L328.62,178.48L328.53,178.48L328.43,178.48L328.34,178.48L328.24,178.48L328.14,178.48L328.05,178.48L327.95,178.48L327.85,178.48L327.76,178.48L327.66,178.48L327.56,178.48L327.47,178.48L327.37,178.48L327.28,178.48L327.18,178.48L327.08,178.48L326.99,178.48L326.89,178.48L326.79,178.48L326.70,178.48L326.60,178.48L326.51,178.48L326.41,178.48L326.31,178.48L326.22,178.48L326.12,178.48" />
  <path d="M326.12,178.48L326.17,178.48L326.22,178.48L326.26,178.48L326.31,178.48L326.36,178.48L326.41,178.48L326.46,178.48L326.51,178.48L326.55,178.48L326.60,178.48L326.65,178.48L326.70,178.48L326.75,178.48L326.79,178.48L326.84,178.48L326.89,178.48L326.94,178.48L326.99,178.48L327.04,178.48L327.08,178.48L327.13,178.48L327.18,178.48L327.23,178.48L327.28,178.48L327.32,178.48L327.37,178.48L327.42,178.48L327.47,178.48L327.52,178.48" />
  <path d="M327.52,178.48L327.56,178.48L327.61,178.48L327.66,178.48L327.71,178.48L327.76,178.48L327.81,178.48L327.85,178.48L327.90,178.48L327.95,178.48L328.00,178.48L328.05,178.48L328.09,178.48L328.14,178.48L328.19,178.48L328.24,178.48L328.29,178.48L328.34,178.48L328.38,178.48L328.43,178.48L328.48,178.48L328.53,178.48L328.58,178.48L328.62,178.48L328.67,178.48L328.72,178.48L328.77,178.48L328.82,178.48L328.87,178.48L328.91,178.48" />
  <path d="M328.91,178.48L328.82,178.48L328.72,178.48L328.62,178.48L328.53,178.48L328.43,178.48L328.34,178.48L328.24,178.48L328.14,178.48L328.05,178.48L327.95,178.48L327.85,178.48L327.76,178.48L327.66,178.48L327.56,178.48L327.47,178.48L327.37,178.48L327.28,178.48L327.18,178.48L327.08,178.48L326.99,178.48L326.89,178.48L326.79,178.48L326.70,178.48L326.60,178.48L326.51,178.48L326.41,178.48L326.31,178.48L326.22,178.48L326.12,178.48" />
  <path d="M326.12,178.48L326.17,178.48L326.22,178.48L326.26,178.48L326.31,178.48L326.36,178.48L326.41,178.48L326.46,178.48L326.51,178.48L326.55,178.48L326.60,178.48L326.65,178.48L326.70,178.48L326.75,178.48L326.79,178.48L326.84,178.48L326.89,178.48L326.94,178.48L326.99,178.48L327.04,178.48L327.08,178.48L327.13,178.48L327.18,178.48L327.23,178.48L327.28,178.48L327.32,178.48L327.37,178.48L327.42,178.48L327.47,178.48L327.52,178.48" />
  <path d="M285.16,196.91L329.84,196.91" />
  <path d="M285.16,196.91L329.84,196.91" />
  <path d="M287.48,181.09L287.53,181.09L287.58,181.09L287.63,181.09L287.68,181.09L287.72,181.09L287.77,181.09L287.82,181.09L287.87,181.09L287.92,181.09L287.96,181.09L288.01,181.09L288.06,181.09L288.11,181.09L288.16,181.09L288.21,181.09L288.25,181.09L288.30,181.09L288.35,181.09L288.40,181.09L288.45,181.09L288.49,181.09L288.54,181.09L288.59,181.09L288.64,181.09L288.69,181.09L288.74,181.09L288.78,181.09L288.83,181.09L288.88,181.09" />
  <path d="M288.88,181.09L288.78,181.09L288.69,181.09L288.59,181.09L288.49,181.09L288.40,181.09L288.30,181.09L288.21,181.09L288.11,181.09L288.01,181.09L287.92,181.09L287.82,181.09L287.72,181.09L287.63,181.09L287.53,181.09L287.44,181.09L287.34,181.09L287.24,181.09L287.15,181.09L287.05,181.09L286.95,181.09L286.86,181.09L286.76,181.09L286.66,181.09L286.57,181.09L286.47,181.09L286.38,181.09L286.28,181.09L286.18,181.09L286.09,181.09" />
  <path d="M286.09,181.09L286.13,181.09L286.18,181.09L286.23,181.09L286.28,181.09L286.33,181.09L286.38,181.09L286.42,181.09L286.47,181.09L286.52,181.09L286.57,181.09L286.62,181.09L286.66,181.09L286.71,181.09L286.76,181.09L286.81,181.09L286.86,181.09L286.91,181.09L286.95,181.09L287.00,181.09L287.05,181.09L287.10,181.09L287.15,181.09L287.19,181.09L287.24,181.09L287.29,181.09L287.34,181.09L287.39,181.09L287.44,181.09L287.48,181.09" />
  <path d="M287.48,181.09L287.53,181.09L287.58,181.09L287.63,181.09L287.68,181.09L287.72,181.09L287.77,181.09L287.82,181.09L287.87,181.09L287.92,181.09L287.96,181.09L288.01,181.09L288.06,181.09L288.11,181.09L288.16,181.09L288.21,181.09L288.25,181.09L288.30,181.09L288.35,181.09L288.40,181.09L288.45,181.09L288.49,181.09L288.54,181.09L288.59,181.09L288.64,181.09L288.69,181.09L288.74,181.09L288.78,181.09L288.83,181.09L288.88,181.09" />
  <path d="M288.88,181.09L288.78,181.09L288.69,181.09L288.59,181.09L288.49,181.09L288.40,181.09L288.30,181.09L288.21,181.09L288.11,181.09L288.01,181.09L287.92,181.09L287.82,181.09L287.72,181.09L287.63,181.09L287.53,181.09L287.44,181.09L287.34,181.09L287.24,181.09L287.15,181.09L287.05,181.09L286.95,181.09L286.86,181.09L286.76,181.09L286.66,181.09L286.57,181.09L286.47,181.09L286.38,181.09L286.28,181.09L286.18,181.09L286.09,181.09" />
  <path d="M286.09,181.09L286.13,181.09L286.18,181.09L286.23,181.09L286.28,181.09L286.33,181.09L286.38,181.09L286.42,181.09L286.47,181.09L286.52,181.09L286.57,181.09L286.62,181.09L286.66,181.09L286.71,181.09L286.76,181.09L286.81,181.09L286.86,181.09L286.91,181.09L286.95,181.09L287.00,181.09L287.05,181.09L287.10,181.09L287.15,181.09L287.19,181.09L287.24,181.09L287.29,181.09L287.34,181.09L287.39,181.09L287.44,181.09L287.48,181.09" />
  <path d="M327.52,181.09L327.56,181.09L327.61,181.09L327.66,181.09L327.71,181.09L327.76,181.09L327.81,181.09L327.85,181.09L327.90,181.09L327.95,181.09L328.00,181.09L328.05,181.09L328.09,181.09L328.14,181.09L328.19,181.09L328.24,181.09L328.29,181.09L328.34,181.09L328.38,181.09L328.43,181.09L328.48,181.09L328.53,181.09L328.58,181.09L328.62,181.09L328.67,181.09L328.72,181.09L328.77,181.09L328.82,181.09L328.87,181.09L328.91,181.09" />
  <path d="M328.91,181.09L328.82,181.09L328.72,181.09L328.62,181.09L328.53,181.09L328.43,181.09L328.34,181.09L328.24,181.09L328.14,181.09L328.05,181.09L327.95,181.09L327.85,181.09L327.76,181.09L327.66,181.09L327.56,181.09L327.47,181.09L327.37,181.09L327.28,181.09L327.18,181.09L327.08,181.09L326.99,181.09L326.89,181.09L326.79,181.09L326.70,181.09L326.60,181.09L326.51,181.09L326.41,181.09L326.31,181.09L326.22,181.09L326.12,181.09" />
  <path d="M326.12,181.09L326.17,181.09L326.22,181.09L326.26,181.09L326.31,181.09L326.36,181.09L326.41,181.09L326.46,181.09L326.51,181.09L326.55,181.09L326.60,181.09L326.65,181.09L326.70,181.09L326.75,181.09L326.79,181.09L326.84,181.09L326.89,181.09L326.94,181.09L326.99,181.09L327.04,181.09L327.08,181.09L327.13,181.09L327.18,181.09L327.23,181.09L327.28,181.09L327.32,181.09L327.37,181.09L327.42,181.09L327.47,181.09L327.52,181.09" />
  <path d="M327.52,181.09L327.56,181.09L327.61,181.09L327.66,181.09L327.71,181.09L327.76,181.09L327.81,181.09L327.85,181.09L327.90,181.09L327.95,181.09L328.00,181.09L328.05,181.09L328.09,181.09L328.14,181.09L328.19,181.09L328.24,181.09L328.29,181.09L328.34,181.09L328.38,181.09L328.43,181.09L328.48,181.09L328.53,181.09L328.58,181.09L328.62,181.09L328.67,181.09L328.72,181.09L328.77,181.09L328.82,181.09L328.87,181.09L328.91,181.09" />
  <path d="M328.91,181.09L328.82,181.09L328.72,181.09L328.62,181.09L328.53,181.09L328.43,181.09L328.34,181.09L328.24,181.09L328.14,181.09L328.05,181.09L327.95,181.09L327.85,181.09L327.76,181.09L327.66,181.09L327.56,181.09L327.47,181.09L327.37,181.09L327.28,181.09L327.18,181.09L327.08,181.09L326.99,181.09L326.89,181.09L326.79,181.09L326.70,181.09L326.60,181.09L326.51,181.09L326.41,181.09L326.31,181.09L326.22,181.09L326.12,181.09" />
  <path d="M326.12,181.09L326.17,181.09L326.22,181.09L326.26,181.09L326.31,181.09L326.36,181.09L326.41,181.09L326.46,181.09L326.51,181.09L326.55,181.09L326.60,181.09L326.65,181.09L326.70,181.09L326.75,181.09L326.79,181.09L326.84,181.09L326.89,181.09L326.94,181.09L326.99,181.09L327.04,181.09L327.08,181.09L327.13,181.09L327.18,181.09L327.23,181.09L327.28,181.09L327.32,181.09L327.37,181.09L327.42,181.09L327.47,181.09L327.52,181.09" />
  <path d="M285.16,196.91L285.16,181.09" />
  <path d="M285.16,181.09L329.84,181.09" />
  <path d="M329.84,196.91L329.84,181.09" />
  <path d="M329.84,196.91L329.84,181.09" />
  <path d="M285.16,196.91L285.16,181.09" />
  <path d="M285.16,181.09L329.84,181.09" />
  <path d="M313.55,195.98L299.59,195.98" />
  <path d="M313.55,195.98L313.55,187.60" />
  <path d="M313.55,187.60L299.59,187.60" />
  <path d="M299.59,195.98L299.59,187.60" />
  <path d="M299.59,195.98L313.55,195.98" />
  <path d="M313.55,195.98L313.55,187.60" />
  <path d="M299.59,187.60L313.55,187.60" />
  <path d="M299.59,195.98L299.59,187.60" />
</g>
<g class="hard_visible" stroke="#000" stroke-width="0.7" fill="none" stroke-linecap="round" stroke-linejoin="round">
  <path d="M278.17,200.64L278.17,177.36" />
  <path d="M278.17,177.36L336.83,177.36" />
  <path d="M336.83,200.64L336.83,177.36" />
  <path d="M278.17,200.64L336.83,200.64" />
</g>
<g class="symmetry-axes" stroke="#000" stroke-width="0.13" fill="none" stroke-dasharray="8,2,1.5,2" stroke-linecap="round" opacity="0.5" vector-effect="non-scaling-stroke">
  <line x1="307.50" y1="172.72" x2="307.50" y2="205.28" />
</g>
<text x="213.0" y="141.0" font-family="monospace" font-size="3.5" fill="#666">RIGHT</text>
<g class="dimensions-right" stroke="#000" stroke-width="0.18" fill="none" stroke-linecap="round" vector-effect="non-scaling-stroke">
<line x1="278.17" y1="202.64" x2="278.17" y2="207.14" />
<line x1="336.83" y1="202.64" x2="336.83" y2="207.14" />
<line x1="278.17" y1="208.64" x2="336.83" y2="208.64" />
<polygon points="278.17,208.64 276.17,207.94 276.17,209.34" fill="#000" />
<polygon points="336.83,208.64 338.83,209.34 338.83,207.94" fill="#000" />
<text x="307.50" y="207.64" text-anchor="middle" font-family="sans-serif" font-size="3" fill="#000">126</text>
<line x1="334.83" y1="177.36" x2="346.33" y2="177.36" />
<line x1="334.83" y1="200.64" x2="346.33" y2="200.64" />
<line x1="344.83" y1="177.36" x2="344.83" y2="200.64" />
<polygon points="344.83,177.36 345.53,175.36 344.13,175.36" fill="#000" />
<polygon points="344.83,200.64 344.13,202.64 345.53,202.64" fill="#000" />
<text x="343.33" y="189.00" text-anchor="middle" font-family="sans-serif" font-size="3" fill="#000" transform="rotate(-90,343.33,189.00)">50</text>
</g>
<g class="datums-right">
  <polygon points="291.34,200.64 294.34,200.64 292.84,203.14" fill="#000" stroke="#000" stroke-width="0.25" />
  <line x1="292.84" y1="203.14" x2="292.84" y2="206.14" stroke="#000" stroke-width="0.3" />
  <rect x="290.59" y="206.14" width="4.5" height="4.5" fill="white" stroke="#000" stroke-width="0.35" />
  <text x="292.84" y="209.38" text-anchor="middle" font-family="sans-serif" font-size="3.5" font-weight="bold" fill="#000">A</text>
  <polygon points="278.17,192.16 278.17,195.16 275.67,193.66" fill="#000" stroke="#000" stroke-width="0.25" />
  <line x1="275.67" y1="193.66" x2="272.67" y2="193.66" stroke="#000" stroke-width="0.3" />
  <rect x="268.17" y="191.41" width="4.5" height="4.5" fill="white" stroke="#000" stroke-width="0.35" />
  <text x="270.42" y="194.65" text-anchor="middle" font-family="sans-serif" font-size="3.5" font-weight="bold" fill="#000">C</text>
</g>
</g>

<g class="drawing-view drawing-view-iso" id="drawing-view-iso" data-view-id="iso" data-view-kind="isometric" data-view-label="ISOMETRIC" data-region-ref="drawing-view-iso">
<g class="hard_visible" stroke="#000" stroke-width="0.7" fill="none" stroke-linecap="round" stroke-linejoin="round">
  <path d="M287.42,118.04L270.96,108.54" />
  <path d="M270.96,108.54L270.96,60.65" />
  <path d="M287.42,118.04L344.04,85.35" />
  <path d="M344.04,85.35L327.58,75.85" />
  <path d="M270.96,108.54L327.58,75.85" />
  <path d="M270.96,60.65L327.58,27.96" />
  <path d="M327.58,75.85L327.58,27.96" />
  <path d="M274.58,102.27L323.96,73.76" />
  <path d="M323.96,73.76L323.96,34.23" />
  <path d="M274.58,62.74L323.96,34.23" />
  <path d="M274.58,102.27L274.58,62.74" />
  <path d="M344.04,37.46L327.58,27.96" />
  <path d="M344.04,85.35L344.04,37.46" />
  <path d="M275.37,63.19L323.96,35.14" />
  <path d="M275.37,63.19L274.58,62.74" />
  <path d="M275.37,101.81L275.37,63.19" />
  <path d="M279.32,97.02L279.32,97.00L279.32,96.97L279.32,96.95L279.32,96.92L279.32,96.89L279.31,96.87L279.31,96.84L279.31,96.82L279.30,96.79L279.30,96.77L279.29,96.75L279.28,96.72L279.28,96.70L279.27,96.67L279.26,96.65L279.25,96.63L279.24,96.60L279.22,96.58L279.21,96.56L279.20,96.54L279.18,96.52L279.17,96.50L279.15,96.48L279.13,96.46L279.12,96.44L279.10,96.43L279.08,96.41L279.06,96.40L279.03,96.38" />
  <path d="M279.03,96.38L278.92,96.34L278.80,96.32L278.68,96.32L278.56,96.35L278.45,96.39L278.34,96.45L278.24,96.51L278.14,96.59L278.05,96.67L277.96,96.75L277.88,96.84L277.81,96.94L277.73,97.03L277.67,97.14L277.61,97.24L277.55,97.35L277.50,97.46L277.46,97.57L277.42,97.69L277.39,97.81L277.37,97.93L277.35,98.05L277.35,98.17L277.36,98.29L277.38,98.41L277.41,98.52L277.47,98.63L277.54,98.73L277.64,98.80" />
  <path d="M277.64,98.80L277.73,98.84L277.82,98.86L277.92,98.87L278.01,98.86L278.10,98.83L278.19,98.80L278.28,98.76L278.37,98.71L278.45,98.66L278.52,98.60L278.60,98.54L278.67,98.48L278.73,98.41L278.80,98.33L278.86,98.26L278.91,98.18L278.97,98.10L279.02,98.02L279.07,97.94L279.11,97.85L279.15,97.77L279.19,97.68L279.22,97.59L279.25,97.49L279.28,97.40L279.30,97.31L279.31,97.21L279.32,97.12L279.32,97.02" />
  <path d="M322.77,71.94L322.77,71.91L322.77,71.89L322.77,71.86L322.77,71.83L322.77,71.81L322.76,71.78L322.76,71.76L322.76,71.73L322.75,71.71L322.75,71.68L322.74,71.66L322.73,71.64L322.72,71.61L322.72,71.59L322.71,71.56L322.70,71.54L322.69,71.52L322.67,71.50L322.66,71.47L322.65,71.45L322.63,71.43L322.62,71.41L322.60,71.39L322.58,71.37L322.57,71.36L322.55,71.34L322.53,71.32L322.51,71.31L322.48,71.30" />
  <path d="M322.48,71.30L322.37,71.25L322.25,71.23L322.13,71.24L322.01,71.27L321.90,71.31L321.79,71.36L321.69,71.43L321.59,71.50L321.50,71.58L321.41,71.67L321.33,71.76L321.26,71.85L321.18,71.95L321.12,72.05L321.06,72.16L321.00,72.26L320.95,72.37L320.91,72.49L320.87,72.60L320.84,72.72L320.82,72.84L320.80,72.96L320.80,73.08L320.80,73.20L320.82,73.32L320.86,73.44L320.92,73.55L320.99,73.64L321.09,73.72" />
  <path d="M321.09,73.72L321.17,73.75L321.27,73.78L321.36,73.78L321.46,73.77L321.55,73.75L321.64,73.72L321.73,73.68L321.82,73.63L321.90,73.58L321.97,73.52L322.05,73.46L322.12,73.39L322.18,73.32L322.25,73.25L322.31,73.17L322.36,73.10L322.42,73.02L322.47,72.94L322.52,72.85L322.56,72.77L322.60,72.68L322.64,72.59L322.67,72.50L322.70,72.41L322.72,72.32L322.74,72.22L322.76,72.13L322.77,72.03L322.77,71.94" />
  <path d="M279.32,64.33L279.32,64.31L279.32,64.28L279.32,64.26L279.32,64.23L279.32,64.21L279.31,64.18L279.31,64.16L279.31,64.13L279.30,64.11L279.30,64.08L279.29,64.06L279.28,64.03L279.28,64.01L279.27,63.99L279.26,63.96L279.25,63.94L279.24,63.92L279.22,63.89L279.21,63.87L279.20,63.85L279.18,63.83L279.17,63.81L279.15,63.79L279.13,63.77L279.12,63.75L279.10,63.74L279.08,63.72L279.06,63.71L279.03,63.69" />
  <path d="M279.03,63.69L278.92,63.65L278.80,63.63L278.68,63.64L278.56,63.66L278.45,63.71L278.34,63.76L278.24,63.83L278.14,63.90L278.05,63.98L277.96,64.06L277.88,64.15L277.81,64.25L277.73,64.35L277.67,64.45L277.61,64.55L277.55,64.66L277.50,64.77L277.46,64.89L277.42,65.00L277.39,65.12L277.37,65.24L277.35,65.36L277.35,65.48L277.36,65.60L277.38,65.72L277.41,65.84L277.47,65.95L277.54,66.04L277.64,66.11" />
  <path d="M277.64,66.11L277.73,66.15L277.82,66.17L277.92,66.18L278.01,66.17L278.10,66.15L278.19,66.11L278.28,66.07L278.37,66.03L278.45,65.97L278.52,65.92L278.60,65.85L278.67,65.79L278.73,65.72L278.80,65.65L278.86,65.57L278.91,65.50L278.97,65.42L279.02,65.33L279.07,65.25L279.11,65.17L279.15,65.08L279.19,64.99L279.22,64.90L279.25,64.81L279.28,64.71L279.30,64.62L279.31,64.53L279.32,64.43L279.32,64.33" />
  <path d="M322.77,39.25L322.77,39.22L322.77,39.20L322.77,39.17L322.77,39.15L322.77,39.12L322.76,39.10L322.76,39.07L322.76,39.05L322.75,39.02L322.75,39.00L322.74,38.97L322.73,38.95L322.72,38.92L322.72,38.90L322.71,38.88L322.70,38.85L322.69,38.83L322.67,38.81L322.66,38.79L322.65,38.76L322.63,38.74L322.62,38.72L322.60,38.70L322.58,38.69L322.57,38.67L322.55,38.65L322.53,38.64L322.51,38.62L322.48,38.61" />
  <path d="M322.48,38.61L322.37,38.56L322.25,38.54L322.13,38.55L322.01,38.58L321.90,38.62L321.79,38.68L321.69,38.74L321.59,38.81L321.50,38.89L321.41,38.98L321.33,39.07L321.26,39.16L321.18,39.26L321.12,39.36L321.06,39.47L321.00,39.58L320.95,39.69L320.91,39.80L320.87,39.92L320.84,40.03L320.82,40.15L320.80,40.27L320.80,40.39L320.80,40.52L320.82,40.64L320.86,40.75L320.92,40.86L320.99,40.95L321.09,41.03" />
  <path d="M321.09,41.03L321.17,41.07L321.27,41.09L321.36,41.09L321.46,41.08L321.55,41.06L321.64,41.03L321.73,40.99L321.82,40.94L321.90,40.89L321.97,40.83L322.05,40.77L322.12,40.70L322.18,40.63L322.25,40.56L322.31,40.49L322.36,40.41L322.42,40.33L322.47,40.25L322.52,40.16L322.56,40.08L322.60,39.99L322.64,39.90L322.67,39.81L322.70,39.72L322.72,39.63L322.74,39.54L322.76,39.44L322.77,39.34L322.77,39.25" />
</g>
<text x="213.0" y="25.0" font-family="monospace" font-size="3.5" fill="#666">ISO</text>
</g>
<rect x="15" y="247" width="390" height="35" fill="#fafafa" stroke="black" stroke-width="0.5" />
<line x1="235" y1="247" x2="235" y2="282" stroke="black" stroke-width="0.35" />
<line x1="235" y1="255.8" x2="405" y2="255.8" stroke="black" stroke-width="0.25" />
<line x1="235" y1="264.5" x2="405" y2="264.5" stroke="black" stroke-width="0.25" />
<line x1="235" y1="273.2" x2="405" y2="273.2" stroke="black" stroke-width="0.25" />
<line x1="320.0" y1="247" x2="320.0" y2="282" stroke="black" stroke-width="0.25" />
<text x="237.0" y="250.5" font-family="sans-serif" font-size="2" fill="#888" letter-spacing="0.3">PART NAME</text>
<text x="237.0" y="254.2" font-family="sans-serif" font-size="4.5" font-weight="bold">Controller Housing EOL</text>
<text x="322.0" y="250.5" font-family="sans-serif" font-size="2" fill="#888" letter-spacing="0.3">DRAWING NO.</text>
<text x="322.0" y="254.2" font-family="sans-serif" font-size="4.5" font-weight="bold">CTRL-HOUSING-EOL-C</text>
<text x="237.0" y="259.2" font-family="sans-serif" font-size="2" fill="#888" letter-spacing="0.3">MATERIAL</text>
<text x="237.0" y="263.0" font-family="sans-serif" font-size="3.5" font-weight="normal">AL6061</text>
<text x="322.0" y="259.2" font-family="sans-serif" font-size="2" fill="#888" letter-spacing="0.3">SCALE</text>
<text x="322.0" y="263.0" font-family="sans-serif" font-size="3.5" font-weight="normal">1:2</text>
<text x="237.0" y="268.0" font-family="sans-serif" font-size="2" fill="#888" letter-spacing="0.3">TOLERANCE</text>
<text x="237.0" y="271.8" font-family="sans-serif" font-size="3.5" font-weight="normal">Project launch tolerance plan</text>
<text x="322.0" y="268.0" font-family="sans-serif" font-size="2" fill="#888" letter-spacing="0.3">DATE</text>
<text x="322.0" y="271.8" font-family="sans-serif" font-size="3.5" font-weight="normal">2026-04-27</text>
<text x="237.0" y="276.8" font-family="sans-serif" font-size="2" fill="#888" letter-spacing="0.3">DESIGNED BY</text>
<text x="237.0" y="280.5" font-family="sans-serif" font-size="3.5" font-weight="normal">-</text>
<text x="322.0" y="276.8" font-family="sans-serif" font-size="2" fill="#888" letter-spacing="0.3">SIZE / SHEET</text>
<text x="322.0" y="280.5" font-family="sans-serif" font-size="3.5" font-weight="normal">A3</text>
<g class="projection-symbol" transform="translate(387,277.625)">
<line x1="0" y1="-4.0" x2="0" y2="4.0" stroke="black" stroke-width="0.35" />
<line x1="0" y1="-1.6" x2="4.8" y2="-4.0" stroke="black" stroke-width="0.35" />
<line x1="0" y1="1.6" x2="4.8" y2="4.0" stroke="black" stroke-width="0.35" />
<line x1="4.8" y1="-4.0" x2="4.8" y2="4.0" stroke="black" stroke-width="0.35" />
<line x1="-1" y1="0" x2="5.8" y2="0" stroke="black" stroke-width="0.13" stroke-dasharray="2,1" />
<circle cx="8.4" cy="0" r="4.0" fill="none" stroke="black" stroke-width="0.35" />
<circle cx="8.4" cy="0" r="1.6" fill="none" stroke="black" stroke-width="0.35" />
<line x1="3.40" y1="0" x2="13.4" y2="0" stroke="black" stroke-width="0.13" stroke-dasharray="2,1" />
<line x1="8.4" y1="-5.0" x2="8.4" y2="5.0" stroke="black" stroke-width="0.13" stroke-dasharray="2,1" />
</g>
<text x="322.0" y="276.8" font-family="monospace" font-size="1.8" fill="#999">BBox: 172 x 126 x 50 mm</text>
<line x1="19" y1="277" x2="29" y2="277" stroke="#000" stroke-width="0.7" stroke-linecap="round" />
<text x="31" y="277.8" font-family="monospace" font-size="2" fill="#666">Visible</text>
<line x1="51" y1="277" x2="61" y2="277" stroke="#000" stroke-width="0.30" stroke-linecap="round" stroke-dasharray="4,2" />
<text x="63" y="277.8" font-family="monospace" font-size="2" fill="#666">Hidden</text>
<line x1="83" y1="277" x2="93" y2="277" stroke="#000" stroke-width="0.18" stroke-linecap="round" stroke-dasharray="8,2,1.5,2" />
<text x="95" y="277.8" font-family="monospace" font-size="2" fill="#666">Center</text>
<line x1="115" y1="277" x2="125" y2="277" stroke="#000" stroke-width="0.18" stroke-linecap="round" />
<text x="127" y="277.8" font-family="monospace" font-size="2" fill="#666">Dimension</text>
<g class="general-notes" font-family="sans-serif" font-size="2.0" fill="#333">
<text x="19.0" y="236.0" font-size="2.5" font-weight="bold" fill="#000">NOTES:</text><text x="19.0" y="240.0">1. Material: AL6061 casting with machined datum and sealing surfaces.</text><text x="19.0" y="244.0">2. Torque spec: 0.85 Nm for six assembly closeout screws.</text><text x="19.0" y="248.0">3. EOL release requires barcode pairing, torque trace, gasket confirmation, and functional electrical pass.</text></g>
</svg>