<svg xmlns="http://www.w3.org/2000/svg" width="420mm" height="297mm" viewBox="0 0 420 297">
<rect width="420" height="297" fill="white" />
<defs><pattern id="hatch45" patternUnits="userSpaceOnUse" width="3" height="3" patternTransform="rotate(45)"><line x1="0" y1="0" x2="0" y2="3" stroke="#555" stroke-width="0.15" /></pattern></defs>
<rect x="15" y="15" width="390" height="267" fill="none" stroke="black" stroke-width="0.7" />
<rect x="16" y="16" width="388" height="265" fill="none" stroke="black" stroke-width="0.35" />
<rect x="15.0" y="15.0" width="195.0" height="116.0" fill="none" stroke="#ccc" stroke-width="0.15" stroke-dasharray="6,3" />
<rect x="210.0" y="15.0" width="195.0" height="116.0" fill="none" stroke="#ccc" stroke-width="0.15" stroke-dasharray="6,3" />
<rect x="15.0" y="131.0" width="195.0" height="116.0" fill="none" stroke="#ccc" stroke-width="0.15" stroke-dasharray="6,3" />
<rect x="210.0" y="131.0" width="195.0" height="116.0" fill="none" stroke="#ccc" stroke-width="0.15" stroke-dasharray="6,3" />

<g class="drawing-view drawing-view-front" id="drawing-view-front" data-view-id="front" data-view-kind="orthographic" data-view-label="FRONT" data-region-ref="drawing-view-front">
<g class="iso_visible" stroke="#999" stroke-width="0.13" fill="none" stroke-linecap="round" stroke-linejoin="round">
  <path d="M86.25,192.00L86.25,190.00" />
  <path d="M136.75,192.00L136.75,190.00" />
  <path d="M86.25,192.00L86.25,190.00" />
  <path d="M83.50,190.00L83.50,186.00" />
  <path d="M136.75,192.00L136.75,190.00" />
  <path d="M138.00,190.00L138.00,186.00" />
</g>
<g class="smooth_visible" stroke="#000" stroke-width="0.35" fill="none" stroke-linecap="round" stroke-linejoin="round">
  <path d="M76.25,192.00L76.25,190.00" />
  <path d="M76.25,190.00L148.75,190.00" />
  <path d="M87.00,190.00L86.88,190.00L86.76,190.00L86.64,190.00L86.52,190.00L86.40,190.00L86.28,190.00L86.16,190.00L86.03,190.00L85.91,190.00L85.79,190.00L85.67,190.00L85.55,190.00L85.43,190.00L85.31,190.00L85.19,190.00L85.07,190.00L84.95,190.00L84.83,190.00L84.71,190.00L84.59,190.00L84.47,190.00L84.34,190.00L84.22,190.00L84.10,190.00L83.98,190.00L83.86,190.00L83.74,190.00L83.62,190.00L83.50,190.00" />
  <path d="M83.50,190.00L83.62,190.00L83.74,190.00L83.86,190.00L83.98,190.00L84.10,190.00L84.22,190.00L84.34,190.00L84.47,190.00L84.59,190.00L84.71,190.00L84.83,190.00L84.95,190.00L85.07,190.00L85.19,190.00L85.31,190.00L85.43,190.00L85.55,190.00L85.67,190.00L85.79,190.00L85.91,190.00L86.03,190.00L86.16,190.00L86.28,190.00L86.40,190.00L86.52,190.00L86.64,190.00L86.76,190.00L86.88,190.00L87.00,190.00" />
  <path d="M88.25,190.00L88.18,190.00L88.11,190.00L88.04,190.00L87.97,190.00L87.91,190.00L87.84,190.00L87.77,190.00L87.70,190.00L87.63,190.00L87.56,190.00L87.49,190.00L87.42,190.00L87.35,190.00L87.28,190.00L87.22,190.00L87.15,190.00L87.08,190.00L87.01,190.00L86.94,190.00L86.87,190.00L86.80,190.00L86.73,190.00L86.66,190.00L86.59,190.00L86.53,190.00L86.46,190.00L86.39,190.00L86.32,190.00L86.25,190.00" />
  <path d="M86.25,190.00L86.32,190.00L86.39,190.00L86.46,190.00L86.53,190.00L86.59,190.00L86.66,190.00L86.73,190.00L86.80,190.00L86.87,190.00L86.94,190.00L87.01,190.00L87.08,190.00L87.15,190.00L87.22,190.00L87.28,190.00L87.35,190.00L87.42,190.00L87.49,190.00L87.56,190.00L87.63,190.00L87.70,190.00L87.77,190.00L87.84,190.00L87.91,190.00L87.97,190.00L88.04,190.00L88.11,190.00L88.18,190.00L88.25,190.00" />
  <path d="M115.25,190.00L106.25,190.00" />
  <path d="M115.25,190.00L106.25,190.00" />
  <path d="M141.50,190.00L141.38,190.00L141.26,190.00L141.14,190.00L141.02,190.00L140.90,190.00L140.78,190.00L140.66,190.00L140.53,190.00L140.41,190.00L140.29,190.00L140.17,190.00L140.05,190.00L139.93,190.00L139.81,190.00L139.69,190.00L139.57,190.00L139.45,190.00L139.33,190.00L139.21,190.00L139.09,190.00L138.97,190.00L138.84,190.00L138.72,190.00L138.60,190.00L138.48,190.00L138.36,190.00L138.24,190.00L138.12,190.00L138.00,190.00" />
  <path d="M138.00,190.00L138.12,190.00L138.24,190.00L138.36,190.00L138.48,190.00L138.60,190.00L138.72,190.00L138.84,190.00L138.97,190.00L139.09,190.00L139.21,190.00L139.33,190.00L139.45,190.00L139.57,190.00L139.69,190.00L139.81,190.00L139.93,190.00L140.05,190.00L140.17,190.00L140.29,190.00L140.41,190.00L140.53,190.00L140.66,190.00L140.78,190.00L140.90,190.00L141.02,190.00L141.14,190.00L141.26,190.00L141.38,190.00L141.50,190.00" />
  <path d="M138.75,190.00L138.68,190.00L138.61,190.00L138.54,190.00L138.47,190.00L138.41,190.00L138.34,190.00L138.27,190.00L138.20,190.00L138.13,190.00L138.06,190.00L137.99,190.00L137.92,190.00L137.85,190.00L137.78,190.00L137.72,190.00L137.65,190.00L137.58,190.00L137.51,190.00L137.44,190.00L137.37,190.00L137.30,190.00L137.23,190.00L137.16,190.00L137.09,190.00L137.03,190.00L136.96,190.00L136.89,190.00L136.82,190.00L136.75,190.00" />
  <path d="M136.75,190.00L136.82,190.00L136.89,190.00L136.96,190.00L137.03,190.00L137.09,190.00L137.16,190.00L137.23,190.00L137.30,190.00L137.37,190.00L137.44,190.00L137.51,190.00L137.58,190.00L137.65,190.00L137.72,190.00L137.78,190.00L137.85,190.00L137.92,190.00L137.99,190.00L138.06,190.00L138.13,190.00L138.20,190.00L138.27,190.00L138.34,190.00L138.41,190.00L138.47,190.00L138.54,190.00L138.61,190.00L138.68,190.00L138.75,190.00" />
  <path d="M88.25,190.00L88.18,190.00L88.11,190.00L88.04,190.00L87.97,190.00L87.91,190.00L87.84,190.00L87.77,190.00L87.70,190.00L87.63,190.00L87.56,190.00L87.49,190.00L87.42,190.00L87.35,190.00L87.28,190.00L87.22,190.00L87.15,190.00L87.08,190.00L87.01,190.00L86.94,190.00L86.87,190.00L86.80,190.00L86.73,190.00L86.66,190.00L86.59,190.00L86.53,190.00L86.46,190.00L86.39,190.00L86.32,190.00L86.25,190.00" />
  <path d="M86.25,190.00L86.32,190.00L86.39,190.00L86.46,190.00L86.53,190.00L86.59,190.00L86.66,190.00L86.73,190.00L86.80,190.00L86.87,190.00L86.94,190.00L87.01,190.00L87.08,190.00L87.15,190.00L87.22,190.00L87.28,190.00L87.35,190.00L87.42,190.00L87.49,190.00L87.56,190.00L87.63,190.00L87.70,190.00L87.77,190.00L87.84,190.00L87.91,190.00L87.97,190.00L88.04,190.00L88.11,190.00L88.18,190.00L88.25,190.00" />
  <path d="M87.00,190.00L86.88,190.00L86.76,190.00L86.64,190.00L86.52,190.00L86.40,190.00L86.28,190.00L86.16,190.00L86.03,190.00L85.91,190.00L85.79,190.00L85.67,190.00L85.55,190.00L85.43,190.00L85.31,190.00L85.19,190.00L85.07,190.00L84.95,190.00L84.83,190.00L84.71,190.00L84.59,190.00L84.47,190.00L84.34,190.00L84.22,190.00L84.10,190.00L83.98,190.00L83.86,190.00L83.74,190.00L83.62,190.00L83.50,190.00" />
  <path d="M83.50,190.00L83.62,190.00L83.74,190.00L83.86,190.00L83.98,190.00L84.10,190.00L84.22,190.00L84.34,190.00L84.47,190.00L84.59,190.00L84.71,190.00L84.83,190.00L84.95,190.00L85.07,190.00L85.19,190.00L85.31,190.00L85.43,190.00L85.55,190.00L85.67,190.00L85.79,190.00L85.91,190.00L86.03,190.00L86.16,190.00L86.28,190.00L86.40,190.00L86.52,190.00L86.64,190.00L86.76,190.00L86.88,190.00L87.00,190.00" />
  <path d="M138.75,190.00L138.68,190.00L138.61,190.00L138.54,190.00L138.47,190.00L138.41,190.00L138.34,190.00L138.27,190.00L138.20,190.00L138.13,190.00L138.06,190.00L137.99,190.00L137.92,190.00L137.85,190.00L137.78,190.00L137.72,190.00L137.65,190.00L137.58,190.00L137.51,190.00L137.44,190.00L137.37,190.00L137.30,190.00L137.23,190.00L137.16,190.00L137.09,190.00L137.03,190.00L136.96,190.00L136.89,190.00L136.82,190.00L136.75,190.00" />
  <path d="M136.75,190.00L136.82,190.00L136.89,190.00L136.96,190.00L137.03,190.00L137.09,190.00L137.16,190.00L137.23,190.00L137.30,190.00L137.37,190.00L137.44,190.00L137.51,190.00L137.58,190.00L137.65,190.00L137.72,190.00L137.78,190.00L137.85,190.00L137.92,190.00L137.99,190.00L138.06,190.00L138.13,190.00L138.20,190.00L138.27,190.00L138.34,190.00L138.41,190.00L138.47,190.00L138.54,190.00L138.61,190.00L138.68,190.00L138.75,190.00" />
  <path d="M141.50,190.00L141.38,190.00L141.26,190.00L141.14,190.00L141.02,190.00L140.90,190.00L140.78,190.00L140.66,190.00L140.53,190.00L140.41,190.00L140.29,190.00L140.17,190.00L140.05,190.00L139.93,190.00L139.81,190.00L139.69,190.00L139.57,190.00L139.45,190.00L139.33,190.00L139.21,190.00L139.09,190.00L138.97,190.00L138.84,190.00L138.72,190.00L138.60,190.00L138.48,190.00L138.36,190.00L138.24,190.00L138.12,190.00L138.00,190.00" />
  <path d="M138.00,190.00L138.12,190.00L138.24,190.00L138.36,190.00L138.48,190.00L138.60,190.00L138.72,190.00L138.84,190.00L138.97,190.00L139.09,190.00L139.21,190.00L139.33,190.00L139.45,190.00L139.57,190.00L139.69,190.00L139.81,190.00L139.93,190.00L140.05,190.00L140.17,190.00L140.29,190.00L140.41,190.00L140.53,190.00L140.66,190.00L140.78,190.00L140.90,190.00L141.02,190.00L141.14,190.00L141.26,190.00L141.38,190.00L141.50,190.00" />
  <path d="M76.25,192.00L148.75,192.00" />
  <path d="M148.75,192.00L148.75,190.00" />
  <path d="M88.25,192.00L88.18,192.00L88.11,192.00L88.04,192.00L87.97,192.00L87.91,192.00L87.84,192.00L87.77,192.00L87.70,192.00L87.63,192.00L87.56,192.00L87.49,192.00L87.42,192.00L87.35,192.00L87.28,192.00L87.22,192.00L87.15,192.00L87.08,192.00L87.01,192.00L86.94,192.00L86.87,192.00L86.80,192.00L86.73,192.00L86.66,192.00L86.59,192.00L86.53,192.00L86.46,192.00L86.39,192.00L86.32,192.00L86.25,192.00" />
  <path d="M86.25,192.00L86.32,192.00L86.39,192.00L86.46,192.00L86.53,192.00L86.59,192.00L86.66,192.00L86.73,192.00L86.80,192.00L86.87,192.00L86.94,192.00L87.01,192.00L87.08,192.00L87.15,192.00L87.22,192.00L87.28,192.00L87.35,192.00L87.42,192.00L87.49,192.00L87.56,192.00L87.63,192.00L87.70,192.00L87.77,192.00L87.84,192.00L87.91,192.00L87.97,192.00L88.04,192.00L88.11,192.00L88.18,192.00L88.25,192.00" />
  <path d="M115.25,192.00L106.25,192.00" />
  <path d="M115.25,192.00L106.25,192.00" />
  <path d="M138.75,192.00L138.68,192.00L138.61,192.00L138.54,192.00L138.47,192.00L138.41,192.00L138.34,192.00L138.27,192.00L138.20,192.00L138.13,192.00L138.06,192.00L137.99,192.00L137.92,192.00L137.85,192.00L137.78,192.00L137.72,192.00L137.65,192.00L137.58,192.00L137.51,192.00L137.44,192.00L137.37,192.00L137.30,192.00L137.23,192.00L137.16,192.00L137.09,192.00L137.03,192.00L136.96,192.00L136.89,192.00L136.82,192.00L136.75,192.00" />
  <path d="M136.75,192.00L136.82,192.00L136.89,192.00L136.96,192.00L137.03,192.00L137.09,192.00L137.16,192.00L137.23,192.00L137.30,192.00L137.37,192.00L137.44,192.00L137.51,192.00L137.58,192.00L137.65,192.00L137.72,192.00L137.78,192.00L137.85,192.00L137.92,192.00L137.99,192.00L138.06,192.00L138.13,192.00L138.20,192.00L138.27,192.00L138.34,192.00L138.41,192.00L138.47,192.00L138.54,192.00L138.61,192.00L138.68,192.00L138.75,192.00" />
  <path d="M88.25,192.00L88.18,192.00L88.11,192.00L88.04,192.00L87.97,192.00L87.91,192.00L87.84,192.00L87.77,192.00L87.70,192.00L87.63,192.00L87.56,192.00L87.49,192.00L87.42,192.00L87.35,192.00L87.28,192.00L87.22,192.00L87.15,192.00L87.08,192.00L87.01,192.00L86.94,192.00L86.87,192.00L86.80,192.00L86.73,192.00L86.66,192.00L86.59,192.00L86.53,192.00L86.46,192.00L86.39,192.00L86.32,192.00L86.25,192.00" />
  <path d="M86.25,192.00L86.32,192.00L86.39,192.00L86.46,192.00L86.53,192.00L86.59,192.00L86.66,192.00L86.73,192.00L86.80,192.00L86.87,192.00L86.94,192.00L87.01,192.00L87.08,192.00L87.15,192.00L87.22,192.00L87.28,192.00L87.35,192.00L87.42,192.00L87.49,192.00L87.56,192.00L87.63,192.00L87.70,192.00L87.77,192.00L87.84,192.00L87.91,192.00L87.97,192.00L88.04,192.00L88.11,192.00L88.18,192.00L88.25,192.00" />
  <path d="M138.75,192.00L138.68,192.00L138.61,192.00L138.54,192.00L138.47,192.00L138.41,192.00L138.34,192.00L138.27,192.00L138.20,192.00L138.13,192.00L138.06,192.00L137.99,192.00L137.92,192.00L137.85,192.00L137.78,192.00L137.72,192.00L137.65,192.00L137.58,192.00L137.51,192.00L137.44,192.00L137.37,192.00L137.30,192.00L137.23,192.00L137.16,192.00L137.09,192.00L137.03,192.00L136.96,192.00L136.89,192.00L136.82,192.00L136.75,192.00" />
  <path d="M136.75,192.00L136.82,192.00L136.89,192.00L136.96,192.00L137.03,192.00L137.09,192.00L137.16,192.00L137.23,192.00L137.30,192.00L137.37,192.00L137.44,192.00L137.51,192.00L137.58,192.00L137.65,192.00L137.72,192.00L137.78,192.00L137.85,192.00L137.92,192.00L137.99,192.00L138.06,192.00L138.13,192.00L138.20,192.00L138.27,192.00L138.34,192.00L138.41,192.00L138.47,192.00L138.54,192.00L138.61,192.00L138.68,192.00L138.75,192.00" />
  <path d="M87.00,186.00L86.88,186.00L86.76,186.00L86.64,186.00L86.52,186.00L86.40,186.00L86.28,186.00L86.16,186.00L86.03,186.00L85.91,186.00L85.79,186.00L85.67,186.00L85.55,186.00L85.43,186.00L85.31,186.00L85.19,186.00L85.07,186.00L84.95,186.00L84.83,186.00L84.71,186.00L84.59,186.00L84.47,186.00L84.34,186.00L84.22,186.00L84.10,186.00L83.98,186.00L83.86,186.00L83.74,186.00L83.62,186.00L83.50,186.00" />
  <path d="M88.25,192.00L88.25,190.00" />
  <path d="M115.25,192.00L115.25,190.00" />
  <path d="M106.25,192.00L106.25,190.00" />
  <path d="M115.25,192.00L115.25,190.00" />
  <path d="M106.25,192.00L106.25,190.00" />
  <path d="M141.50,186.00L141.38,186.00L141.26,186.00L141.14,186.00L141.02,186.00L140.90,186.00L140.78,186.00L140.66,186.00L140.53,186.00L140.41,186.00L140.29,186.00L140.17,186.00L140.05,186.00L139.93,186.00L139.81,186.00L139.69,186.00L139.57,186.00L139.45,186.00L139.33,186.00L139.21,186.00L139.09,186.00L138.97,186.00L138.84,186.00L138.72,186.00L138.60,186.00L138.48,186.00L138.36,186.00L138.24,186.00L138.12,186.00L138.00,186.00" />
  <path d="M138.75,192.00L138.75,190.00" />
  <path d="M88.25,192.00L88.25,190.00" />
  <path d="M87.00,186.00L86.88,186.00L86.76,186.00L86.64,186.00L86.52,186.00L86.40,186.00L86.28,186.00L86.16,186.00L86.03,186.00L85.91,186.00L85.79,186.00L85.67,186.00L85.55,186.00L85.43,186.00L85.31,186.00L85.19,186.00L85.07,186.00L84.95,186.00L84.83,186.00L84.71,186.00L84.59,186.00L84.47,186.00L84.34,186.00L84.22,186.00L84.10,186.00L83.98,186.00L83.86,186.00L83.74,186.00L83.62,186.00L83.50,186.00" />
  <path d="M83.50,186.00L83.62,186.00L83.74,186.00L83.86,186.00L83.98,186.00L84.10,186.00L84.22,186.00L84.34,186.00L84.47,186.00L84.59,186.00L84.71,186.00L84.83,186.00L84.95,186.00L85.07,186.00L85.19,186.00L85.31,186.00L85.43,186.00L85.55,186.00L85.67,186.00L85.79,186.00L85.91,186.00L86.03,186.00L86.16,186.00L86.28,186.00L86.40,186.00L86.52,186.00L86.64,186.00L86.76,186.00L86.88,186.00L87.00,186.00" />
  <path d="M87.00,190.00L87.00,186.00" />
  <path d="M138.75,192.00L138.75,190.00" />
  <path d="M141.50,186.00L141.38,186.00L141.26,186.00L141.14,186.00L141.02,186.00L140.90,186.00L140.78,186.00L140.66,186.00L140.53,186.00L140.41,186.00L140.29,186.00L140.17,186.00L140.05,186.00L139.93,186.00L139.81,186.00L139.69,186.00L139.57,186.00L139.45,186.00L139.33,186.00L139.21,186.00L139.09,186.00L138.97,186.00L138.84,186.00L138.72,186.00L138.60,186.00L138.48,186.00L138.36,186.00L138.24,186.00L138.12,186.00L138.00,186.00" />
  <path d="M138.00,186.00L138.12,186.00L138.24,186.00L138.36,186.00L138.48,186.00L138.60,186.00L138.72,186.00L138.84,186.00L138.97,186.00L139.09,186.00L139.21,186.00L139.33,186.00L139.45,186.00L139.57,186.00L139.69,186.00L139.81,186.00L139.93,186.00L140.05,186.00L140.17,186.00L140.29,186.00L140.41,186.00L140.53,186.00L140.66,186.00L140.78,186.00L140.90,186.00L141.02,186.00L141.14,186.00L141.26,186.00L141.38,186.00L141.50,186.00" />
  <path d="M141.50,190.00L141.50,186.00" />
</g>
<g class="hard_visible" stroke="#000" stroke-width="0.7" fill="none" stroke-linecap="round" stroke-linejoin="round">
  <path d="M76.25,192.00L76.25,190.00" />
  <path d="M76.25,192.00L148.75,192.00" />
  <path d="M148.75,192.00L148.75,190.00" />
  <path d="M76.25,190.00L148.75,190.00" />
  <path d="M83.50,186.00L83.62,186.00L83.74,186.00L83.86,186.00L83.98,186.00L84.10,186.00L84.22,186.00L84.34,186.00L84.47,186.00L84.59,186.00L84.71,186.00L84.83,186.00L84.95,186.00L85.07,186.00L85.19,186.00L85.31,186.00L85.43,186.00L85.55,186.00L85.67,186.00L85.79,186.00L85.91,186.00L86.03,186.00L86.16,186.00L86.28,186.00L86.40,186.00L86.52,186.00L86.64,186.00L86.76,186.00L86.88,186.00L87.00,186.00" />
  <path d="M87.00,190.00L87.00,186.00" />
  <path d="M138.00,186.00L138.12,186.00L138.24,186.00L138.36,186.00L138.48,186.00L138.60,186.00L138.72,186.00L138.84,186.00L138.97,186.00L139.09,186.00L139.21,186.00L139.33,186.00L139.45,186.00L139.57,186.00L139.69,186.00L139.81,186.00L139.93,186.00L140.05,186.00L140.17,186.00L140.29,186.00L140.41,186.00L140.53,186.00L140.66,186.00L140.78,186.00L140.90,186.00L141.02,186.00L141.14,186.00L141.26,186.00L141.38,186.00L141.50,186.00" />
  <path d="M141.50,190.00L141.50,186.00" />
</g>
<g class="symmetry-axes" stroke="#000" stroke-width="0.13" fill="none" stroke-dasharray="8,2,1.5,2" stroke-linecap="round" opacity="0.5" vector-effect="non-scaling-stroke">
  <line x1="112.50" y1="181.36" x2="112.50" y2="196.64" />
</g>
<text x="18.0" y="141.0" font-family="monospace" font-size="3.5" fill="#666">FRONT</text>
<g class="dimensions-front" stroke="#000" stroke-width="0.18" fill="none" stroke-linecap="round" vector-effect="non-scaling-stroke">
<line x1="76.25" y1="194.00" x2="76.25" y2="198.50" />
<line x1="148.75" y1="194.00" x2="148.75" y2="198.50" />
<line x1="76.25" y1="200.00" x2="148.75" y2="200.00" />
<polygon points="76.25,200.00 74.25,199.30 74.25,200.70" fill="#000" />
<polygon points="148.75,200.00 150.75,200.70 150.75,199.30" fill="#000" />
<text x="112.50" y="199.00" text-anchor="middle" font-family="sans-serif" font-size="3" fill="#000">145</text>
<line x1="146.75" y1="186.00" x2="158.25" y2="186.00" />
<line x1="146.75" y1="192.00" x2="158.25" y2="192.00" />
<line x1="156.75" y1="186.00" x2="156.75" y2="192.00" />
<polygon points="156.75,186.00 157.45,184.00 156.05,184.00" fill="#000" />
<polygon points="156.75,192.00 156.05,194.00 157.45,194.00" fill="#000" />
<text x="155.25" y="189.00" text-anchor="middle" font-family="sans-serif" font-size="3" fill="#000" transform="rotate(-90,155.25,189.00)">12</text>
</g>
<g class="dimensions-front plan-dimensions-front" stroke="#000" stroke-width="0.18" fill="none" vector-effect="non-scaling-stroke">
<line x1="146.75" y1="186.00" x2="172.25" y2="186.00" />
<line x1="146.75" y1="192.00" x2="172.25" y2="192.00" />
<line x1="170.75" y1="186.00" x2="170.75" y2="192.00" />
<polygon points="170.75,186.00 170.05,188.00 171.45,188.00" fill="#000" />
<polygon points="170.75,192.00 171.45,190.00 170.05,190.00" fill="#000" />
<text x="169.25" y="189.00" text-anchor="middle" font-family="sans-serif" font-size="3" fill="#000" data-dim-id="THK" data-value-mm="4" transform="rotate(-90,169.25,189.00)">4</text>
<line x1="76.25" y1="194.00" x2="76.25" y2="216.50" />
<line x1="148.75" y1="194.00" x2="148.75" y2="216.50" />
<line x1="76.25" y1="218.00" x2="148.75" y2="218.00" />
<polygon points="76.25,218.00 74.25,217.30 74.25,218.70" fill="#000" />
<polygon points="148.75,218.00 150.75,218.70 150.75,217.30" fill="#000" />
<text x="112.50" y="217.00" text-anchor="middle" font-family="sans-serif" font-size="3" fill="#000" data-dim-id="STANDOFF_HEIGHT" data-value-mm="8">8</text>
</g>
<g class="datums-front">
  <polygon points="92.88,192.00 95.88,192.00 94.38,194.50" fill="#000" stroke="#000" stroke-width="0.25" />
  <line x1="94.38" y1="194.50" x2="94.38" y2="197.50" stroke="#000" stroke-width="0.3" />
  <rect x="92.12" y="197.50" width="4.5" height="4.5" fill="white" stroke="#000" stroke-width="0.35" />
  <text x="94.38" y="200.74" text-anchor="middle" font-family="sans-serif" font-size="3.5" font-weight="bold" fill="#000">A</text>
  <polygon points="76.25,188.70 76.25,191.70 73.75,190.20" fill="#000" stroke="#000" stroke-width="0.25" />
  <line x1="73.75" y1="190.20" x2="70.75" y2="190.20" stroke="#000" stroke-width="0.3" />
  <rect x="66.25" y="187.95" width="4.5" height="4.5" fill="white" stroke="#000" stroke-width="0.35" />
  <text x="68.50" y="191.19" text-anchor="middle" font-family="sans-serif" font-size="3.5" font-weight="bold" fill="#000">B</text>
</g>
<g class="baseline-dimensions">
<line x1="76.25" y1="192.00" x2="76.25" y2="205.00" stroke="#000" stroke-width="0.18" />
<line x1="87.25" y1="193.00" x2="87.25" y2="205.00" stroke="#000" stroke-width="0.18" />
<line x1="76.25" y1="203.00" x2="87.25" y2="203.00" stroke="#000" stroke-width="0.18" />
<polygon points="76.25,203.00 78.25,202.30 78.25,203.70" fill="#000" />
<polygon points="87.25,203.00 85.25,202.30 85.25,203.70" fill="#000" />
<text x="81.75" y="201.80" text-anchor="middle" font-family="sans-serif" font-size="3" fill="#000">22</text>
<line x1="76.25" y1="192.00" x2="76.25" y2="210.00" stroke="#000" stroke-width="0.18" />
<line x1="87.25" y1="193.00" x2="87.25" y2="210.00" stroke="#000" stroke-width="0.18" />
<line x1="76.25" y1="208.00" x2="87.25" y2="208.00" stroke="#000" stroke-width="0.18" />
<polygon points="76.25,208.00 78.25,207.30 78.25,208.70" fill="#000" />
<polygon points="87.25,208.00 85.25,207.30 85.25,208.70" fill="#000" />
<text x="81.75" y="206.80" text-anchor="middle" font-family="sans-serif" font-size="3" fill="#000">22</text>
<line x1="76.25" y1="192.00" x2="76.25" y2="215.00" stroke="#000" stroke-width="0.18" />
<line x1="137.75" y1="193.00" x2="137.75" y2="215.00" stroke="#000" stroke-width="0.18" />
<line x1="76.25" y1="213.00" x2="137.75" y2="213.00" stroke="#000" stroke-width="0.18" />
<polygon points="76.25,213.00 78.25,212.30 78.25,213.70" fill="#000" />
<polygon points="137.75,213.00 135.75,212.30 135.75,213.70" fill="#000" />
<text x="107.00" y="211.80" text-anchor="middle" font-family="sans-serif" font-size="3" fill="#000">123</text>
<line x1="76.25" y1="192.00" x2="76.25" y2="220.00" stroke="#000" stroke-width="0.18" />
<line x1="137.75" y1="193.00" x2="137.75" y2="220.00" stroke="#000" stroke-width="0.18" />
<line x1="76.25" y1="218.00" x2="137.75" y2="218.00" stroke="#000" stroke-width="0.18" />
<polygon points="76.25,218.00 78.25,217.30 78.25,218.70" fill="#000" />
<polygon points="137.75,218.00 135.75,217.30 135.75,218.70" fill="#000" />
<text x="107.00" y="216.80" text-anchor="middle" font-family="sans-serif" font-size="3" fill="#000">123</text>
</g>
</g>

<g class="drawing-view drawing-view-top" id="drawing-view-top" data-view-id="top" data-view-kind="orthographic" data-view-label="TOP" data-region-ref="drawing-view-top">
<g class="smooth_visible" stroke="#000" stroke-width="0.35" fill="none" stroke-linecap="round" stroke-linejoin="round">
  <path d="M76.25,97.50L76.25,48.50" />
  <path d="M76.25,97.50L148.75,97.50" />
  <path d="M76.25,48.50L148.75,48.50" />
  <path d="M148.75,97.50L148.75,48.50" />
  <circle cx="85.25" cy="88.50" r="1.75" />
  <circle cx="87.25" cy="86.50" r="1.00" />
  <path d="M115.25,76.50L106.25,76.50" />
  <path d="M115.25,76.50L115.25,71.50" />
  <path d="M106.25,76.50L106.25,71.50" />
  <path d="M115.25,71.50L106.25,71.50" />
  <circle cx="139.75" cy="88.50" r="1.75" />
  <circle cx="137.75" cy="86.50" r="1.00" />
  <circle cx="87.25" cy="59.50" r="1.00" />
  <circle cx="85.25" cy="57.50" r="1.75" />
  <circle cx="137.75" cy="59.50" r="1.00" />
  <circle cx="139.75" cy="57.50" r="1.75" />
  <circle cx="85.25" cy="88.50" r="1.75" />
  <circle cx="139.75" cy="88.50" r="1.75" />
  <circle cx="85.25" cy="57.50" r="1.75" />
  <circle cx="139.75" cy="57.50" r="1.75" />
</g>
<g class="hard_visible" stroke="#000" stroke-width="0.7" fill="none" stroke-linecap="round" stroke-linejoin="round">
  <path d="M76.25,97.50L76.25,48.50" />
  <path d="M76.25,97.50L148.75,97.50" />
  <path d="M76.25,48.50L148.75,48.50" />
  <path d="M148.75,97.50L148.75,48.50" />
  <circle cx="87.25" cy="86.50" r="1.00" />
  <path d="M115.25,76.50L106.25,76.50" />
  <path d="M115.25,76.50L115.25,71.50" />
  <path d="M106.25,76.50L106.25,71.50" />
  <path d="M115.25,71.50L106.25,71.50" />
  <circle cx="137.75" cy="86.50" r="1.00" />
  <circle cx="87.25" cy="59.50" r="1.00" />
  <circle cx="137.75" cy="59.50" r="1.00" />
</g>
<g class="centerlines" stroke="#000" stroke-width="0.18" fill="none" stroke-dasharray="8,2,1.5,2" stroke-linecap="round" vector-effect="non-scaling-stroke">
  <line x1="80.29" y1="86.50" x2="94.21" y2="86.50" />
  <line x1="87.25" y1="79.54" x2="87.25" y2="93.46" />
  <line x1="130.79" y1="86.50" x2="144.71" y2="86.50" />
  <line x1="137.75" y1="79.54" x2="137.75" y2="93.46" />
  <line x1="80.29" y1="59.50" x2="94.21" y2="59.50" />
  <line x1="87.25" y1="52.54" x2="87.25" y2="66.46" />
  <line x1="130.79" y1="59.50" x2="144.71" y2="59.50" />
  <line x1="137.75" y1="52.54" x2="137.75" y2="66.46" />
  <line x1="78.29" y1="88.50" x2="92.21" y2="88.50" />
  <line x1="85.25" y1="81.54" x2="85.25" y2="95.46" />
  <line x1="132.79" y1="88.50" x2="146.71" y2="88.50" />
  <line x1="139.75" y1="81.54" x2="139.75" y2="95.46" />
  <line x1="78.29" y1="57.50" x2="92.21" y2="57.50" />
  <line x1="85.25" y1="50.54" x2="85.25" y2="64.46" />
  <line x1="132.79" y1="57.50" x2="146.71" y2="57.50" />
  <line x1="139.75" y1="50.54" x2="139.75" y2="64.46" />
</g>
<g class="symmetry-axes" stroke="#000" stroke-width="0.13" fill="none" stroke-dasharray="8,2,1.5,2" stroke-linecap="round" opacity="0.5" vector-effect="non-scaling-stroke">
  <line x1="112.50" y1="43.86" x2="112.50" y2="102.14" />
</g>
<text x="18.0" y="25.0" font-family="monospace" font-size="3.5" fill="#666">TOP</text>
<g class="dimensions-top" stroke="#000" stroke-width="0.18" fill="none" stroke-linecap="round" vector-effect="non-scaling-stroke">
<line x1="76.25" y1="99.50" x2="76.25" y2="104.00" />
<line x1="148.75" y1="99.50" x2="148.75" y2="104.00" />
<line x1="76.25" y1="105.50" x2="148.75" y2="105.50" />
<polygon points="76.25,105.50 74.25,104.80 74.25,106.20" fill="#000" />
<polygon points="148.75,105.50 150.75,106.20 150.75,104.80" fill="#000" />
<text x="112.50" y="104.50" text-anchor="middle" font-family="sans-serif" font-size="3" fill="#000">145</text>
<line x1="146.75" y1="48.50" x2="158.25" y2="48.50" />
<line x1="146.75" y1="97.50" x2="158.25" y2="97.50" />
<line x1="156.75" y1="48.50" x2="156.75" y2="97.50" />
<polygon points="156.75,48.50 157.45,46.50 156.05,46.50" fill="#000" />
<polygon points="156.75,97.50 156.05,99.50 157.45,99.50" fill="#000" />
<text x="155.25" y="73.00" text-anchor="middle" font-family="sans-serif" font-size="3" fill="#000" transform="rotate(-90,155.25,73.00)">98</text>
<line x1="86.49" y1="87.26" x2="90.73" y2="83.02" />
<line x1="90.73" y1="83.02" x2="98.73" y2="83.02" />
<polygon points="86.49,87.26 87.41,89.17 88.40,88.18" fill="#000" />
<text x="94.73" y="81.82" text-anchor="middle" font-family="sans-serif" font-size="3" fill="#000">⌀7</text>
<line x1="76.25" y1="99.50" x2="76.25" y2="111.00" />
<line x1="85.25" y1="99.50" x2="85.25" y2="111.00" />
<line x1="76.25" y1="112.50" x2="85.25" y2="112.50" />
<polygon points="76.25,112.50 74.25,111.80 74.25,113.20" fill="#000" />
<polygon points="85.25,112.50 87.25,113.20 87.25,111.80" fill="#000" />
<text x="80.75" y="111.50" text-anchor="middle" font-family="sans-serif" font-size="3" fill="#000">18</text>
<line x1="87.25" y1="99.50" x2="87.25" y2="111.00" />
<line x1="137.75" y1="99.50" x2="137.75" y2="111.00" />
<line x1="87.25" y1="112.50" x2="137.75" y2="112.50" />
<polygon points="87.25,112.50 85.25,111.80 85.25,113.20" fill="#000" />
<polygon points="137.75,112.50 139.75,113.20 139.75,111.80" fill="#000" />
<text x="112.50" y="111.50" text-anchor="middle" font-family="sans-serif" font-size="3" fill="#000">101</text>
<line x1="139.75" y1="99.50" x2="139.75" y2="111.00" />
<line x1="148.75" y1="99.50" x2="148.75" y2="111.00" />
<line x1="139.75" y1="112.50" x2="148.75" y2="112.50" />
<polygon points="139.75,112.50 137.75,111.80 137.75,113.20" fill="#000" />
<polygon points="148.75,112.50 150.75,113.20 150.75,111.80" fill="#000" />
<text x="144.25" y="111.50" text-anchor="middle" font-family="sans-serif" font-size="3" fill="#000">18</text>
<line x1="146.75" y1="88.50" x2="165.25" y2="88.50" />
<line x1="146.75" y1="97.50" x2="165.25" y2="97.50" />
<line x1="163.75" y1="88.50" x2="163.75" y2="97.50" />
<polygon points="163.75,88.50 164.45,86.50 163.05,86.50" fill="#000" />
<polygon points="163.75,97.50 163.05,99.50 164.45,99.50" fill="#000" />
<text x="162.25" y="93.00" text-anchor="middle" font-family="sans-serif" font-size="3" fill="#000" transform="rotate(-90,162.25,93.00)">18</text>
<line x1="146.75" y1="59.50" x2="165.25" y2="59.50" />
<line x1="146.75" y1="86.50" x2="165.25" y2="86.50" />
<line x1="163.75" y1="59.50" x2="163.75" y2="86.50" />
<polygon points="163.75,59.50 164.45,57.50 163.05,57.50" fill="#000" />
<polygon points="163.75,86.50 163.05,88.50 164.45,88.50" fill="#000" />
<text x="162.25" y="73.00" text-anchor="middle" font-family="sans-serif" font-size="3" fill="#000" transform="rotate(-90,162.25,73.00)">54</text>
<line x1="146.75" y1="48.50" x2="165.25" y2="48.50" />
<line x1="146.75" y1="57.50" x2="165.25" y2="57.50" />
<line x1="163.75" y1="48.50" x2="163.75" y2="57.50" />
<polygon points="163.75,48.50 164.45,46.50 163.05,46.50" fill="#000" />
<polygon points="163.75,57.50 163.05,59.50 164.45,59.50" fill="#000" />
<text x="162.25" y="53.00" text-anchor="middle" font-family="sans-serif" font-size="3" fill="#000" transform="rotate(-90,162.25,53.00)">18</text>
</g>
<g class="dimensions-top plan-dimensions-top" stroke="#000" stroke-width="0.18" fill="none" vector-effect="non-scaling-stroke">
<line x1="76.25" y1="99.50" x2="76.25" y2="128.00" />
<line x1="148.75" y1="99.50" x2="148.75" y2="128.00" />
<line x1="76.25" y1="129.50" x2="148.75" y2="129.50" />
<polygon points="76.25,129.50 74.25,128.80 74.25,130.20" fill="#000" />
<polygon points="148.75,129.50 150.75,130.20 150.75,128.80" fill="#000" />
<text x="112.50" y="128.50" text-anchor="middle" font-family="sans-serif" font-size="3" fill="#000" data-dim-id="TOTAL_LENGTH" data-value-mm="145">145</text>
<line x1="146.75" y1="48.50" x2="182.25" y2="48.50" />
<line x1="146.75" y1="97.50" x2="182.25" y2="97.50" />
<line x1="180.75" y1="48.50" x2="180.75" y2="97.50" />
<polygon points="180.75,48.50 180.05,50.50 181.45,50.50" fill="#000" />
<polygon points="180.75,97.50 181.45,95.50 180.05,95.50" fill="#000" />
<text x="179.25" y="73.00" text-anchor="middle" font-family="sans-serif" font-size="3" fill="#000" data-dim-id="HEIGHT" data-value-mm="98" transform="rotate(-90,179.25,73.00)">98</text>
<line x1="87.96" y1="85.79" x2="95.74" y2="78.01" />
<line x1="95.74" y1="78.01" x2="103.74" y2="78.01" />
<polygon points="87.96,85.79 87.04,83.88 86.05,84.87" fill="#000" />
<text x="104.24" y="77.51" text-anchor="start" font-family="sans-serif" font-size="3" fill="#000" data-dim-id="HOLE_DIA" data-value-mm="4">Ø4</text>
<line x1="76.25" y1="46.50" x2="76.25" y2="6.00" />
<line x1="148.75" y1="46.50" x2="148.75" y2="6.00" />
<line x1="76.25" y1="4.50" x2="148.75" y2="4.50" />
<polygon points="76.25,4.50 74.25,3.80 74.25,5.20" fill="#000" />
<polygon points="148.75,4.50 150.75,5.20 150.75,3.80" fill="#000" />
<text x="112.50" y="7.70" text-anchor="middle" font-family="sans-serif" font-size="3" fill="#000" data-dim-id="CONNECTOR_SLOT_POSITION" data-value-mm="42">42</text>
</g>
<g class="datums-top">
  <polygon points="76.25,81.30 76.25,84.30 73.75,82.80" fill="#000" stroke="#000" stroke-width="0.25" />
  <line x1="73.75" y1="82.80" x2="70.75" y2="82.80" stroke="#000" stroke-width="0.3" />
  <rect x="66.25" y="80.55" width="4.5" height="4.5" fill="white" stroke="#000" stroke-width="0.35" />
  <text x="68.50" y="83.79" text-anchor="middle" font-family="sans-serif" font-size="3.5" font-weight="bold" fill="#000">B</text>
  <polygon points="92.88,48.50 95.88,48.50 94.38,46.00" fill="#000" stroke="#000" stroke-width="0.25" />
  <line x1="94.38" y1="46.00" x2="94.38" y2="43.00" stroke="#000" stroke-width="0.3" />
  <rect x="92.12" y="38.50" width="4.5" height="4.5" fill="white" stroke="#000" stroke-width="0.35" />
  <text x="94.38" y="41.74" text-anchor="middle" font-family="sans-serif" font-size="3.5" font-weight="bold" fill="#000">C</text>
</g>
</g>

<g class="drawing-view drawing-view-right" id="drawing-view-right" data-view-id="right" data-view-kind="orthographic" data-view-label="RIGHT" data-region-ref="drawing-view-right">
<g class="iso_visible" stroke="#999" stroke-width="0.13" fill="none" stroke-linecap="round" stroke-linejoin="round">
  <path d="M293.75,190.00L293.75,186.00" />
  <path d="M290.25,190.00L290.25,186.00" />
  <path d="M295.00,192.00L295.00,190.00" />
  <path d="M293.00,192.00L293.00,190.00" />
  <path d="M295.00,192.00L295.00,190.00" />
  <path d="M293.00,192.00L293.00,190.00" />
  <path d="M322.00,192.00L322.00,190.00" />
  <path d="M320.00,192.00L320.00,190.00" />
  <path d="M324.75,190.00L324.75,186.00" />
  <path d="M321.25,190.00L321.25,186.00" />
  <path d="M322.00,192.00L322.00,190.00" />
  <path d="M320.00,192.00L320.00,190.00" />
</g>
<g class="smooth_visible" stroke="#000" stroke-width="0.35" fill="none" stroke-linecap="round" stroke-linejoin="round">
  <path d="M283.00,192.00L283.00,190.00" />
  <path d="M283.00,190.00L332.00,190.00" />
  <path d="M332.00,192.00L332.00,190.00" />
  <path d="M283.00,192.00L332.00,192.00" />
  <path d="M292.00,190.00L292.06,190.00L292.12,190.00L292.18,190.00L292.24,190.00L292.30,190.00L292.36,190.00L292.42,190.00L292.48,190.00L292.54,190.00L292.60,190.00L292.66,190.00L292.72,190.00L292.78,190.00L292.84,190.00L292.91,190.00L292.97,190.00L293.03,190.00L293.09,190.00L293.15,190.00L293.21,190.00L293.27,190.00L293.33,190.00L293.39,190.00L293.45,190.00L293.51,190.00L293.57,190.00L293.63,190.00L293.69,190.00L293.75,190.00" />
  <path d="M293.75,190.00L293.63,190.00L293.51,190.00L293.39,190.00L293.27,190.00L293.15,190.00L293.03,190.00L292.91,190.00L292.78,190.00L292.66,190.00L292.54,190.00L292.42,190.00L292.30,190.00L292.18,190.00L292.06,190.00L291.94,190.00L291.82,190.00L291.70,190.00L291.58,190.00L291.46,190.00L291.34,190.00L291.22,190.00L291.09,190.00L290.97,190.00L290.85,190.00L290.73,190.00L290.61,190.00L290.49,190.00L290.37,190.00L290.25,190.00" />
  <path d="M290.25,190.00L290.31,190.00L290.37,190.00L290.43,190.00L290.49,190.00L290.55,190.00L290.61,190.00L290.67,190.00L290.73,190.00L290.79,190.00L290.85,190.00L290.91,190.00L290.97,190.00L291.03,190.00L291.09,190.00L291.16,190.00L291.22,190.00L291.28,190.00L291.34,190.00L291.40,190.00L291.46,190.00L291.52,190.00L291.58,190.00L291.64,190.00L291.70,190.00L291.76,190.00L291.82,190.00L291.88,190.00L291.94,190.00L292.00,190.00" />
  <path d="M294.00,190.00L294.03,190.00L294.07,190.00L294.10,190.00L294.14,190.00L294.17,190.00L294.21,190.00L294.24,190.00L294.28,190.00L294.31,190.00L294.34,190.00L294.38,190.00L294.41,190.00L294.45,190.00L294.48,190.00L294.52,190.00L294.55,190.00L294.59,190.00L294.62,190.00L294.66,190.00L294.69,190.00L294.72,190.00L294.76,190.00L294.79,190.00L294.83,190.00L294.86,190.00L294.90,190.00L294.93,190.00L294.97,190.00L295.00,190.00" />
  <path d="M295.00,190.00L294.93,190.00L294.86,190.00L294.79,190.00L294.72,190.00L294.66,190.00L294.59,190.00L294.52,190.00L294.45,190.00L294.38,190.00L294.31,190.00L294.24,190.00L294.17,190.00L294.10,190.00L294.03,190.00L293.97,190.00L293.90,190.00L293.83,190.00L293.76,190.00L293.69,190.00L293.62,190.00L293.55,190.00L293.48,190.00L293.41,190.00L293.34,190.00L293.28,190.00L293.21,190.00L293.14,190.00L293.07,190.00L293.00,190.00" />
  <path d="M293.00,190.00L293.03,190.00L293.07,190.00L293.10,190.00L293.14,190.00L293.17,190.00L293.21,190.00L293.24,190.00L293.28,190.00L293.31,190.00L293.34,190.00L293.38,190.00L293.41,190.00L293.45,190.00L293.48,190.00L293.52,190.00L293.55,190.00L293.59,190.00L293.62,190.00L293.66,190.00L293.69,190.00L293.72,190.00L293.76,190.00L293.79,190.00L293.83,190.00L293.86,190.00L293.90,190.00L293.93,190.00L293.97,190.00L294.00,190.00" />
  <path d="M304.00,190.00L309.00,190.00" />
  <path d="M304.00,190.00L309.00,190.00" />
  <path d="M292.00,190.00L292.06,190.00L292.12,190.00L292.18,190.00L292.24,190.00L292.30,190.00L292.36,190.00L292.42,190.00L292.48,190.00L292.54,190.00L292.60,190.00L292.66,190.00L292.72,190.00L292.78,190.00L292.84,190.00L292.91,190.00L292.97,190.00L293.03,190.00L293.09,190.00L293.15,190.00L293.21,190.00L293.27,190.00L293.33,190.00L293.39,190.00L293.45,190.00L293.51,190.00L293.57,190.00L293.63,190.00L293.69,190.00L293.75,190.00" />
  <path d="M293.75,190.00L293.63,190.00L293.51,190.00L293.39,190.00L293.27,190.00L293.15,190.00L293.03,190.00L292.91,190.00L292.78,190.00L292.66,190.00L292.54,190.00L292.42,190.00L292.30,190.00L292.18,190.00L292.06,190.00L291.94,190.00L291.82,190.00L291.70,190.00L291.58,190.00L291.46,190.00L291.34,190.00L291.22,190.00L291.09,190.00L290.97,190.00L290.85,190.00L290.73,190.00L290.61,190.00L290.49,190.00L290.37,190.00L290.25,190.00" />
  <path d="M290.25,190.00L290.31,190.00L290.37,190.00L290.43,190.00L290.49,190.00L290.55,190.00L290.61,190.00L290.67,190.00L290.73,190.00L290.79,190.00L290.85,190.00L290.91,190.00L290.97,190.00L291.03,190.00L291.09,190.00L291.16,190.00L291.22,190.00L291.28,190.00L291.34,190.00L291.40,190.00L291.46,190.00L291.52,190.00L291.58,190.00L291.64,190.00L291.70,190.00L291.76,190.00L291.82,190.00L291.88,190.00L291.94,190.00L292.00,190.00" />
  <path d="M294.00,190.00L294.03,190.00L294.07,190.00L294.10,190.00L294.14,190.00L294.17,190.00L294.21,190.00L294.24,190.00L294.28,190.00L294.31,190.00L294.34,190.00L294.38,190.00L294.41,190.00L294.45,190.00L294.48,190.00L294.52,190.00L294.55,190.00L294.59,190.00L294.62,190.00L294.66,190.00L294.69,190.00L294.72,190.00L294.76,190.00L294.79,190.00L294.83,190.00L294.86,190.00L294.90,190.00L294.93,190.00L294.97,190.00L295.00,190.00" />
  <path d="M295.00,190.00L294.93,190.00L294.86,190.00L294.79,190.00L294.72,190.00L294.66,190.00L294.59,190.00L294.52,190.00L294.45,190.00L294.38,190.00L294.31,190.00L294.24,190.00L294.17,190.00L294.10,190.00L294.03,190.00L293.97,190.00L293.90,190.00L293.83,190.00L293.76,190.00L293.69,190.00L293.62,190.00L293.55,190.00L293.48,190.00L293.41,190.00L293.34,190.00L293.28,190.00L293.21,190.00L293.14,190.00L293.07,190.00L293.00,190.00" />
  <path d="M293.00,190.00L293.03,190.00L293.07,190.00L293.10,190.00L293.14,190.00L293.17,190.00L293.21,190.00L293.24,190.00L293.28,190.00L293.31,190.00L293.34,190.00L293.38,190.00L293.41,190.00L293.45,190.00L293.48,190.00L293.52,190.00L293.55,190.00L293.59,190.00L293.62,190.00L293.66,190.00L293.69,190.00L293.72,190.00L293.76,190.00L293.79,190.00L293.83,190.00L293.86,190.00L293.90,190.00L293.93,190.00L293.97,190.00L294.00,190.00" />
  <path d="M321.00,190.00L321.03,190.00L321.07,190.00L321.10,190.00L321.14,190.00L321.17,190.00L321.21,190.00L321.24,190.00L321.28,190.00L321.31,190.00L321.34,190.00L321.38,190.00L321.41,190.00L321.45,190.00L321.48,190.00L321.52,190.00L321.55,190.00L321.59,190.00L321.62,190.00L321.66,190.00L321.69,190.00L321.72,190.00L321.76,190.00L321.79,190.00L321.83,190.00L321.86,190.00L321.90,190.00L321.93,190.00L321.97,190.00L322.00,190.00" />
  <path d="M322.00,190.00L321.93,190.00L321.86,190.00L321.79,190.00L321.72,190.00L321.66,190.00L321.59,190.00L321.52,190.00L321.45,190.00L321.38,190.00L321.31,190.00L321.24,190.00L321.17,190.00L321.10,190.00L321.03,190.00L320.97,190.00L320.90,190.00L320.83,190.00L320.76,190.00L320.69,190.00L320.62,190.00L320.55,190.00L320.48,190.00L320.41,190.00L320.34,190.00L320.28,190.00L320.21,190.00L320.14,190.00L320.07,190.00L320.00,190.00" />
  <path d="M320.00,190.00L320.03,190.00L320.07,190.00L320.10,190.00L320.14,190.00L320.17,190.00L320.21,190.00L320.24,190.00L320.28,190.00L320.31,190.00L320.34,190.00L320.38,190.00L320.41,190.00L320.45,190.00L320.48,190.00L320.52,190.00L320.55,190.00L320.59,190.00L320.62,190.00L320.66,190.00L320.69,190.00L320.72,190.00L320.76,190.00L320.79,190.00L320.83,190.00L320.86,190.00L320.90,190.00L320.93,190.00L320.97,190.00L321.00,190.00" />
  <path d="M323.00,190.00L323.06,190.00L323.12,190.00L323.18,190.00L323.24,190.00L323.30,190.00L323.36,190.00L323.42,190.00L323.48,190.00L323.54,190.00L323.60,190.00L323.66,190.00L323.72,190.00L323.78,190.00L323.84,190.00L323.91,190.00L323.97,190.00L324.03,190.00L324.09,190.00L324.15,190.00L324.21,190.00L324.27,190.00L324.33,190.00L324.39,190.00L324.45,190.00L324.51,190.00L324.57,190.00L324.63,190.00L324.69,190.00L324.75,190.00" />
  <path d="M324.75,190.00L324.63,190.00L324.51,190.00L324.39,190.00L324.27,190.00L324.15,190.00L324.03,190.00L323.91,190.00L323.78,190.00L323.66,190.00L323.54,190.00L323.42,190.00L323.30,190.00L323.18,190.00L323.06,190.00L322.94,190.00L322.82,190.00L322.70,190.00L322.58,190.00L322.46,190.00L322.34,190.00L322.22,190.00L322.09,190.00L321.97,190.00L321.85,190.00L321.73,190.00L321.61,190.00L321.49,190.00L321.37,190.00L321.25,190.00" />
  <path d="M321.25,190.00L321.31,190.00L321.37,190.00L321.43,190.00L321.49,190.00L321.55,190.00L321.61,190.00L321.67,190.00L321.73,190.00L321.79,190.00L321.85,190.00L321.91,190.00L321.97,190.00L322.03,190.00L322.09,190.00L322.16,190.00L322.22,190.00L322.28,190.00L322.34,190.00L322.40,190.00L322.46,190.00L322.52,190.00L322.58,190.00L322.64,190.00L322.70,190.00L322.76,190.00L322.82,190.00L322.88,190.00L322.94,190.00L323.00,190.00" />
  <path d="M321.00,190.00L321.03,190.00L321.07,190.00L321.10,190.00L321.14,190.00L321.17,190.00L321.21,190.00L321.24,190.00L321.28,190.00L321.31,190.00L321.34,190.00L321.38,190.00L321.41,190.00L321.45,190.00L321.48,190.00L321.52,190.00L321.55,190.00L321.59,190.00L321.62,190.00L321.66,190.00L321.69,190.00L321.72,190.00L321.76,190.00L321.79,190.00L321.83,190.00L321.86,190.00L321.90,190.00L321.93,190.00L321.97,190.00L322.00,190.00" />
  <path d="M322.00,190.00L321.93,190.00L321.86,190.00L321.79,190.00L321.72,190.00L321.66,190.00L321.59,190.00L321.52,190.00L321.45,190.00L321.38,190.00L321.31,190.00L321.24,190.00L321.17,190.00L321.10,190.00L321.03,190.00L320.97,190.00L320.90,190.00L320.83,190.00L320.76,190.00L320.69,190.00L320.62,190.00L320.55,190.00L320.48,190.00L320.41,190.00L320.34,190.00L320.28,190.00L320.21,190.00L320.14,190.00L320.07,190.00L320.00,190.00" />
  <path d="M320.00,190.00L320.03,190.00L320.07,190.00L320.10,190.00L320.14,190.00L320.17,190.00L320.21,190.00L320.24,190.00L320.28,190.00L320.31,190.00L320.34,190.00L320.38,190.00L320.41,190.00L320.45,190.00L320.48,190.00L320.52,190.00L320.55,190.00L320.59,190.00L320.62,190.00L320.66,190.00L320.69,190.00L320.72,190.00L320.76,190.00L320.79,190.00L320.83,190.00L320.86,190.00L320.90,190.00L320.93,190.00L320.97,190.00L321.00,190.00" />
  <path d="M323.00,190.00L323.06,190.00L323.12,190.00L323.18,190.00L323.24,190.00L323.30,190.00L323.36,190.00L323.42,190.00L323.48,190.00L323.54,190.00L323.60,190.00L323.66,190.00L323.72,190.00L323.78,190.00L323.84,190.00L323.91,190.00L323.97,190.00L324.03,190.00L324.09,190.00L324.15,190.00L324.21,190.00L324.27,190.00L324.33,190.00L324.39,190.00L324.45,190.00L324.51,190.00L324.57,190.00L324.63,190.00L324.69,190.00L324.75,190.00" />
  <path d="M324.75,190.00L324.63,190.00L324.51,190.00L324.39,190.00L324.27,190.00L324.15,190.00L324.03,190.00L323.91,190.00L323.78,190.00L323.66,190.00L323.54,190.00L323.42,190.00L323.30,190.00L323.18,190.00L323.06,190.00L322.94,190.00L322.82,190.00L322.70,190.00L322.58,190.00L322.46,190.00L322.34,190.00L322.22,190.00L322.09,190.00L321.97,190.00L321.85,190.00L321.73,190.00L321.61,190.00L321.49,190.00L321.37,190.00L321.25,190.00" />
  <path d="M321.25,190.00L321.31,190.00L321.37,190.00L321.43,190.00L321.49,190.00L321.55,190.00L321.61,190.00L321.67,190.00L321.73,190.00L321.79,190.00L321.85,190.00L321.91,190.00L321.97,190.00L322.03,190.00L322.09,190.00L322.16,190.00L322.22,190.00L322.28,190.00L322.34,190.00L322.40,190.00L322.46,190.00L322.52,190.00L322.58,190.00L322.64,190.00L322.70,190.00L322.76,190.00L322.82,190.00L322.88,190.00L322.94,190.00L323.00,190.00" />
  <path d="M294.00,192.00L294.03,192.00L294.07,192.00L294.10,192.00L294.14,192.00L294.17,192.00L294.21,192.00L294.24,192.00L294.28,192.00L294.31,192.00L294.34,192.00L294.38,192.00L294.41,192.00L294.45,192.00L294.48,192.00L294.52,192.00L294.55,192.00L294.59,192.00L294.62,192.00L294.66,192.00L294.69,192.00L294.72,192.00L294.76,192.00L294.79,192.00L294.83,192.00L294.86,192.00L294.90,192.00L294.93,192.00L294.97,192.00L295.00,192.00" />
  <path d="M295.00,192.00L294.93,192.00L294.86,192.00L294.79,192.00L294.72,192.00L294.66,192.00L294.59,192.00L294.52,192.00L294.45,192.00L294.38,192.00L294.31,192.00L294.24,192.00L294.17,192.00L294.10,192.00L294.03,192.00L293.97,192.00L293.90,192.00L293.83,192.00L293.76,192.00L293.69,192.00L293.62,192.00L293.55,192.00L293.48,192.00L293.41,192.00L293.34,192.00L293.28,192.00L293.21,192.00L293.14,192.00L293.07,192.00L293.00,192.00" />
  <path d="M293.00,192.00L293.03,192.00L293.07,192.00L293.10,192.00L293.14,192.00L293.17,192.00L293.21,192.00L293.24,192.00L293.28,192.00L293.31,192.00L293.34,192.00L293.38,192.00L293.41,192.00L293.45,192.00L293.48,192.00L293.52,192.00L293.55,192.00L293.59,192.00L293.62,192.00L293.66,192.00L293.69,192.00L293.72,192.00L293.76,192.00L293.79,192.00L293.83,192.00L293.86,192.00L293.90,192.00L293.93,192.00L293.97,192.00L294.00,192.00" />
  <path d="M304.00,192.00L309.00,192.00" />
  <path d="M304.00,192.00L309.00,192.00" />
  <path d="M294.00,192.00L294.03,192.00L294.07,192.00L294.10,192.00L294.14,192.00L294.17,192.00L294.21,192.00L294.24,192.00L294.28,192.00L294.31,192.00L294.34,192.00L294.38,192.00L294.41,192.00L294.45,192.00L294.48,192.00L294.52,192.00L294.55,192.00L294.59,192.00L294.62,192.00L294.66,192.00L294.69,192.00L294.72,192.00L294.76,192.00L294.79,192.00L294.83,192.00L294.86,192.00L294.90,192.00L294.93,192.00L294.97,192.00L295.00,192.00" />
  <path d="M295.00,192.00L294.93,192.00L294.86,192.00L294.79,192.00L294.72,192.00L294.66,192.00L294.59,192.00L294.52,192.00L294.45,192.00L294.38,192.00L294.31,192.00L294.24,192.00L294.17,192.00L294.10,192.00L294.03,192.00L293.97,192.00L293.90,192.00L293.83,192.00L293.76,192.00L293.69,192.00L293.62,192.00L293.55,192.00L293.48,192.00L293.41,192.00L293.34,192.00L293.28,192.00L293.21,192.00L293.14,192.00L293.07,192.00L293.00,192.00" />
  <path d="M293.00,192.00L293.03,192.00L293.07,192.00L293.10,192.00L293.14,192.00L293.17,192.00L293.21,192.00L293.24,192.00L293.28,192.00L293.31,192.00L293.34,192.00L293.38,192.00L293.41,192.00L293.45,192.00L293.48,192.00L293.52,192.00L293.55,192.00L293.59,192.00L293.62,192.00L293.66,192.00L293.69,192.00L293.72,192.00L293.76,192.00L293.79,192.00L293.83,192.00L293.86,192.00L293.90,192.00L293.93,192.00L293.97,192.00L294.00,192.00" />
  <path d="M321.00,192.00L321.03,192.00L321.07,192.00L321.10,192.00L321.14,192.00L321.17,192.00L321.21,192.00L321.24,192.00L321.28,192.00L321.31,192.00L321.34,192.00L321.38,192.00L321.41,192.00L321.45,192.00L321.48,192.00L321.52,192.00L321.55,192.00L321.59,192.00L321.62,192.00L321.66,192.00L321.69,192.00L321.72,192.00L321.76,192.00L321.79,192.00L321.83,192.00L321.86,192.00L321.90,192.00L321.93,192.00L321.97,192.00L322.00,192.00" />
  <path d="M322.00,192.00L321.93,192.00L321.86,192.00L321.79,192.00L321.72,192.00L321.66,192.00L321.59,192.00L321.52,192.00L321.45,192.00L321.38,192.00L321.31,192.00L321.24,192.00L321.17,192.00L321.10,192.00L321.03,192.00L320.97,192.00L320.90,192.00L320.83,192.00L320.76,192.00L320.69,192.00L320.62,192.00L320.55,192.00L320.48,192.00L320.41,192.00L320.34,192.00L320.28,192.00L320.21,192.00L320.14,192.00L320.07,192.00L320.00,192.00" />
  <path d="M320.00,192.00L320.03,192.00L320.07,192.00L320.10,192.00L320.14,192.00L320.17,192.00L320.21,192.00L320.24,192.00L320.28,192.00L320.31,192.00L320.34,192.00L320.38,192.00L320.41,192.00L320.45,192.00L320.48,192.00L320.52,192.00L320.55,192.00L320.59,192.00L320.62,192.00L320.66,192.00L320.69,192.00L320.72,192.00L320.76,192.00L320.79,192.00L320.83,192.00L320.86,192.00L320.90,192.00L320.93,192.00L320.97,192.00L321.00,192.00" />
  <path d="M321.00,192.00L321.03,192.00L321.07,192.00L321.10,192.00L321.14,192.00L321.17,192.00L321.21,192.00L321.24,192.00L321.28,192.00L321.31,192.00L321.34,192.00L321.38,192.00L321.41,192.00L321.45,192.00L321.48,192.00L321.52,192.00L321.55,192.00L321.59,192.00L321.62,192.00L321.66,192.00L321.69,192.00L321.72,192.00L321.76,192.00L321.79,192.00L321.83,192.00L321.86,192.00L321.90,192.00L321.93,192.00L321.97,192.00L322.00,192.00" />
  <path d="M322.00,192.00L321.93,192.00L321.86,192.00L321.79,192.00L321.72,192.00L321.66,192.00L321.59,192.00L321.52,192.00L321.45,192.00L321.38,192.00L321.31,192.00L321.24,192.00L321.17,192.00L321.10,192.00L321.03,192.00L320.97,192.00L320.90,192.00L320.83,192.00L320.76,192.00L320.69,192.00L320.62,192.00L320.55,192.00L320.48,192.00L320.41,192.00L320.34,192.00L320.28,192.00L320.21,192.00L320.14,192.00L320.07,192.00L320.00,192.00" />
  <path d="M320.00,192.00L320.03,192.00L320.07,192.00L320.10,192.00L320.14,192.00L320.17,192.00L320.21,192.00L320.24,192.00L320.28,192.00L320.31,192.00L320.34,192.00L320.38,192.00L320.41,192.00L320.45,192.00L320.48,192.00L320.52,192.00L320.55,192.00L320.59,192.00L320.62,192.00L320.66,192.00L320.69,192.00L320.72,192.00L320.76,192.00L320.79,192.00L320.83,192.00L320.86,192.00L320.90,192.00L320.93,192.00L320.97,192.00L321.00,192.00" />
  <path d="M292.00,186.00L292.06,186.00L292.12,186.00L292.18,186.00L292.24,186.00L292.30,186.00L292.36,186.00L292.42,186.00L292.48,186.00L292.54,186.00L292.60,186.00L292.66,186.00L292.72,186.00L292.78,186.00L292.84,186.00L292.91,186.00L292.97,186.00L293.03,186.00L293.09,186.00L293.15,186.00L293.21,186.00L293.27,186.00L293.33,186.00L293.39,186.00L293.45,186.00L293.51,186.00L293.57,186.00L293.63,186.00L293.69,186.00L293.75,186.00" />
  <path d="M293.75,186.00L293.63,186.00L293.51,186.00L293.39,186.00L293.27,186.00L293.15,186.00L293.03,186.00L292.91,186.00L292.78,186.00L292.66,186.00L292.54,186.00L292.42,186.00L292.30,186.00L292.18,186.00L292.06,186.00L291.94,186.00L291.82,186.00L291.70,186.00L291.58,186.00L291.46,186.00L291.34,186.00L291.22,186.00L291.09,186.00L290.97,186.00L290.85,186.00L290.73,186.00L290.61,186.00L290.49,186.00L290.37,186.00L290.25,186.00" />
  <path d="M290.25,186.00L290.31,186.00L290.37,186.00L290.43,186.00L290.49,186.00L290.55,186.00L290.61,186.00L290.67,186.00L290.73,186.00L290.79,186.00L290.85,186.00L290.91,186.00L290.97,186.00L291.03,186.00L291.09,186.00L291.16,186.00L291.22,186.00L291.28,186.00L291.34,186.00L291.40,186.00L291.46,186.00L291.52,186.00L291.58,186.00L291.64,186.00L291.70,186.00L291.76,186.00L291.82,186.00L291.88,186.00L291.94,186.00L292.00,186.00" />
  <path d="M304.00,192.00L304.00,190.00" />
  <path d="M304.00,192.00L304.00,190.00" />
  <path d="M309.00,192.00L309.00,190.00" />
  <path d="M309.00,192.00L309.00,190.00" />
  <path d="M293.75,186.00L293.63,186.00L293.51,186.00L293.39,186.00L293.27,186.00L293.15,186.00L293.03,186.00L292.91,186.00L292.78,186.00L292.66,186.00L292.54,186.00L292.42,186.00L292.30,186.00L292.18,186.00L292.06,186.00L291.94,186.00L291.82,186.00L291.70,186.00L291.58,186.00L291.46,186.00L291.34,186.00L291.22,186.00L291.09,186.00L290.97,186.00L290.85,186.00L290.73,186.00L290.61,186.00L290.49,186.00L290.37,186.00L290.25,186.00" />
  <path d="M323.00,186.00L323.06,186.00L323.12,186.00L323.18,186.00L323.24,186.00L323.30,186.00L323.36,186.00L323.42,186.00L323.48,186.00L323.54,186.00L323.60,186.00L323.66,186.00L323.72,186.00L323.78,186.00L323.84,186.00L323.91,186.00L323.97,186.00L324.03,186.00L324.09,186.00L324.15,186.00L324.21,186.00L324.27,186.00L324.33,186.00L324.39,186.00L324.45,186.00L324.51,186.00L324.57,186.00L324.63,186.00L324.69,186.00L324.75,186.00" />
  <path d="M324.75,186.00L324.63,186.00L324.51,186.00L324.39,186.00L324.27,186.00L324.15,186.00L324.03,186.00L323.91,186.00L323.78,186.00L323.66,186.00L323.54,186.00L323.42,186.00L323.30,186.00L323.18,186.00L323.06,186.00L322.94,186.00L322.82,186.00L322.70,186.00L322.58,186.00L322.46,186.00L322.34,186.00L322.22,186.00L322.09,186.00L321.97,186.00L321.85,186.00L321.73,186.00L321.61,186.00L321.49,186.00L321.37,186.00L321.25,186.00" />
  <path d="M321.25,186.00L321.31,186.00L321.37,186.00L321.43,186.00L321.49,186.00L321.55,186.00L321.61,186.00L321.67,186.00L321.73,186.00L321.79,186.00L321.85,186.00L321.91,186.00L321.97,186.00L322.03,186.00L322.09,186.00L322.16,186.00L322.22,186.00L322.28,186.00L322.34,186.00L322.40,186.00L322.46,186.00L322.52,186.00L322.58,186.00L322.64,186.00L322.70,186.00L322.76,186.00L322.82,186.00L322.88,186.00L322.94,186.00L323.00,186.00" />
  <path d="M324.75,186.00L324.63,186.00L324.51,186.00L324.39,186.00L324.27,186.00L324.15,186.00L324.03,186.00L323.91,186.00L323.78,186.00L323.66,186.00L323.54,186.00L323.42,186.00L323.30,186.00L323.18,186.00L323.06,186.00L322.94,186.00L322.82,186.00L322.70,186.00L322.58,186.00L322.46,186.00L322.34,186.00L322.22,186.00L322.09,186.00L321.97,186.00L321.85,186.00L321.73,186.00L321.61,186.00L321.49,186.00L321.37,186.00L321.25,186.00" />
</g>
<g class="outer_visible" stroke="#000" stroke-width="0.50" fill="none" stroke-linecap="round" stroke-linejoin="round">
  <path d="M292.00,190.00L292.00,186.00" />
  <path d="M323.00,190.00L323.00,186.00" />
</g>
<g class="hard_visible" stroke="#000" stroke-width="0.7" fill="none" stroke-linecap="round" stroke-linejoin="round">
  <path d="M283.00,192.00L283.00,190.00" />
  <path d="M283.00,190.00L332.00,190.00" />
  <path d="M332.00,192.00L332.00,190.00" />
  <path d="M283.00,192.00L332.00,192.00" />
  <path d="M292.00,186.00L292.06,186.00L292.12,186.00L292.18,186.00L292.24,186.00L292.30,186.00L292.36,186.00L292.42,186.00L292.48,186.00L292.54,186.00L292.60,186.00L292.66,186.00L292.72,186.00L292.78,186.00L292.84,186.00L292.91,186.00L292.97,186.00L293.03,186.00L293.09,186.00L293.15,186.00L293.21,186.00L293.27,186.00L293.33,186.00L293.39,186.00L293.45,186.00L293.51,186.00L293.57,186.00L293.63,186.00L293.69,186.00L293.75,186.00" />
  <path d="M290.25,186.00L290.31,186.00L290.37,186.00L290.43,186.00L290.49,186.00L290.55,186.00L290.61,186.00L290.67,186.00L290.73,186.00L290.79,186.00L290.85,186.00L290.91,186.00L290.97,186.00L291.03,186.00L291.09,186.00L291.16,186.00L291.22,186.00L291.28,186.00L291.34,186.00L291.40,186.00L291.46,186.00L291.52,186.00L291.58,186.00L291.64,186.00L291.70,186.00L291.76,186.00L291.82,186.00L291.88,186.00L291.94,186.00L292.00,186.00" />
  <path d="M323.00,186.00L323.06,186.00L323.12,186.00L323.18,186.00L323.24,186.00L323.30,186.00L323.36,186.00L323.42,186.00L323.48,186.00L323.54,186.00L323.60,186.00L323.66,186.00L323.72,186.00L323.78,186.00L323.84,186.00L323.91,186.00L323.97,186.00L324.03,186.00L324.09,186.00L324.15,186.00L324.21,186.00L324.27,186.00L324.33,186.00L324.39,186.00L324.45,186.00L324.51,186.00L324.57,186.00L324.63,186.00L324.69,186.00L324.75,186.00" />
  <path d="M321.25,186.00L321.31,186.00L321.37,186.00L321.43,186.00L321.49,186.00L321.55,186.00L321.61,186.00L321.67,186.00L321.73,186.00L321.79,186.00L321.85,186.00L321.91,186.00L321.97,186.00L322.03,186.00L322.09,186.00L322.16,186.00L322.22,186.00L322.28,186.00L322.34,186.00L322.40,186.00L322.46,186.00L322.52,186.00L322.58,186.00L322.64,186.00L322.70,186.00L322.76,186.00L322.82,186.00L322.88,186.00L322.94,186.00L323.00,186.00" />
</g>
<g class="symmetry-axes" stroke="#000" stroke-width="0.13" fill="none" stroke-dasharray="8,2,1.5,2" stroke-linecap="round" opacity="0.5" vector-effect="non-scaling-stroke">
  <line x1="307.50" y1="181.36" x2="307.50" y2="196.64" />
</g>
<text x="213.0" y="141.0" font-family="monospace" font-size="3.5" fill="#666">RIGHT</text>
<g class="dimensions-right" stroke="#000" stroke-width="0.18" fill="none" stroke-linecap="round" vector-effect="non-scaling-stroke">
<line x1="283.00" y1="194.00" x2="283.00" y2="198.50" />
<line x1="332.00" y1="194.00" x2="332.00" y2="198.50" />
<line x1="283.00" y1="200.00" x2="332.00" y2="200.00" />
<polygon points="283.00,200.00 281.00,199.30 281.00,200.70" fill="#000" />
<polygon points="332.00,200.00 334.00,200.70 334.00,199.30" fill="#000" />
<text x="307.50" y="199.00" text-anchor="middle" font-family="sans-serif" font-size="3" fill="#000">98</text>
<line x1="330.00" y1="186.00" x2="341.50" y2="186.00" />
<line x1="330.00" y1="192.00" x2="341.50" y2="192.00" />
<line x1="340.00" y1="186.00" x2="340.00" y2="192.00" />
<polygon points="340.00,186.00 340.70,184.00 339.30,184.00" fill="#000" />
<polygon points="340.00,192.00 339.30,194.00 340.70,194.00" fill="#000" />
<text x="338.50" y="189.00" text-anchor="middle" font-family="sans-serif" font-size="3" fill="#000" transform="rotate(-90,338.50,189.00)">12</text>
</g>
<g class="datums-right">
  <polygon points="293.75,192.00 296.75,192.00 295.25,194.50" fill="#000" stroke="#000" stroke-width="0.25" />
  <line x1="295.25" y1="194.50" x2="295.25" y2="197.50" stroke="#000" stroke-width="0.3" />
  <rect x="293.00" y="197.50" width="4.5" height="4.5" fill="white" stroke="#000" stroke-width="0.35" />
  <text x="295.25" y="200.74" text-anchor="middle" font-family="sans-serif" font-size="3.5" font-weight="bold" fill="#000">A</text>
  <polygon points="283.00,188.70 283.00,191.70 280.50,190.20" fill="#000" stroke="#000" stroke-width="0.25" />
  <line x1="280.50" y1="190.20" x2="277.50" y2="190.20" stroke="#000" stroke-width="0.3" />
  <rect x="273.00" y="187.95" width="4.5" height="4.5" fill="white" stroke="#000" stroke-width="0.35" />
  <text x="275.25" y="191.19" text-anchor="middle" font-family="sans-serif" font-size="3.5" font-weight="bold" fill="#000">C</text>
</g>
</g>

<g class="drawing-view drawing-view-iso" id="drawing-view-iso" data-view-id="iso" data-view-kind="isometric" data-view-label="ISOMETRIC" data-region-ref="drawing-view-iso">
<g class="smooth_visible" stroke="#000" stroke-width="0.35" fill="none" stroke-linecap="round" stroke-linejoin="round">
  <path d="M282.57,68.20L281.16,67.39" />
  <path d="M282.57,108.21L282.57,68.20" />
  <path d="M288.40,94.86L288.26,94.80L288.11,94.78L287.96,94.78L287.81,94.82L287.67,94.87L287.53,94.94L287.40,95.02L287.28,95.11L287.17,95.21L287.06,95.32L286.96,95.43L286.86,95.55L286.77,95.67L286.69,95.80L286.61,95.93L286.54,96.07L286.48,96.21L286.43,96.35L286.38,96.49L286.34,96.64L286.31,96.79L286.29,96.94L286.29,97.09L286.29,97.25L286.32,97.40L286.37,97.54L286.43,97.68L286.53,97.80L286.65,97.89" />
  <path d="M326.94,72.61L326.80,72.55L326.65,72.53L326.49,72.53L326.35,72.57L326.20,72.62L326.07,72.69L325.94,72.77L325.82,72.86L325.70,72.96L325.59,73.07L325.49,73.18L325.40,73.30L325.31,73.42L325.23,73.55L325.15,73.68L325.08,73.82L325.02,73.96L324.96,74.10L324.92,74.24L324.88,74.39L324.85,74.54L324.83,74.69L324.82,74.84L324.83,75.00L324.86,75.15L324.90,75.29L324.97,75.43L325.07,75.55L325.19,75.64" />
  <path d="M325.35,72.90L325.35,72.88L325.35,72.86L325.35,72.84L325.35,72.83L325.35,72.81L325.35,72.79L325.35,72.77L325.34,72.75L325.34,72.74L325.33,72.72L325.33,72.70L325.33,72.68L325.32,72.67L325.31,72.65L325.31,72.63L325.30,72.62L325.29,72.60L325.28,72.58L325.27,72.57L325.26,72.55L325.25,72.54L325.24,72.52L325.23,72.51L325.22,72.50L325.21,72.48L325.19,72.47L325.18,72.46L325.16,72.45L325.15,72.44" />
  <path d="M325.15,72.44L325.07,72.41L324.98,72.39L324.89,72.40L324.81,72.42L324.73,72.45L324.65,72.49L324.58,72.53L324.51,72.59L324.44,72.64L324.38,72.70L324.32,72.77L324.27,72.84L324.22,72.91L324.17,72.98L324.13,73.06L324.09,73.13L324.05,73.21L324.02,73.29L323.99,73.38L323.97,73.46L323.95,73.55L323.94,73.63L323.94,73.72L323.94,73.81L323.96,73.89L323.98,73.97L324.02,74.05L324.08,74.12L324.15,74.17" />
  <path d="M324.15,74.17L324.21,74.20L324.28,74.22L324.35,74.22L324.41,74.21L324.48,74.20L324.55,74.17L324.61,74.14L324.67,74.11L324.73,74.07L324.78,74.03L324.83,73.99L324.88,73.94L324.93,73.89L324.98,73.84L325.02,73.78L325.06,73.73L325.10,73.67L325.14,73.61L325.17,73.55L325.20,73.49L325.23,73.43L325.26,73.37L325.28,73.30L325.30,73.24L325.32,73.17L325.33,73.10L325.35,73.04L325.35,72.97L325.35,72.90" />
  <path d="M288.40,69.55L288.26,69.49L288.11,69.46L287.96,69.47L287.81,69.51L287.67,69.56L287.53,69.63L287.40,69.71L287.28,69.80L287.17,69.90L287.06,70.01L286.96,70.12L286.86,70.24L286.77,70.36L286.69,70.49L286.61,70.62L286.54,70.76L286.48,70.90L286.43,71.04L286.38,71.18L286.34,71.33L286.31,71.48L286.29,71.63L286.29,71.78L286.29,71.93L286.32,72.08L286.37,72.23L286.43,72.37L286.53,72.48L286.65,72.58" />
  <path d="M326.94,47.30L326.80,47.24L326.65,47.21L326.49,47.22L326.35,47.26L326.20,47.31L326.07,47.38L325.94,47.46L325.82,47.55L325.70,47.65L325.59,47.76L325.49,47.87L325.40,47.99L325.31,48.11L325.23,48.24L325.15,48.37L325.08,48.51L325.02,48.65L324.96,48.79L324.92,48.93L324.88,49.08L324.85,49.23L324.83,49.38L324.82,49.53L324.83,49.69L324.86,49.84L324.90,49.98L324.97,50.12L325.07,50.23L325.19,50.33" />
  <path d="M282.57,68.20L333.84,38.61" />
  <path d="M291.06,94.33L291.06,94.31L291.06,94.29L291.06,94.28L291.06,94.26L291.06,94.24L291.05,94.22L291.05,94.20L291.05,94.19L291.04,94.17L291.04,94.15L291.04,94.13L291.03,94.12L291.03,94.10L291.02,94.08L291.01,94.06L291.01,94.05L291.00,94.03L290.99,94.02L290.98,94.00L290.97,93.98L290.96,93.97L290.95,93.96L290.94,93.94L290.92,93.93L290.91,93.92L290.90,93.90L290.88,93.89L290.87,93.88L290.85,93.87" />
  <path d="M290.85,93.87L290.77,93.84L290.69,93.83L290.60,93.83L290.52,93.85L290.43,93.88L290.36,93.92L290.28,93.97L290.21,94.02L290.15,94.08L290.09,94.14L290.03,94.20L289.97,94.27L289.92,94.34L289.87,94.41L289.83,94.49L289.79,94.57L289.76,94.65L289.72,94.73L289.70,94.81L289.68,94.89L289.66,94.98L289.65,95.06L289.65,95.15L289.65,95.24L289.66,95.32L289.69,95.41L289.73,95.48L289.78,95.55L289.85,95.61" />
  <path d="M289.85,95.61L289.92,95.63L289.98,95.65L290.05,95.65L290.12,95.64L290.19,95.63L290.25,95.61L290.31,95.58L290.37,95.54L290.43,95.51L290.49,95.46L290.54,95.42L290.59,95.37L290.64,95.32L290.68,95.27L290.73,95.22L290.77,95.16L290.81,95.11L290.84,95.05L290.88,94.99L290.91,94.93L290.94,94.86L290.96,94.80L290.99,94.74L291.01,94.67L291.03,94.60L291.04,94.54L291.05,94.47L291.06,94.40L291.06,94.33" />
  <path d="M310.15,75.14L303.79,78.82" />
  <path d="M310.15,75.14L310.15,71.06" />
  <path d="M303.79,78.82L303.79,77.18" />
  <path d="M310.15,71.06L308.74,71.88" />
  <path d="M326.77,73.71L326.77,73.70L326.77,73.68L326.77,73.66L326.77,73.64L326.76,73.62L326.76,73.61L326.76,73.59L326.76,73.57L326.75,73.55L326.75,73.53L326.74,73.52L326.74,73.50L326.73,73.48L326.73,73.47L326.72,73.45L326.71,73.43L326.71,73.42L326.70,73.40L326.69,73.38L326.68,73.37L326.67,73.35L326.66,73.34L326.65,73.33L326.63,73.31L326.62,73.30L326.61,73.29L326.59,73.28L326.58,73.27L326.56,73.26" />
  <path d="M326.56,73.26L326.48,73.22L326.40,73.21L326.31,73.21L326.22,73.23L326.14,73.26L326.07,73.30L325.99,73.35L325.92,73.40L325.86,73.46L325.79,73.52L325.74,73.59L325.68,73.65L325.63,73.72L325.58,73.80L325.54,73.87L325.50,73.95L325.47,74.03L325.43,74.11L325.41,74.19L325.38,74.28L325.37,74.36L325.36,74.45L325.35,74.54L325.36,74.62L325.37,74.71L325.40,74.79L325.44,74.87L325.49,74.94L325.56,74.99" />
  <path d="M325.56,74.99L325.62,75.02L325.69,75.03L325.76,75.04L325.83,75.03L325.90,75.01L325.96,74.99L326.02,74.96L326.08,74.93L326.14,74.89L326.20,74.85L326.25,74.80L326.30,74.76L326.35,74.71L326.39,74.65L326.43,74.60L326.48,74.55L326.51,74.49L326.55,74.43L326.58,74.37L326.62,74.31L326.65,74.25L326.67,74.18L326.70,74.12L326.72,74.05L326.73,73.99L326.75,73.92L326.76,73.85L326.77,73.78L326.77,73.71" />
  <path d="M291.06,72.29L291.06,72.27L291.06,72.25L291.06,72.23L291.06,72.21L291.06,72.20L291.05,72.18L291.05,72.16L291.05,72.14L291.04,72.12L291.04,72.11L291.04,72.09L291.03,72.07L291.03,72.05L291.02,72.04L291.01,72.02L291.01,72.00L291.00,71.99L290.99,71.97L290.98,71.95L290.97,71.94L290.96,71.92L290.95,71.91L290.94,71.90L290.92,71.88L290.91,71.87L290.90,71.86L290.88,71.85L290.87,71.84L290.85,71.83" />
  <path d="M290.85,71.83L290.77,71.79L290.69,71.78L290.60,71.79L290.52,71.81L290.43,71.84L290.36,71.88L290.28,71.92L290.21,71.97L290.15,72.03L290.09,72.09L290.03,72.16L289.97,72.22L289.92,72.29L289.87,72.37L289.83,72.44L289.79,72.52L289.76,72.60L289.72,72.68L289.70,72.76L289.68,72.85L289.66,72.93L289.65,73.02L289.65,73.11L289.65,73.19L289.66,73.28L289.69,73.36L289.73,73.44L289.78,73.51L289.85,73.56" />
  <path d="M289.85,73.56L289.92,73.59L289.98,73.60L290.05,73.61L290.12,73.60L290.19,73.58L290.25,73.56L290.31,73.53L290.37,73.50L290.43,73.46L290.49,73.42L290.54,73.37L290.59,73.33L290.64,73.28L290.68,73.23L290.73,73.17L290.77,73.12L290.81,73.06L290.84,73.00L290.88,72.94L290.91,72.88L290.94,72.82L290.96,72.75L290.99,72.69L291.01,72.62L291.03,72.56L291.04,72.49L291.05,72.42L291.06,72.35L291.06,72.29" />
  <path d="M326.77,51.67L326.77,51.65L326.77,51.63L326.77,51.61L326.77,51.60L326.76,51.58L326.76,51.56L326.76,51.54L326.76,51.52L326.75,51.51L326.75,51.49L326.74,51.47L326.74,51.45L326.73,51.44L326.73,51.42L326.72,51.40L326.71,51.39L326.71,51.37L326.70,51.35L326.69,51.34L326.68,51.32L326.67,51.31L326.66,51.29L326.65,51.28L326.63,51.27L326.62,51.25L326.61,51.24L326.59,51.23L326.58,51.22L326.56,51.21" />
  <path d="M326.56,51.21L326.48,51.18L326.40,51.16L326.31,51.17L326.22,51.19L326.14,51.22L326.07,51.26L325.99,51.31L325.92,51.36L325.86,51.41L325.79,51.48L325.74,51.54L325.68,51.61L325.63,51.68L325.58,51.75L325.54,51.83L325.50,51.90L325.47,51.98L325.43,52.06L325.41,52.15L325.38,52.23L325.37,52.32L325.36,52.40L325.35,52.49L325.36,52.58L325.37,52.66L325.40,52.75L325.44,52.82L325.49,52.89L325.56,52.94" />
  <path d="M325.56,52.94L325.62,52.97L325.69,52.99L325.76,52.99L325.83,52.98L325.90,52.97L325.96,52.94L326.02,52.92L326.08,52.88L326.14,52.84L326.20,52.80L326.25,52.76L326.30,52.71L326.35,52.66L326.39,52.61L326.43,52.56L326.48,52.50L326.51,52.44L326.55,52.39L326.58,52.33L326.62,52.26L326.65,52.20L326.67,52.14L326.70,52.07L326.72,52.01L326.73,51.94L326.75,51.87L326.76,51.81L326.77,51.74L326.77,51.67" />
  <path d="M310.15,75.14L308.74,74.33" />
  <path d="M303.79,78.82L302.37,78.00" />
  <path d="M310.15,71.06L308.74,70.24" />
</g>
<g class="outer_visible" stroke="#000" stroke-width="0.50" fill="none" stroke-linecap="round" stroke-linejoin="round">
  <path d="M288.76,95.66L285.93,94.02" />
  <path d="M327.30,73.41L324.47,71.78" />
  <path d="M288.76,70.35L285.93,68.71" />
  <path d="M327.30,48.10L324.47,46.46" />
</g>
<g class="hard_visible" stroke="#000" stroke-width="0.7" fill="none" stroke-linecap="round" stroke-linejoin="round">
  <path d="M282.57,108.21L281.16,107.39" />
  <path d="M281.16,107.39L281.16,67.39" />
  <path d="M282.57,108.21L333.84,78.61" />
  <path d="M333.84,78.61L332.43,77.80" />
  <path d="M281.16,107.39L332.43,77.80" />
  <path d="M281.16,67.39L332.43,37.79" />
  <path d="M332.43,77.80L332.43,37.79" />
  <path d="M288.76,95.66L288.76,95.63L288.76,95.59L288.76,95.56L288.76,95.53L288.75,95.50L288.75,95.47L288.75,95.44L288.74,95.41L288.73,95.37L288.73,95.34L288.72,95.31L288.71,95.28L288.70,95.25L288.69,95.22L288.68,95.19L288.67,95.16L288.65,95.13L288.64,95.11L288.62,95.08L288.60,95.05L288.59,95.03L288.57,95.00L288.55,94.98L288.52,94.95L288.50,94.93L288.48,94.91L288.45,94.89L288.43,94.87L288.40,94.86" />
  <path d="M286.65,97.89L286.76,97.94L286.88,97.96L287.00,97.97L287.12,97.96L287.23,97.93L287.35,97.89L287.46,97.84L287.56,97.78L287.66,97.71L287.76,97.64L287.85,97.56L287.94,97.48L288.02,97.39L288.10,97.30L288.18,97.21L288.25,97.11L288.32,97.01L288.38,96.91L288.44,96.81L288.49,96.70L288.55,96.59L288.59,96.48L288.63,96.37L288.67,96.25L288.70,96.13L288.73,96.02L288.75,95.90L288.76,95.78L288.76,95.66" />
  <path d="M289.65,93.51L289.65,93.50L289.64,93.48L289.64,93.46L289.64,93.44L289.64,93.42L289.64,93.41L289.64,93.39L289.63,93.37L289.63,93.35L289.63,93.33L289.62,93.32L289.62,93.30L289.61,93.28L289.60,93.27L289.60,93.25L289.59,93.23L289.58,93.22L289.57,93.20L289.57,93.18L289.56,93.17L289.55,93.15L289.53,93.14L289.52,93.13L289.51,93.11L289.50,93.10L289.48,93.09L289.47,93.08L289.45,93.07L289.44,93.06" />
  <path d="M289.44,93.06L289.36,93.02L289.27,93.01L289.19,93.01L289.10,93.03L289.02,93.06L288.94,93.10L288.87,93.15L288.80,93.20L288.73,93.26L288.67,93.32L288.61,93.39L288.56,93.45L288.51,93.52L288.46,93.60L288.42,93.67L288.38,93.75L288.34,93.83L288.31,93.91L288.28,93.99L288.26,94.08L288.25,94.16L288.23,94.25L288.23,94.34L288.24,94.42L288.25,94.51L288.28,94.59L288.32,94.67L288.37,94.74L288.44,94.79" />
  <path d="M288.44,94.79L288.50,94.82L288.57,94.83L288.64,94.84L288.71,94.83L288.77,94.81L288.84,94.79L288.90,94.76L288.96,94.73L289.02,94.69L289.07,94.65L289.12,94.60L289.17,94.56L289.22,94.51L289.27,94.45L289.31,94.40L289.35,94.35L289.39,94.29L289.43,94.23L289.46,94.17L289.49,94.11L289.52,94.05L289.55,93.98L289.57,93.92L289.59,93.85L289.61,93.79L289.63,93.72L289.64,93.65L289.64,93.58L289.65,93.51" />
  <path d="M308.74,74.33L302.37,78.00" />
  <path d="M308.74,74.33L308.74,70.24" />
  <path d="M302.37,78.00L302.37,73.92" />
  <path d="M308.74,70.24L302.37,73.92" />
  <path d="M327.30,73.41L327.30,73.38L327.30,73.34L327.30,73.31L327.29,73.28L327.29,73.25L327.29,73.22L327.28,73.19L327.28,73.16L327.27,73.12L327.26,73.09L327.26,73.06L327.25,73.03L327.24,73.00L327.23,72.97L327.22,72.94L327.20,72.91L327.19,72.88L327.18,72.86L327.16,72.83L327.14,72.80L327.12,72.78L327.10,72.75L327.08,72.73L327.06,72.70L327.04,72.68L327.01,72.66L326.99,72.64L326.96,72.62L326.94,72.61" />
  <path d="M325.19,75.64L325.30,75.69L325.41,75.71L325.53,75.72L325.65,75.71L325.77,75.68L325.88,75.64L325.99,75.59L326.10,75.53L326.20,75.46L326.30,75.39L326.39,75.31L326.47,75.23L326.56,75.14L326.64,75.05L326.71,74.96L326.79,74.86L326.85,74.76L326.92,74.66L326.98,74.56L327.03,74.45L327.08,74.34L327.13,74.23L327.17,74.12L327.21,74.00L327.24,73.89L327.26,73.77L327.28,73.65L327.29,73.53L327.30,73.41" />
  <path d="M289.65,71.47L289.65,71.45L289.64,71.43L289.64,71.41L289.64,71.40L289.64,71.38L289.64,71.36L289.64,71.34L289.63,71.32L289.63,71.31L289.63,71.29L289.62,71.27L289.62,71.25L289.61,71.24L289.60,71.22L289.60,71.20L289.59,71.19L289.58,71.17L289.57,71.15L289.57,71.14L289.56,71.12L289.55,71.11L289.53,71.09L289.52,71.08L289.51,71.07L289.50,71.05L289.48,71.04L289.47,71.03L289.45,71.02L289.44,71.01" />
  <path d="M289.44,71.01L289.36,70.98L289.27,70.96L289.19,70.97L289.10,70.99L289.02,71.02L288.94,71.06L288.87,71.11L288.80,71.16L288.73,71.21L288.67,71.28L288.61,71.34L288.56,71.41L288.51,71.48L288.46,71.55L288.42,71.63L288.38,71.70L288.34,71.78L288.31,71.86L288.28,71.95L288.26,72.03L288.25,72.12L288.23,72.20L288.23,72.29L288.24,72.38L288.25,72.46L288.28,72.55L288.32,72.62L288.37,72.69L288.44,72.74" />
  <path d="M288.44,72.74L288.50,72.77L288.57,72.79L288.64,72.79L288.71,72.78L288.77,72.77L288.84,72.74L288.90,72.72L288.96,72.68L289.02,72.64L289.07,72.60L289.12,72.56L289.17,72.51L289.22,72.46L289.27,72.41L289.31,72.36L289.35,72.30L289.39,72.24L289.43,72.19L289.46,72.13L289.49,72.06L289.52,72.00L289.55,71.94L289.57,71.87L289.59,71.81L289.61,71.74L289.63,71.67L289.64,71.61L289.64,71.54L289.65,71.47" />
  <path d="M288.76,70.35L288.76,70.31L288.76,70.28L288.76,70.25L288.76,70.22L288.75,70.19L288.75,70.16L288.75,70.12L288.74,70.09L288.73,70.06L288.73,70.03L288.72,70.00L288.71,69.97L288.70,69.94L288.69,69.91L288.68,69.88L288.67,69.85L288.65,69.82L288.64,69.79L288.62,69.77L288.60,69.74L288.59,69.71L288.57,69.69L288.55,69.67L288.52,69.64L288.50,69.62L288.48,69.60L288.45,69.58L288.43,69.56L288.40,69.55" />
  <path d="M286.65,72.58L286.76,72.63L286.88,72.65L287.00,72.66L287.12,72.65L287.23,72.62L287.35,72.58L287.46,72.53L287.56,72.47L287.66,72.40L287.76,72.33L287.85,72.25L287.94,72.17L288.02,72.08L288.10,71.99L288.18,71.90L288.25,71.80L288.32,71.70L288.38,71.60L288.44,71.49L288.49,71.39L288.55,71.28L288.59,71.17L288.63,71.05L288.67,70.94L288.70,70.82L288.73,70.71L288.75,70.59L288.76,70.47L288.76,70.35" />
  <path d="M325.35,50.85L325.35,50.83L325.35,50.82L325.35,50.80L325.35,50.78L325.35,50.76L325.35,50.74L325.35,50.73L325.34,50.71L325.34,50.69L325.33,50.67L325.33,50.65L325.33,50.64L325.32,50.62L325.31,50.60L325.31,50.59L325.30,50.57L325.29,50.55L325.28,50.54L325.27,50.52L325.26,50.51L325.25,50.49L325.24,50.48L325.23,50.46L325.22,50.45L325.21,50.44L325.19,50.43L325.18,50.41L325.16,50.40L325.15,50.39" />
  <path d="M325.15,50.39L325.07,50.36L324.98,50.35L324.89,50.35L324.81,50.37L324.73,50.40L324.65,50.44L324.58,50.49L324.51,50.54L324.44,50.60L324.38,50.66L324.32,50.72L324.27,50.79L324.22,50.86L324.17,50.93L324.13,51.01L324.09,51.09L324.05,51.17L324.02,51.25L323.99,51.33L323.97,51.41L323.95,51.50L323.94,51.59L323.94,51.67L323.94,51.76L323.96,51.85L323.98,51.93L324.02,52.01L324.08,52.07L324.15,52.13" />
  <path d="M324.15,52.13L324.21,52.15L324.28,52.17L324.35,52.17L324.41,52.17L324.48,52.15L324.55,52.13L324.61,52.10L324.67,52.06L324.73,52.03L324.78,51.99L324.83,51.94L324.88,51.89L324.93,51.84L324.98,51.79L325.02,51.74L325.06,51.68L325.10,51.63L325.14,51.57L325.17,51.51L325.20,51.45L325.23,51.39L325.26,51.32L325.28,51.26L325.30,51.19L325.32,51.13L325.33,51.06L325.35,50.99L325.35,50.92L325.35,50.85" />
  <path d="M327.30,48.10L327.30,48.07L327.30,48.03L327.30,48.00L327.29,47.97L327.29,47.94L327.29,47.91L327.28,47.88L327.28,47.84L327.27,47.81L327.26,47.78L327.26,47.75L327.25,47.72L327.24,47.69L327.23,47.66L327.22,47.63L327.20,47.60L327.19,47.57L327.18,47.55L327.16,47.52L327.14,47.49L327.12,47.46L327.10,47.44L327.08,47.42L327.06,47.39L327.04,47.37L327.01,47.35L326.99,47.33L326.96,47.31L326.94,47.30" />
  <path d="M325.19,50.33L325.30,50.38L325.41,50.40L325.53,50.41L325.65,50.40L325.77,50.37L325.88,50.33L325.99,50.28L326.10,50.22L326.20,50.15L326.30,50.08L326.39,50.00L326.47,49.92L326.56,49.83L326.64,49.74L326.71,49.65L326.79,49.55L326.85,49.45L326.92,49.35L326.98,49.25L327.03,49.14L327.08,49.03L327.13,48.92L327.17,48.80L327.21,48.69L327.24,48.57L327.26,48.46L327.28,48.34L327.29,48.22L327.30,48.10" />
  <path d="M333.84,38.61L332.43,37.79" />
  <path d="M333.84,78.61L333.84,38.61" />
  <path d="M303.79,77.18L303.79,74.74" />
  <path d="M308.74,71.88L303.79,74.74" />
  <path d="M285.93,94.02L285.93,93.99L285.93,93.96L285.93,93.93L285.93,93.90L285.93,93.87L285.92,93.83L285.92,93.80L285.91,93.77L285.91,93.74L285.90,93.71L285.89,93.68L285.88,93.65L285.87,93.62L285.86,93.59L285.85,93.56L285.84,93.53L285.82,93.50L285.81,93.47L285.79,93.45L285.78,93.42L285.76,93.39L285.74,93.37L285.72,93.34L285.70,93.32L285.67,93.30L285.65,93.28L285.62,93.26L285.60,93.24L285.57,93.22" />
  <path d="M285.57,93.22L285.43,93.17L285.28,93.14L285.13,93.15L284.98,93.18L284.84,93.24L284.70,93.31L284.57,93.39L284.45,93.48L284.34,93.58L284.23,93.69L284.13,93.80L284.03,93.92L283.94,94.04L283.86,94.17L283.78,94.30L283.71,94.44L283.65,94.57L283.60,94.72L283.55,94.86L283.51,95.01L283.48,95.16L283.46,95.31L283.46,95.46L283.47,95.61L283.49,95.76L283.54,95.91L283.61,96.04L283.70,96.16L283.82,96.25" />
  <path d="M283.82,96.25L283.93,96.30L284.05,96.33L284.17,96.34L284.29,96.32L284.40,96.30L284.52,96.26L284.63,96.21L284.73,96.15L284.83,96.08L284.93,96.01L285.02,95.93L285.11,95.85L285.19,95.76L285.27,95.67L285.35,95.58L285.42,95.48L285.49,95.38L285.55,95.28L285.61,95.17L285.67,95.07L285.72,94.96L285.76,94.85L285.80,94.73L285.84,94.62L285.87,94.50L285.90,94.38L285.92,94.26L285.93,94.15L285.93,94.02" />
  <path d="M303.79,74.74L302.37,73.92" />
  <path d="M324.47,71.78L324.47,71.74L324.47,71.71L324.47,71.68L324.47,71.65L324.46,71.62L324.46,71.59L324.45,71.55L324.45,71.52L324.44,71.49L324.44,71.46L324.43,71.43L324.42,71.40L324.41,71.37L324.40,71.34L324.39,71.31L324.38,71.28L324.36,71.25L324.35,71.22L324.33,71.20L324.31,71.17L324.30,71.14L324.28,71.12L324.26,71.09L324.23,71.07L324.21,71.05L324.19,71.03L324.16,71.01L324.14,70.99L324.11,70.97" />
  <path d="M324.11,70.97L323.97,70.92L323.82,70.89L323.67,70.90L323.52,70.93L323.38,70.99L323.24,71.06L323.11,71.14L322.99,71.23L322.87,71.33L322.77,71.44L322.66,71.55L322.57,71.67L322.48,71.79L322.40,71.92L322.32,72.05L322.25,72.19L322.19,72.33L322.13,72.47L322.09,72.61L322.05,72.76L322.02,72.91L322.00,73.06L322.00,73.21L322.00,73.36L322.03,73.51L322.07,73.66L322.14,73.79L322.24,73.91L322.36,74.01" />
  <path d="M322.36,74.01L322.47,74.05L322.59,74.08L322.71,74.09L322.83,74.07L322.94,74.05L323.06,74.01L323.16,73.96L323.27,73.90L323.37,73.83L323.47,73.76L323.56,73.68L323.65,73.60L323.73,73.51L323.81,73.42L323.89,73.33L323.96,73.23L324.02,73.13L324.09,73.03L324.15,72.92L324.20,72.82L324.25,72.71L324.30,72.60L324.34,72.48L324.38,72.37L324.41,72.25L324.44,72.13L324.45,72.02L324.47,71.90L324.47,71.78" />
  <path d="M285.93,68.71L285.93,68.68L285.93,68.65L285.93,68.62L285.93,68.59L285.93,68.55L285.92,68.52L285.92,68.49L285.91,68.46L285.91,68.43L285.90,68.40L285.89,68.37L285.88,68.34L285.87,68.31L285.86,68.28L285.85,68.25L285.84,68.22L285.82,68.19L285.81,68.16L285.79,68.13L285.78,68.11L285.76,68.08L285.74,68.06L285.72,68.03L285.70,68.01L285.67,67.99L285.65,67.97L285.62,67.95L285.60,67.93L285.57,67.91" />
  <path d="M285.57,67.91L285.43,67.85L285.28,67.83L285.13,67.84L284.98,67.87L284.84,67.93L284.70,68.00L284.57,68.08L284.45,68.17L284.34,68.27L284.23,68.37L284.13,68.49L284.03,68.61L283.94,68.73L283.86,68.86L283.78,68.99L283.71,69.12L283.65,69.26L283.60,69.41L283.55,69.55L283.51,69.70L283.48,69.85L283.46,70.00L283.46,70.15L283.47,70.30L283.49,70.45L283.54,70.60L283.61,70.73L283.70,70.85L283.82,70.94" />
  <path d="M283.82,70.94L283.93,70.99L284.05,71.02L284.17,71.02L284.29,71.01L284.40,70.98L284.52,70.94L284.63,70.89L284.73,70.83L284.83,70.77L284.93,70.70L285.02,70.62L285.11,70.54L285.19,70.45L285.27,70.36L285.35,70.27L285.42,70.17L285.49,70.07L285.55,69.97L285.61,69.86L285.67,69.75L285.72,69.65L285.76,69.53L285.80,69.42L285.84,69.31L285.87,69.19L285.90,69.07L285.92,68.95L285.93,68.83L285.93,68.71" />
  <path d="M324.47,46.46L324.47,46.43L324.47,46.40L324.47,46.37L324.47,46.34L324.46,46.31L324.46,46.27L324.45,46.24L324.45,46.21L324.44,46.18L324.44,46.15L324.43,46.12L324.42,46.09L324.41,46.06L324.40,46.03L324.39,46.00L324.38,45.97L324.36,45.94L324.35,45.91L324.33,45.88L324.31,45.86L324.30,45.83L324.28,45.81L324.26,45.78L324.23,45.76L324.21,45.74L324.19,45.72L324.16,45.70L324.14,45.68L324.11,45.66" />
  <path d="M324.11,45.66L323.97,45.60L323.82,45.58L323.67,45.59L323.52,45.62L323.38,45.68L323.24,45.75L323.11,45.83L322.99,45.92L322.87,46.02L322.77,46.12L322.66,46.24L322.57,46.36L322.48,46.48L322.40,46.61L322.32,46.74L322.25,46.87L322.19,47.01L322.13,47.16L322.09,47.30L322.05,47.45L322.02,47.60L322.00,47.75L322.00,47.90L322.00,48.05L322.03,48.20L322.07,48.35L322.14,48.48L322.24,48.60L322.36,48.69" />
  <path d="M322.36,48.69L322.47,48.74L322.59,48.77L322.71,48.78L322.83,48.76L322.94,48.74L323.06,48.69L323.16,48.64L323.27,48.59L323.37,48.52L323.47,48.45L323.56,48.37L323.65,48.29L323.73,48.20L323.81,48.11L323.89,48.02L323.96,47.92L324.02,47.82L324.09,47.72L324.15,47.61L324.20,47.51L324.25,47.40L324.30,47.28L324.34,47.17L324.38,47.06L324.41,46.94L324.44,46.82L324.45,46.70L324.47,46.58L324.47,46.46" />
</g>
<text x="213.0" y="25.0" font-family="monospace" font-size="3.5" fill="#666">ISO</text>
</g>
<rect x="15" y="247" width="390" height="35" fill="#fafafa" stroke="black" stroke-width="0.5" />
<line x1="235" y1="247" x2="235" y2="282" stroke="black" stroke-width="0.35" />
<line x1="235" y1="255.8" x2="405" y2="255.8" stroke="black" stroke-width="0.25" />
<line x1="235" y1="264.5" x2="405" y2="264.5" stroke="black" stroke-width="0.25" />
<line x1="235" y1="273.2" x2="405" y2="273.2" stroke="black" stroke-width="0.25" />
<line x1="320.0" y1="247" x2="320.0" y2="282" stroke="black" stroke-width="0.25" />
<text x="237.0" y="250.5" font-family="sans-serif" font-size="2" fill="#888" letter-spacing="0.3">PART NAME</text>
<text x="237.0" y="254.2" font-family="sans-serif" font-size="4.5" font-weight="bold">PCB Mount Plate</text>
<text x="322.0" y="250.5" font-family="sans-serif" font-size="2" fill="#888" letter-spacing="0.3">DRAWING NO.</text>
<text x="322.0" y="254.2" font-family="sans-serif" font-size="4.5" font-weight="bold">PCB-MOUNT-PLATE-A</text>
<text x="237.0" y="259.2" font-family="sans-serif" font-size="2" fill="#888" letter-spacing="0.3">MATERIAL</text>
<text x="237.0" y="263.0" font-family="sans-serif" font-size="3.5" font-weight="normal">AL6061</text>
<text x="322.0" y="259.2" font-family="sans-serif" font-size="2" fill="#888" letter-spacing="0.3">SCALE</text>
<text x="322.0" y="263.0" font-family="sans-serif" font-size="3.5" font-weight="normal">1:2</text>
<text x="237.0" y="268.0" font-family="sans-serif" font-size="2" fill="#888" letter-spacing="0.3">TOLERANCE</text>
<text x="237.0" y="271.8" font-family="sans-serif" font-size="3.5" font-weight="normal">KS B 0401:2014-m</text>
<text x="322.0" y="268.0" font-family="sans-serif" font-size="2" fill="#888" letter-spacing="0.3">DATE</text>
<text x="322.0" y="271.8" font-family="sans-serif" font-size="3.5" font-weight="normal">2026-04-27</text>
<text x="237.0" y="276.8" font-family="sans-serif" font-size="2" fill="#888" letter-spacing="0.3">DESIGNED BY</text>
<text x="237.0" y="280.5" font-family="sans-serif" font-size="3.5" font-weight="normal">-</text>
<text x="322.0" y="276.8" font-family="sans-serif" font-size="2" fill="#888" letter-spacing="0.3">SIZE / SHEET</text>
<text x="322.0" y="280.5" font-family="sans-serif" font-size="3.5" font-weight="normal">A3</text>
<g class="projection-symbol" transform="translate(387,277.625)">
<line x1="0" y1="-4.0" x2="0" y2="4.0" stroke="black" stroke-width="0.35" />
<line x1="0" y1="-1.6" x2="4.8" y2="-4.0" stroke="black" stroke-width="0.35" />
<line x1="0" y1="1.6" x2="4.8" y2="4.0" stroke="black" stroke-width="0.35" />
<line x1="4.8" y1="-4.0" x2="4.8" y2="4.0" stroke="black" stroke-width="0.35" />
<line x1="-1" y1="0" x2="5.8" y2="0" stroke="black" stroke-width="0.13" stroke-dasharray="2,1" />
<circle cx="8.4" cy="0" r="4.0" fill="none" stroke="black" stroke-width="0.35" />
<circle cx="8.4" cy="0" r="1.6" fill="none" stroke="black" stroke-width="0.35" />
<line x1="3.40" y1="0" x2="13.4" y2="0" stroke="black" stroke-width="0.13" stroke-dasharray="2,1" />
<line x1="8.4" y1="-5.0" x2="8.4" y2="5.0" stroke="black" stroke-width="0.13" stroke-dasharray="2,1" />
</g>
<text x="322.0" y="276.8" font-family="monospace" font-size="1.8" fill="#999">BBox: 145 x 98 x 12 mm</text>
<line x1="19" y1="277" x2="29" y2="277" stroke="#000" stroke-width="0.7" stroke-linecap="round" />
<text x="31" y="277.8" font-family="monospace" font-size="2" fill="#666">Visible</text>
<line x1="51" y1="277" x2="61" y2="277" stroke="#000" stroke-width="0.30" stroke-linecap="round" stroke-dasharray="4,2" />
<text x="63" y="277.8" font-family="monospace" font-size="2" fill="#666">Hidden</text>
<line x1="83" y1="277" x2="93" y2="277" stroke="#000" stroke-width="0.18" stroke-linecap="round" stroke-dasharray="8,2,1.5,2" />
<text x="95" y="277.8" font-family="monospace" font-size="2" fill="#666">Center</text>
<line x1="115" y1="277" x2="125" y2="277" stroke="#000" stroke-width="0.18" stroke-linecap="round" />
<text x="127" y="277.8" font-family="monospace" font-size="2" fill="#666">Dimension</text>
<g class="general-notes" font-family="sans-serif" font-size="2.0" fill="#333">
<text x="19.0" y="236.0" font-size="2.5" font-weight="bold" fill="#000">NOTES:</text><text x="19.0" y="240.0">1. GENERAL TOLERANCES PER KS B 0401:2014-m</text><text x="19.0" y="244.0">2. BREAK ALL SHARP EDGES 0.2~0.5</text><text x="19.0" y="248.0">3. DEBURR ALL MACHINED EDGES</text><text x="19.0" y="252.0">4. MATERIAL: AL6061</text><text x="19.0" y="256.0">5. ALL DIMENSIONS IN mm</text></g>
</svg>