<svg xmlns="http://www.w3.org/2000/svg" width="420mm" height="297mm" viewBox="0 0 420 297">
<rect width="420" height="297" fill="white" />
<defs><pattern id="hatch45" patternUnits="userSpaceOnUse" width="3" height="3" patternTransform="rotate(45)"><line x1="0" y1="0" x2="0" y2="3" stroke="#555" stroke-width="0.15" /></pattern></defs>
<rect x="15" y="15" width="390" height="267" fill="none" stroke="black" stroke-width="0.7" />
<rect x="16" y="16" width="388" height="265" fill="none" stroke="black" stroke-width="0.35" />
<rect x="15.0" y="15.0" width="195.0" height="116.0" fill="none" stroke="#ccc" stroke-width="0.15" stroke-dasharray="6,3" />
<rect x="210.0" y="15.0" width="195.0" height="116.0" fill="none" stroke="#ccc" stroke-width="0.15" stroke-dasharray="6,3" />
<rect x="15.0" y="131.0" width="195.0" height="116.0" fill="none" stroke="#ccc" stroke-width="0.15" stroke-dasharray="6,3" />
<rect x="210.0" y="131.0" width="195.0" height="116.0" fill="none" stroke="#ccc" stroke-width="0.15" stroke-dasharray="6,3" />

<g class="drawing-view drawing-view-front" id="drawing-view-front" data-view-id="front" data-view-kind="orthographic" data-view-label="FRONT" data-region-ref="drawing-view-front">
<g class="iso_visible" stroke="#999" stroke-width="0.13" fill="none" stroke-linecap="round" stroke-linejoin="round">
  <path d="M78.64,214.87L78.64,207.26" />
  <path d="M139.51,214.87L139.51,207.26" />
  <path d="M78.64,214.87L78.64,207.26" />
  <path d="M139.51,214.87L139.51,207.26" />
</g>
<g class="smooth_visible" stroke="#000" stroke-width="0.35" fill="none" stroke-linecap="round" stroke-linejoin="round">
  <path d="M66.85,214.87L66.85,208.78" />
  <path d="M66.85,208.78L66.85,207.26" />
  <path d="M126.20,207.26L158.15,207.26" />
  <path d="M126.20,208.78L126.20,207.26" />
  <path d="M98.80,208.78L126.20,208.78" />
  <path d="M98.80,208.78L98.80,207.26" />
  <path d="M75.98,207.26L98.80,207.26" />
  <path d="M75.98,208.78L75.98,207.26" />
  <path d="M66.85,208.78L75.98,208.78" />
  <path d="M66.85,214.87L158.15,214.87" />
  <path d="M158.15,214.87L158.15,207.26" />
  <path d="M85.49,214.87L85.25,214.87L85.02,214.87L84.78,214.87L84.54,214.87L84.31,214.87L84.07,214.87L83.84,214.87L83.60,214.87L83.36,214.87L83.13,214.87L82.89,214.87L82.66,214.87L82.42,214.87L82.18,214.87L81.95,214.87L81.71,214.87L81.48,214.87L81.24,214.87L81.00,214.87L80.77,214.87L80.53,214.87L80.29,214.87L80.06,214.87L79.82,214.87L79.59,214.87L79.35,214.87L79.11,214.87L78.88,214.87L78.64,214.87" />
  <path d="M78.64,214.87L78.88,214.87L79.11,214.87L79.35,214.87L79.59,214.87L79.82,214.87L80.06,214.87L80.29,214.87L80.53,214.87L80.77,214.87L81.00,214.87L81.24,214.87L81.48,214.87L81.71,214.87L81.95,214.87L82.18,214.87L82.42,214.87L82.66,214.87L82.89,214.87L83.13,214.87L83.36,214.87L83.60,214.87L83.84,214.87L84.07,214.87L84.31,214.87L84.54,214.87L84.78,214.87L85.02,214.87L85.25,214.87L85.49,214.87" />
  <path d="M146.36,214.87L146.12,214.87L145.89,214.87L145.65,214.87L145.41,214.87L145.18,214.87L144.94,214.87L144.71,214.87L144.47,214.87L144.23,214.87L144.00,214.87L143.76,214.87L143.52,214.87L143.29,214.87L143.05,214.87L142.82,214.87L142.58,214.87L142.34,214.87L142.11,214.87L141.87,214.87L141.64,214.87L141.40,214.87L141.16,214.87L140.93,214.87L140.69,214.87L140.46,214.87L140.22,214.87L139.98,214.87L139.75,214.87L139.51,214.87" />
  <path d="M139.51,214.87L139.75,214.87L139.98,214.87L140.22,214.87L140.46,214.87L140.69,214.87L140.93,214.87L141.16,214.87L141.40,214.87L141.64,214.87L141.87,214.87L142.11,214.87L142.34,214.87L142.58,214.87L142.82,214.87L143.05,214.87L143.29,214.87L143.52,214.87L143.76,214.87L144.00,214.87L144.23,214.87L144.47,214.87L144.71,214.87L144.94,214.87L145.18,214.87L145.41,214.87L145.65,214.87L145.89,214.87L146.12,214.87L146.36,214.87" />
  <path d="M85.49,214.87L85.25,214.87L85.02,214.87L84.78,214.87L84.54,214.87L84.31,214.87L84.07,214.87L83.84,214.87L83.60,214.87L83.36,214.87L83.13,214.87L82.89,214.87L82.66,214.87L82.42,214.87L82.18,214.87L81.95,214.87L81.71,214.87L81.48,214.87L81.24,214.87L81.00,214.87L80.77,214.87L80.53,214.87L80.29,214.87L80.06,214.87L79.82,214.87L79.59,214.87L79.35,214.87L79.11,214.87L78.88,214.87L78.64,214.87" />
  <path d="M78.64,214.87L78.88,214.87L79.11,214.87L79.35,214.87L79.59,214.87L79.82,214.87L80.06,214.87L80.29,214.87L80.53,214.87L80.77,214.87L81.00,214.87L81.24,214.87L81.48,214.87L81.71,214.87L81.95,214.87L82.18,214.87L82.42,214.87L82.66,214.87L82.89,214.87L83.13,214.87L83.36,214.87L83.60,214.87L83.84,214.87L84.07,214.87L84.31,214.87L84.54,214.87L84.78,214.87L85.02,214.87L85.25,214.87L85.49,214.87" />
  <path d="M146.36,214.87L146.12,214.87L145.89,214.87L145.65,214.87L145.41,214.87L145.18,214.87L144.94,214.87L144.71,214.87L144.47,214.87L144.23,214.87L144.00,214.87L143.76,214.87L143.52,214.87L143.29,214.87L143.05,214.87L142.82,214.87L142.58,214.87L142.34,214.87L142.11,214.87L141.87,214.87L141.64,214.87L141.40,214.87L141.16,214.87L140.93,214.87L140.69,214.87L140.46,214.87L140.22,214.87L139.98,214.87L139.75,214.87L139.51,214.87" />
  <path d="M139.51,214.87L139.75,214.87L139.98,214.87L140.22,214.87L140.46,214.87L140.69,214.87L140.93,214.87L141.16,214.87L141.40,214.87L141.64,214.87L141.87,214.87L142.11,214.87L142.34,214.87L142.58,214.87L142.82,214.87L143.05,214.87L143.29,214.87L143.52,214.87L143.76,214.87L144.00,214.87L144.23,214.87L144.47,214.87L144.71,214.87L144.94,214.87L145.18,214.87L145.41,214.87L145.65,214.87L145.89,214.87L146.12,214.87L146.36,214.87" />
  <path d="M146.36,207.26L146.12,207.26L145.89,207.26L145.65,207.26L145.41,207.26L145.18,207.26L144.94,207.26L144.71,207.26L144.47,207.26L144.23,207.26L144.00,207.26L143.76,207.26L143.52,207.26L143.29,207.26L143.05,207.26L142.82,207.26L142.58,207.26L142.34,207.26L142.11,207.26L141.87,207.26L141.64,207.26L141.40,207.26L141.16,207.26L140.93,207.26L140.69,207.26L140.46,207.26L140.22,207.26L139.98,207.26L139.75,207.26L139.51,207.26" />
  <path d="M139.51,207.26L139.75,207.26L139.98,207.26L140.22,207.26L140.46,207.26L140.69,207.26L140.93,207.26L141.16,207.26L141.40,207.26L141.64,207.26L141.87,207.26L142.11,207.26L142.34,207.26L142.58,207.26L142.82,207.26L143.05,207.26L143.29,207.26L143.52,207.26L143.76,207.26L144.00,207.26L144.23,207.26L144.47,207.26L144.71,207.26L144.94,207.26L145.18,207.26L145.41,207.26L145.65,207.26L145.89,207.26L146.12,207.26L146.36,207.26" />
  <path d="M146.36,207.26L146.12,207.26L145.89,207.26L145.65,207.26L145.41,207.26L145.18,207.26L144.94,207.26L144.71,207.26L144.47,207.26L144.23,207.26L144.00,207.26L143.76,207.26L143.52,207.26L143.29,207.26L143.05,207.26L142.82,207.26L142.58,207.26L142.34,207.26L142.11,207.26L141.87,207.26L141.64,207.26L141.40,207.26L141.16,207.26L140.93,207.26L140.69,207.26L140.46,207.26L140.22,207.26L139.98,207.26L139.75,207.26L139.51,207.26" />
  <path d="M139.51,207.26L139.75,207.26L139.98,207.26L140.22,207.26L140.46,207.26L140.69,207.26L140.93,207.26L141.16,207.26L141.40,207.26L141.64,207.26L141.87,207.26L142.11,207.26L142.34,207.26L142.58,207.26L142.82,207.26L143.05,207.26L143.29,207.26L143.52,207.26L143.76,207.26L144.00,207.26L144.23,207.26L144.47,207.26L144.71,207.26L144.94,207.26L145.18,207.26L145.41,207.26L145.65,207.26L145.89,207.26L146.12,207.26L146.36,207.26" />
  <path d="M85.49,207.26L85.25,207.26L85.02,207.26L84.78,207.26L84.54,207.26L84.31,207.26L84.07,207.26L83.84,207.26L83.60,207.26L83.36,207.26L83.13,207.26L82.89,207.26L82.66,207.26L82.42,207.26L82.18,207.26L81.95,207.26L81.71,207.26L81.48,207.26L81.24,207.26L81.00,207.26L80.77,207.26L80.53,207.26L80.29,207.26L80.06,207.26L79.82,207.26L79.59,207.26L79.35,207.26L79.11,207.26L78.88,207.26L78.64,207.26" />
  <path d="M78.64,207.26L78.88,207.26L79.11,207.26L79.35,207.26L79.59,207.26L79.82,207.26L80.06,207.26L80.29,207.26L80.53,207.26L80.77,207.26L81.00,207.26L81.24,207.26L81.48,207.26L81.71,207.26L81.95,207.26L82.18,207.26L82.42,207.26L82.66,207.26L82.89,207.26L83.13,207.26L83.36,207.26L83.60,207.26L83.84,207.26L84.07,207.26L84.31,207.26L84.54,207.26L84.78,207.26L85.02,207.26L85.25,207.26L85.49,207.26" />
  <path d="M85.49,207.26L85.25,207.26L85.02,207.26L84.78,207.26L84.54,207.26L84.31,207.26L84.07,207.26L83.84,207.26L83.60,207.26L83.36,207.26L83.13,207.26L82.89,207.26L82.66,207.26L82.42,207.26L82.18,207.26L81.95,207.26L81.71,207.26L81.48,207.26L81.24,207.26L81.00,207.26L80.77,207.26L80.53,207.26L80.29,207.26L80.06,207.26L79.82,207.26L79.59,207.26L79.35,207.26L79.11,207.26L78.88,207.26L78.64,207.26" />
  <path d="M78.64,207.26L78.88,207.26L79.11,207.26L79.35,207.26L79.59,207.26L79.82,207.26L80.06,207.26L80.29,207.26L80.53,207.26L80.77,207.26L81.00,207.26L81.24,207.26L81.48,207.26L81.71,207.26L81.95,207.26L82.18,207.26L82.42,207.26L82.66,207.26L82.89,207.26L83.13,207.26L83.36,207.26L83.60,207.26L83.84,207.26L84.07,207.26L84.31,207.26L84.54,207.26L84.78,207.26L85.02,207.26L85.25,207.26L85.49,207.26" />
  <path d="M66.85,207.26L66.85,163.13" />
  <path d="M66.85,207.26L75.98,207.26" />
  <path d="M98.80,207.26L126.20,207.26" />
  <path d="M85.49,214.87L85.49,207.26" />
  <path d="M146.36,214.87L146.36,207.26" />
  <path d="M85.49,214.87L85.49,207.26" />
  <path d="M146.36,214.87L146.36,207.26" />
  <path d="M126.20,207.26L126.20,181.39" />
  <path d="M75.98,207.26L75.98,163.13" />
  <path d="M98.80,207.26L98.80,181.39" />
  <path d="M66.85,163.13L75.98,163.13" />
  <path d="M98.80,181.39L126.20,181.39" />
</g>
<g class="hard_visible" stroke="#000" stroke-width="0.7" fill="none" stroke-linecap="round" stroke-linejoin="round">
  <path d="M66.85,214.87L66.85,208.78" />
  <path d="M126.20,207.26L158.15,207.26" />
  <path d="M126.20,208.78L126.20,207.26" />
  <path d="M98.80,208.78L126.20,208.78" />
  <path d="M98.80,208.78L98.80,207.26" />
  <path d="M75.98,207.26L98.80,207.26" />
  <path d="M75.98,208.78L75.98,207.26" />
  <path d="M66.85,208.78L75.98,208.78" />
  <path d="M66.85,214.87L158.15,214.87" />
  <path d="M158.15,214.87L158.15,207.26" />
  <path d="M66.85,208.78L66.85,207.26" />
  <path d="M98.80,207.26L126.20,207.26" />
  <path d="M66.85,207.26L75.98,207.26" />
  <path d="M66.85,207.26L66.85,163.13" />
  <path d="M126.20,207.26L126.20,181.39" />
  <path d="M98.80,181.39L126.20,181.39" />
  <path d="M98.80,207.26L98.80,181.39" />
  <path d="M75.98,207.26L75.98,163.13" />
  <path d="M66.85,163.13L75.98,163.13" />
</g>
<g class="symmetry-axes" stroke="#000" stroke-width="0.13" fill="none" stroke-dasharray="8,2,1.5,2" stroke-linecap="round" opacity="0.5" vector-effect="non-scaling-stroke">
  <line x1="112.50" y1="158.49" x2="112.50" y2="219.51" />
</g>
<text x="18.0" y="141.0" font-family="monospace" font-size="3.5" fill="#666">FRONT</text>
<g class="dimensions-front" stroke="#000" stroke-width="0.18" fill="none" stroke-linecap="round" vector-effect="non-scaling-stroke">
<line x1="66.85" y1="216.87" x2="66.85" y2="221.37" />
<line x1="158.15" y1="216.87" x2="158.15" y2="221.37" />
<line x1="66.85" y1="222.87" x2="158.15" y2="222.87" />
<polygon points="66.85,222.87 64.85,222.17 64.85,223.57" fill="#000" />
<polygon points="158.15,222.87 160.15,223.57 160.15,222.17" fill="#000" />
<text x="112.50" y="221.87" text-anchor="middle" font-family="sans-serif" font-size="3" fill="#000">120</text>
<line x1="156.15" y1="163.13" x2="167.65" y2="163.13" />
<line x1="156.15" y1="214.87" x2="167.65" y2="214.87" />
<line x1="166.15" y1="163.13" x2="166.15" y2="214.87" />
<polygon points="166.15,163.13 166.85,161.13 165.45,161.13" fill="#000" />
<polygon points="166.15,214.87 165.45,216.87 166.85,216.87" fill="#000" />
<text x="164.65" y="189.00" text-anchor="middle" font-family="sans-serif" font-size="3" fill="#000" transform="rotate(-90,164.65,189.00)">68</text>
</g>
<g class="dimensions-front plan-dimensions-front" stroke="#000" stroke-width="0.18" fill="none" vector-effect="non-scaling-stroke">
<line x1="156.15" y1="163.13" x2="181.65" y2="163.13" />
<line x1="156.15" y1="214.87" x2="181.65" y2="214.87" />
<line x1="180.15" y1="163.13" x2="180.15" y2="214.87" />
<polygon points="180.15,163.13 179.45,165.13 180.85,165.13" fill="#000" />
<polygon points="180.15,214.87 180.85,212.87 179.45,212.87" fill="#000" />
<text x="178.65" y="189.00" text-anchor="middle" font-family="sans-serif" font-size="3" fill="#000" data-dim-id="THK" data-value-mm="10" transform="rotate(-90,178.65,189.00)">10</text>
<line x1="66.85" y1="216.87" x2="66.85" y2="239.37" />
<line x1="158.15" y1="216.87" x2="158.15" y2="239.37" />
<line x1="66.85" y1="240.87" x2="158.15" y2="240.87" />
<polygon points="66.85,240.87 64.85,240.17 64.85,241.57" fill="#000" />
<polygon points="158.15,240.87 160.15,241.57 160.15,240.17" fill="#000" />
<text x="112.50" y="239.87" text-anchor="middle" font-family="sans-serif" font-size="3" fill="#000" data-dim-id="SUPPORT_WEB_HEIGHT" data-value-mm="60">60</text>
<line x1="66.85" y1="216.87" x2="66.85" y2="247.37" />
<line x1="158.15" y1="216.87" x2="158.15" y2="247.37" />
<line x1="66.85" y1="248.87" x2="158.15" y2="248.87" />
<polygon points="66.85,248.87 64.85,248.17 64.85,249.57" fill="#000" />
<polygon points="158.15,248.87 160.15,249.57 160.15,248.17" fill="#000" />
<text x="112.50" y="247.87" text-anchor="middle" font-family="sans-serif" font-size="3" fill="#000" data-dim-id="SUPPORT_RIB_HEIGHT" data-value-mm="36">36</text>
</g>
<g class="datums-front">
  <polygon points="88.17,214.87 91.17,214.87 89.67,217.37" fill="#000" stroke="#000" stroke-width="0.25" />
  <line x1="89.67" y1="217.37" x2="89.67" y2="220.37" stroke="#000" stroke-width="0.3" />
  <rect x="87.42" y="220.37" width="4.5" height="4.5" fill="white" stroke="#000" stroke-width="0.35" />
  <text x="89.67" y="223.61" text-anchor="middle" font-family="sans-serif" font-size="3.5" font-weight="bold" fill="#000">A</text>
  <polygon points="66.85,197.85 66.85,200.85 64.35,199.35" fill="#000" stroke="#000" stroke-width="0.25" />
  <line x1="64.35" y1="199.35" x2="61.35" y2="199.35" stroke="#000" stroke-width="0.3" />
  <rect x="56.85" y="197.10" width="4.5" height="4.5" fill="white" stroke="#000" stroke-width="0.35" />
  <text x="59.10" y="200.34" text-anchor="middle" font-family="sans-serif" font-size="3.5" font-weight="bold" fill="#000">B</text>
</g>
<g class="baseline-dimensions">
<line x1="66.85" y1="214.87" x2="66.85" y2="228.39" stroke="#000" stroke-width="0.18" />
<line x1="82.07" y1="217.15" x2="82.07" y2="228.39" stroke="#000" stroke-width="0.18" />
<line x1="66.85" y1="226.39" x2="82.07" y2="226.39" stroke="#000" stroke-width="0.18" />
<polygon points="66.85,226.39 68.85,225.69 68.85,227.09" fill="#000" />
<polygon points="82.07,226.39 80.07,225.69 80.07,227.09" fill="#000" />
<text x="74.46" y="225.19" text-anchor="middle" font-family="sans-serif" font-size="3" fill="#000">20</text>
<line x1="66.85" y1="214.87" x2="66.85" y2="233.39" stroke="#000" stroke-width="0.18" />
<line x1="82.07" y1="217.15" x2="82.07" y2="233.39" stroke="#000" stroke-width="0.18" />
<line x1="66.85" y1="231.39" x2="82.07" y2="231.39" stroke="#000" stroke-width="0.18" />
<polygon points="66.85,231.39 68.85,230.69 68.85,232.09" fill="#000" />
<polygon points="82.07,231.39 80.07,230.69 80.07,232.09" fill="#000" />
<text x="74.46" y="230.19" text-anchor="middle" font-family="sans-serif" font-size="3" fill="#000">20</text>
<line x1="66.85" y1="214.87" x2="66.85" y2="238.39" stroke="#000" stroke-width="0.18" />
<line x1="142.93" y1="217.15" x2="142.93" y2="238.39" stroke="#000" stroke-width="0.18" />
<line x1="66.85" y1="236.39" x2="142.93" y2="236.39" stroke="#000" stroke-width="0.18" />
<polygon points="66.85,236.39 68.85,235.69 68.85,237.09" fill="#000" />
<polygon points="142.93,236.39 140.93,235.69 140.93,237.09" fill="#000" />
<text x="104.89" y="235.19" text-anchor="middle" font-family="sans-serif" font-size="3" fill="#000">100</text>
<line x1="66.85" y1="214.87" x2="66.85" y2="243.39" stroke="#000" stroke-width="0.18" />
<line x1="142.93" y1="217.15" x2="142.93" y2="243.39" stroke="#000" stroke-width="0.18" />
<line x1="66.85" y1="241.39" x2="142.93" y2="241.39" stroke="#000" stroke-width="0.18" />
<polygon points="66.85,241.39 68.85,240.69 68.85,242.09" fill="#000" />
<polygon points="142.93,241.39 140.93,240.69 140.93,242.09" fill="#000" />
<text x="104.89" y="240.19" text-anchor="middle" font-family="sans-serif" font-size="3" fill="#000">100</text>
</g>
</g>

<g class="drawing-view drawing-view-top" id="drawing-view-top" data-view-id="top" data-view-kind="orthographic" data-view-label="TOP" data-region-ref="drawing-view-top">
<g class="smooth_visible" stroke="#000" stroke-width="0.35" fill="none" stroke-linecap="round" stroke-linejoin="round">
  <path d="M66.85,103.43L66.85,42.57" />
  <path d="M126.20,103.43L158.15,103.43" />
  <path d="M98.80,103.43L126.20,103.43" />
  <path d="M75.98,103.43L98.80,103.43" />
  <path d="M66.85,103.43L75.98,103.43" />
  <path d="M66.85,103.43L66.85,42.57" />
  <path d="M126.20,42.57L158.15,42.57" />
  <path d="M98.80,42.57L126.20,42.57" />
  <path d="M75.98,42.57L98.80,42.57" />
  <path d="M66.85,42.57L75.98,42.57" />
  <path d="M126.20,103.43L126.20,42.57" />
  <path d="M158.15,103.43L158.15,42.57" />
  <circle cx="142.93" cy="92.02" r="3.42" />
  <circle cx="142.93" cy="53.98" r="3.42" />
  <path d="M98.80,103.43L126.20,103.43" />
  <path d="M75.98,103.43L75.98,42.57" />
  <path d="M98.80,103.43L98.80,42.57" />
  <circle cx="82.07" cy="92.02" r="3.42" />
  <circle cx="82.07" cy="53.98" r="3.42" />
  <path d="M66.85,103.43L75.98,103.43" />
  <path d="M66.85,103.43L66.85,42.57" />
  <path d="M66.85,42.57L75.98,42.57" />
  <path d="M98.80,42.57L126.20,42.57" />
  <path d="M126.20,103.43L126.20,42.57" />
  <path d="M98.80,103.43L126.20,103.43" />
  <path d="M75.98,103.43L75.98,42.57" />
  <path d="M98.80,103.43L98.80,42.57" />
  <path d="M66.85,103.43L75.98,103.43" />
  <path d="M66.85,42.57L75.98,42.57" />
  <path d="M98.80,42.57L126.20,42.57" />
</g>
<g class="hard_visible" stroke="#000" stroke-width="0.7" fill="none" stroke-linecap="round" stroke-linejoin="round">
  <path d="M66.85,103.43L66.85,42.57" />
  <path d="M66.85,103.43L158.15,103.43" />
  <path d="M66.85,42.57L158.15,42.57" />
  <path d="M158.15,103.43L158.15,42.57" />
  <circle cx="82.07" cy="92.02" r="3.42" />
  <circle cx="142.93" cy="92.02" r="3.42" />
  <circle cx="82.07" cy="53.98" r="3.42" />
  <circle cx="142.93" cy="53.98" r="3.42" />
</g>
<g class="centerlines" stroke="#000" stroke-width="0.18" fill="none" stroke-dasharray="8,2,1.5,2" stroke-linecap="round" vector-effect="non-scaling-stroke">
  <line x1="75.11" y1="92.02" x2="89.03" y2="92.02" />
  <line x1="82.07" y1="85.06" x2="82.07" y2="98.98" />
  <line x1="135.97" y1="92.02" x2="149.89" y2="92.02" />
  <line x1="142.93" y1="85.06" x2="142.93" y2="98.98" />
  <line x1="75.11" y1="53.98" x2="89.03" y2="53.98" />
  <line x1="82.07" y1="47.02" x2="82.07" y2="60.94" />
  <line x1="135.97" y1="53.98" x2="149.89" y2="53.98" />
  <line x1="142.93" y1="47.02" x2="142.93" y2="60.94" />
</g>
<g class="symmetry-axes" stroke="#000" stroke-width="0.13" fill="none" stroke-dasharray="8,2,1.5,2" stroke-linecap="round" opacity="0.5" vector-effect="non-scaling-stroke">
  <line x1="62.21" y1="73.00" x2="162.79" y2="73.00" />
  <line x1="112.50" y1="37.93" x2="112.50" y2="108.07" />
</g>
<text x="18.0" y="25.0" font-family="monospace" font-size="3.5" fill="#666">TOP</text>
<g class="dimensions-top" stroke="#000" stroke-width="0.18" fill="none" stroke-linecap="round" vector-effect="non-scaling-stroke">
<line x1="66.85" y1="105.43" x2="66.85" y2="109.93" />
<line x1="158.15" y1="105.43" x2="158.15" y2="109.93" />
<line x1="66.85" y1="111.43" x2="158.15" y2="111.43" />
<polygon points="66.85,111.43 64.85,110.73 64.85,112.13" fill="#000" />
<polygon points="158.15,111.43 160.15,112.13 160.15,110.73" fill="#000" />
<text x="112.50" y="110.43" text-anchor="middle" font-family="sans-serif" font-size="3" fill="#000">120</text>
<line x1="156.15" y1="42.57" x2="167.65" y2="42.57" />
<line x1="156.15" y1="103.43" x2="167.65" y2="103.43" />
<line x1="166.15" y1="42.57" x2="166.15" y2="103.43" />
<polygon points="166.15,42.57 166.85,40.57 165.45,40.57" fill="#000" />
<polygon points="166.15,103.43 165.45,105.43 166.85,105.43" fill="#000" />
<text x="164.65" y="73.00" text-anchor="middle" font-family="sans-serif" font-size="3" fill="#000" transform="rotate(-90,164.65,73.00)">80</text>
<line x1="84.49" y1="89.60" x2="88.73" y2="85.36" />
<line x1="88.73" y1="85.36" x2="96.73" y2="85.36" />
<polygon points="84.49,89.60 85.41,91.51 86.40,90.52" fill="#000" />
<text x="92.73" y="84.16" text-anchor="middle" font-family="sans-serif" font-size="3" fill="#000">⌀9</text>
<line x1="66.85" y1="105.43" x2="66.85" y2="116.93" />
<line x1="82.07" y1="105.43" x2="82.07" y2="116.93" />
<line x1="66.85" y1="118.43" x2="82.07" y2="118.43" />
<polygon points="66.85,118.43 64.85,117.73 64.85,119.13" fill="#000" />
<polygon points="82.07,118.43 84.07,119.13 84.07,117.73" fill="#000" />
<text x="74.46" y="117.43" text-anchor="middle" font-family="sans-serif" font-size="3" fill="#000">20</text>
<line x1="82.07" y1="105.43" x2="82.07" y2="116.93" />
<line x1="142.93" y1="105.43" x2="142.93" y2="116.93" />
<line x1="82.07" y1="118.43" x2="142.93" y2="118.43" />
<polygon points="82.07,118.43 80.07,117.73 80.07,119.13" fill="#000" />
<polygon points="142.93,118.43 144.93,119.13 144.93,117.73" fill="#000" />
<text x="112.50" y="117.43" text-anchor="middle" font-family="sans-serif" font-size="3" fill="#000">80</text>
<line x1="142.93" y1="105.43" x2="142.93" y2="116.93" />
<line x1="158.15" y1="105.43" x2="158.15" y2="116.93" />
<line x1="142.93" y1="118.43" x2="158.15" y2="118.43" />
<polygon points="142.93,118.43 140.93,117.73 140.93,119.13" fill="#000" />
<polygon points="158.15,118.43 160.15,119.13 160.15,117.73" fill="#000" />
<text x="150.54" y="117.43" text-anchor="middle" font-family="sans-serif" font-size="3" fill="#000">20</text>
<line x1="156.15" y1="92.02" x2="174.65" y2="92.02" />
<line x1="156.15" y1="103.43" x2="174.65" y2="103.43" />
<line x1="173.15" y1="92.02" x2="173.15" y2="103.43" />
<polygon points="173.15,92.02 173.85,90.02 172.45,90.02" fill="#000" />
<polygon points="173.15,103.43 172.45,105.43 173.85,105.43" fill="#000" />
<text x="171.65" y="97.73" text-anchor="middle" font-family="sans-serif" font-size="3" fill="#000" transform="rotate(-90,171.65,97.73)">15</text>
<line x1="156.15" y1="53.98" x2="174.65" y2="53.98" />
<line x1="156.15" y1="92.02" x2="174.65" y2="92.02" />
<line x1="173.15" y1="53.98" x2="173.15" y2="92.02" />
<polygon points="173.15,53.98 173.85,51.98 172.45,51.98" fill="#000" />
<polygon points="173.15,92.02 172.45,94.02 173.85,94.02" fill="#000" />
<text x="171.65" y="73.00" text-anchor="middle" font-family="sans-serif" font-size="3" fill="#000" transform="rotate(-90,171.65,73.00)">50</text>
<line x1="156.15" y1="42.57" x2="174.65" y2="42.57" />
<line x1="156.15" y1="53.98" x2="174.65" y2="53.98" />
<line x1="173.15" y1="42.57" x2="173.15" y2="53.98" />
<polygon points="173.15,42.57 173.85,40.57 172.45,40.57" fill="#000" />
<polygon points="173.15,53.98 172.45,55.98 173.85,55.98" fill="#000" />
<text x="171.65" y="48.27" text-anchor="middle" font-family="sans-serif" font-size="3" fill="#000" transform="rotate(-90,171.65,48.27)">15</text>
</g>
<g class="dimensions-top plan-dimensions-top" stroke="#000" stroke-width="0.18" fill="none" vector-effect="non-scaling-stroke">
<line x1="66.85" y1="105.43" x2="66.85" y2="133.93" />
<line x1="158.15" y1="105.43" x2="158.15" y2="133.93" />
<line x1="66.85" y1="135.43" x2="158.15" y2="135.43" />
<polygon points="66.85,135.43 64.85,134.73 64.85,136.13" fill="#000" />
<polygon points="158.15,135.43 160.15,136.13 160.15,134.73" fill="#000" />
<text x="112.50" y="134.43" text-anchor="middle" font-family="sans-serif" font-size="3" fill="#000" data-dim-id="TOTAL_LENGTH" data-value-mm="120">120</text>
<line x1="156.15" y1="42.57" x2="191.65" y2="42.57" />
<line x1="156.15" y1="103.43" x2="191.65" y2="103.43" />
<line x1="190.15" y1="42.57" x2="190.15" y2="103.43" />
<polygon points="190.15,42.57 189.45,44.57 190.85,44.57" fill="#000" />
<polygon points="190.15,103.43 190.85,101.43 189.45,101.43" fill="#000" />
<text x="188.65" y="73.00" text-anchor="middle" font-family="sans-serif" font-size="3" fill="#000" data-dim-id="HEIGHT" data-value-mm="80" transform="rotate(-90,188.65,73.00)">80</text>
<line x1="84.49" y1="89.60" x2="92.26" y2="81.82" />
<line x1="92.26" y1="81.82" x2="100.26" y2="81.82" />
<polygon points="84.49,89.60 83.57,87.69 82.58,88.68" fill="#000" />
<text x="100.76" y="81.32" text-anchor="start" font-family="sans-serif" font-size="3" fill="#000" data-dim-id="HOLE_DIA" data-value-mm="9">Ø9</text>
</g>
<g class="datums-top">
  <polygon points="66.85,83.67 66.85,86.67 64.35,85.17" fill="#000" stroke="#000" stroke-width="0.25" />
  <line x1="64.35" y1="85.17" x2="61.35" y2="85.17" stroke="#000" stroke-width="0.3" />
  <rect x="56.85" y="82.92" width="4.5" height="4.5" fill="white" stroke="#000" stroke-width="0.35" />
  <text x="59.10" y="86.16" text-anchor="middle" font-family="sans-serif" font-size="3.5" font-weight="bold" fill="#000">B</text>
  <polygon points="88.17,42.57 91.17,42.57 89.67,40.07" fill="#000" stroke="#000" stroke-width="0.25" />
  <line x1="89.67" y1="40.07" x2="89.67" y2="37.07" stroke="#000" stroke-width="0.3" />
  <rect x="87.42" y="32.57" width="4.5" height="4.5" fill="white" stroke="#000" stroke-width="0.35" />
  <text x="89.67" y="35.81" text-anchor="middle" font-family="sans-serif" font-size="3.5" font-weight="bold" fill="#000">C</text>
</g>
</g>

<g class="drawing-view drawing-view-right" id="drawing-view-right" data-view-id="right" data-view-kind="orthographic" data-view-label="RIGHT" data-region-ref="drawing-view-right">
<g class="iso_visible" stroke="#999" stroke-width="0.13" fill="none" stroke-linecap="round" stroke-linejoin="round">
  <path d="M291.90,214.87L291.90,207.26" />
  <path d="M285.05,214.87L285.05,207.26" />
  <path d="M291.90,214.87L291.90,207.26" />
  <path d="M285.05,214.87L285.05,207.26" />
  <path d="M329.95,214.87L329.95,207.26" />
  <path d="M323.10,214.87L323.10,207.26" />
  <path d="M329.95,214.87L329.95,207.26" />
  <path d="M323.10,214.87L323.10,207.26" />
</g>
<g class="smooth_visible" stroke="#000" stroke-width="0.35" fill="none" stroke-linecap="round" stroke-linejoin="round">
  <path d="M277.07,214.87L277.07,208.78" />
  <path d="M277.07,208.78L337.93,208.78" />
  <path d="M337.93,214.87L337.93,208.78" />
  <path d="M277.07,214.87L337.93,214.87" />
  <path d="M277.07,208.78L277.07,207.26" />
  <path d="M277.07,208.78L277.07,207.26" />
  <path d="M277.07,208.78L277.07,207.26" />
  <path d="M277.07,208.78L277.07,207.26" />
  <path d="M277.07,207.26L337.93,207.26" />
  <path d="M337.93,208.78L337.93,207.26" />
  <path d="M337.93,208.78L337.93,207.26" />
  <path d="M337.93,208.78L337.93,207.26" />
  <path d="M337.93,208.78L337.93,207.26" />
  <path d="M288.48,214.87L288.60,214.87L288.71,214.87L288.83,214.87L288.95,214.87L289.07,214.87L289.19,214.87L289.30,214.87L289.42,214.87L289.54,214.87L289.66,214.87L289.78,214.87L289.90,214.87L290.01,214.87L290.13,214.87L290.25,214.87L290.37,214.87L290.49,214.87L290.60,214.87L290.72,214.87L290.84,214.87L290.96,214.87L291.08,214.87L291.19,214.87L291.31,214.87L291.43,214.87L291.55,214.87L291.67,214.87L291.78,214.87L291.90,214.87" />
  <path d="M291.90,214.87L291.67,214.87L291.43,214.87L291.19,214.87L290.96,214.87L290.72,214.87L290.49,214.87L290.25,214.87L290.01,214.87L289.78,214.87L289.54,214.87L289.30,214.87L289.07,214.87L288.83,214.87L288.60,214.87L288.36,214.87L288.12,214.87L287.89,214.87L287.65,214.87L287.42,214.87L287.18,214.87L286.94,214.87L286.71,214.87L286.47,214.87L286.24,214.87L286.00,214.87L285.76,214.87L285.53,214.87L285.29,214.87L285.05,214.87" />
  <path d="M285.05,214.87L285.17,214.87L285.29,214.87L285.41,214.87L285.53,214.87L285.64,214.87L285.76,214.87L285.88,214.87L286.00,214.87L286.12,214.87L286.24,214.87L286.35,214.87L286.47,214.87L286.59,214.87L286.71,214.87L286.83,214.87L286.94,214.87L287.06,214.87L287.18,214.87L287.30,214.87L287.42,214.87L287.53,214.87L287.65,214.87L287.77,214.87L287.89,214.87L288.01,214.87L288.12,214.87L288.24,214.87L288.36,214.87L288.48,214.87" />
  <path d="M288.48,214.87L288.60,214.87L288.71,214.87L288.83,214.87L288.95,214.87L289.07,214.87L289.19,214.87L289.30,214.87L289.42,214.87L289.54,214.87L289.66,214.87L289.78,214.87L289.90,214.87L290.01,214.87L290.13,214.87L290.25,214.87L290.37,214.87L290.49,214.87L290.60,214.87L290.72,214.87L290.84,214.87L290.96,214.87L291.08,214.87L291.19,214.87L291.31,214.87L291.43,214.87L291.55,214.87L291.67,214.87L291.78,214.87L291.90,214.87" />
  <path d="M291.90,214.87L291.67,214.87L291.43,214.87L291.19,214.87L290.96,214.87L290.72,214.87L290.49,214.87L290.25,214.87L290.01,214.87L289.78,214.87L289.54,214.87L289.30,214.87L289.07,214.87L288.83,214.87L288.60,214.87L288.36,214.87L288.12,214.87L287.89,214.87L287.65,214.87L287.42,214.87L287.18,214.87L286.94,214.87L286.71,214.87L286.47,214.87L286.24,214.87L286.00,214.87L285.76,214.87L285.53,214.87L285.29,214.87L285.05,214.87" />
  <path d="M285.05,214.87L285.17,214.87L285.29,214.87L285.41,214.87L285.53,214.87L285.64,214.87L285.76,214.87L285.88,214.87L286.00,214.87L286.12,214.87L286.24,214.87L286.35,214.87L286.47,214.87L286.59,214.87L286.71,214.87L286.83,214.87L286.94,214.87L287.06,214.87L287.18,214.87L287.30,214.87L287.42,214.87L287.53,214.87L287.65,214.87L287.77,214.87L287.89,214.87L288.01,214.87L288.12,214.87L288.24,214.87L288.36,214.87L288.48,214.87" />
  <path d="M326.52,214.87L326.64,214.87L326.76,214.87L326.88,214.87L326.99,214.87L327.11,214.87L327.23,214.87L327.35,214.87L327.47,214.87L327.58,214.87L327.70,214.87L327.82,214.87L327.94,214.87L328.06,214.87L328.17,214.87L328.29,214.87L328.41,214.87L328.53,214.87L328.65,214.87L328.76,214.87L328.88,214.87L329.00,214.87L329.12,214.87L329.24,214.87L329.36,214.87L329.47,214.87L329.59,214.87L329.71,214.87L329.83,214.87L329.95,214.87" />
  <path d="M329.95,214.87L329.71,214.87L329.47,214.87L329.24,214.87L329.00,214.87L328.76,214.87L328.53,214.87L328.29,214.87L328.06,214.87L327.82,214.87L327.58,214.87L327.35,214.87L327.11,214.87L326.88,214.87L326.64,214.87L326.40,214.87L326.17,214.87L325.93,214.87L325.70,214.87L325.46,214.87L325.22,214.87L324.99,214.87L324.75,214.87L324.51,214.87L324.28,214.87L324.04,214.87L323.81,214.87L323.57,214.87L323.33,214.87L323.10,214.87" />
  <path d="M323.10,214.87L323.22,214.87L323.33,214.87L323.45,214.87L323.57,214.87L323.69,214.87L323.81,214.87L323.92,214.87L324.04,214.87L324.16,214.87L324.28,214.87L324.40,214.87L324.51,214.87L324.63,214.87L324.75,214.87L324.87,214.87L324.99,214.87L325.10,214.87L325.22,214.87L325.34,214.87L325.46,214.87L325.58,214.87L325.70,214.87L325.81,214.87L325.93,214.87L326.05,214.87L326.17,214.87L326.29,214.87L326.40,214.87L326.52,214.87" />
  <path d="M326.52,214.87L326.64,214.87L326.76,214.87L326.88,214.87L326.99,214.87L327.11,214.87L327.23,214.87L327.35,214.87L327.47,214.87L327.58,214.87L327.70,214.87L327.82,214.87L327.94,214.87L328.06,214.87L328.17,214.87L328.29,214.87L328.41,214.87L328.53,214.87L328.65,214.87L328.76,214.87L328.88,214.87L329.00,214.87L329.12,214.87L329.24,214.87L329.36,214.87L329.47,214.87L329.59,214.87L329.71,214.87L329.83,214.87L329.95,214.87" />
  <path d="M329.95,214.87L329.71,214.87L329.47,214.87L329.24,214.87L329.00,214.87L328.76,214.87L328.53,214.87L328.29,214.87L328.06,214.87L327.82,214.87L327.58,214.87L327.35,214.87L327.11,214.87L326.88,214.87L326.64,214.87L326.40,214.87L326.17,214.87L325.93,214.87L325.70,214.87L325.46,214.87L325.22,214.87L324.99,214.87L324.75,214.87L324.51,214.87L324.28,214.87L324.04,214.87L323.81,214.87L323.57,214.87L323.33,214.87L323.10,214.87" />
  <path d="M323.10,214.87L323.22,214.87L323.33,214.87L323.45,214.87L323.57,214.87L323.69,214.87L323.81,214.87L323.92,214.87L324.04,214.87L324.16,214.87L324.28,214.87L324.40,214.87L324.51,214.87L324.63,214.87L324.75,214.87L324.87,214.87L324.99,214.87L325.10,214.87L325.22,214.87L325.34,214.87L325.46,214.87L325.58,214.87L325.70,214.87L325.81,214.87L325.93,214.87L326.05,214.87L326.17,214.87L326.29,214.87L326.40,214.87L326.52,214.87" />
  <path d="M277.07,207.26L337.93,207.26" />
  <path d="M288.48,207.26L288.60,207.26L288.71,207.26L288.83,207.26L288.95,207.26L289.07,207.26L289.19,207.26L289.30,207.26L289.42,207.26L289.54,207.26L289.66,207.26L289.78,207.26L289.90,207.26L290.01,207.26L290.13,207.26L290.25,207.26L290.37,207.26L290.49,207.26L290.60,207.26L290.72,207.26L290.84,207.26L290.96,207.26L291.08,207.26L291.19,207.26L291.31,207.26L291.43,207.26L291.55,207.26L291.67,207.26L291.78,207.26L291.90,207.26" />
  <path d="M291.90,207.26L291.67,207.26L291.43,207.26L291.19,207.26L290.96,207.26L290.72,207.26L290.49,207.26L290.25,207.26L290.01,207.26L289.78,207.26L289.54,207.26L289.30,207.26L289.07,207.26L288.83,207.26L288.60,207.26L288.36,207.26L288.12,207.26L287.89,207.26L287.65,207.26L287.42,207.26L287.18,207.26L286.94,207.26L286.71,207.26L286.47,207.26L286.24,207.26L286.00,207.26L285.76,207.26L285.53,207.26L285.29,207.26L285.05,207.26" />
  <path d="M285.05,207.26L285.17,207.26L285.29,207.26L285.41,207.26L285.53,207.26L285.64,207.26L285.76,207.26L285.88,207.26L286.00,207.26L286.12,207.26L286.24,207.26L286.35,207.26L286.47,207.26L286.59,207.26L286.71,207.26L286.83,207.26L286.94,207.26L287.06,207.26L287.18,207.26L287.30,207.26L287.42,207.26L287.53,207.26L287.65,207.26L287.77,207.26L287.89,207.26L288.01,207.26L288.12,207.26L288.24,207.26L288.36,207.26L288.48,207.26" />
  <path d="M326.52,207.26L326.64,207.26L326.76,207.26L326.88,207.26L326.99,207.26L327.11,207.26L327.23,207.26L327.35,207.26L327.47,207.26L327.58,207.26L327.70,207.26L327.82,207.26L327.94,207.26L328.06,207.26L328.17,207.26L328.29,207.26L328.41,207.26L328.53,207.26L328.65,207.26L328.76,207.26L328.88,207.26L329.00,207.26L329.12,207.26L329.24,207.26L329.36,207.26L329.47,207.26L329.59,207.26L329.71,207.26L329.83,207.26L329.95,207.26" />
  <path d="M329.95,207.26L329.71,207.26L329.47,207.26L329.24,207.26L329.00,207.26L328.76,207.26L328.53,207.26L328.29,207.26L328.06,207.26L327.82,207.26L327.58,207.26L327.35,207.26L327.11,207.26L326.88,207.26L326.64,207.26L326.40,207.26L326.17,207.26L325.93,207.26L325.70,207.26L325.46,207.26L325.22,207.26L324.99,207.26L324.75,207.26L324.51,207.26L324.28,207.26L324.04,207.26L323.81,207.26L323.57,207.26L323.33,207.26L323.10,207.26" />
  <path d="M323.10,207.26L323.22,207.26L323.33,207.26L323.45,207.26L323.57,207.26L323.69,207.26L323.81,207.26L323.92,207.26L324.04,207.26L324.16,207.26L324.28,207.26L324.40,207.26L324.51,207.26L324.63,207.26L324.75,207.26L324.87,207.26L324.99,207.26L325.10,207.26L325.22,207.26L325.34,207.26L325.46,207.26L325.58,207.26L325.70,207.26L325.81,207.26L325.93,207.26L326.05,207.26L326.17,207.26L326.29,207.26L326.40,207.26L326.52,207.26" />
  <path d="M277.07,207.26L337.93,207.26" />
  <path d="M277.07,207.26L337.93,207.26" />
  <path d="M288.48,207.26L288.60,207.26L288.71,207.26L288.83,207.26L288.95,207.26L289.07,207.26L289.19,207.26L289.30,207.26L289.42,207.26L289.54,207.26L289.66,207.26L289.78,207.26L289.90,207.26L290.01,207.26L290.13,207.26L290.25,207.26L290.37,207.26L290.49,207.26L290.60,207.26L290.72,207.26L290.84,207.26L290.96,207.26L291.08,207.26L291.19,207.26L291.31,207.26L291.43,207.26L291.55,207.26L291.67,207.26L291.78,207.26L291.90,207.26" />
  <path d="M291.90,207.26L291.67,207.26L291.43,207.26L291.19,207.26L290.96,207.26L290.72,207.26L290.49,207.26L290.25,207.26L290.01,207.26L289.78,207.26L289.54,207.26L289.30,207.26L289.07,207.26L288.83,207.26L288.60,207.26L288.36,207.26L288.12,207.26L287.89,207.26L287.65,207.26L287.42,207.26L287.18,207.26L286.94,207.26L286.71,207.26L286.47,207.26L286.24,207.26L286.00,207.26L285.76,207.26L285.53,207.26L285.29,207.26L285.05,207.26" />
  <path d="M285.05,207.26L285.17,207.26L285.29,207.26L285.41,207.26L285.53,207.26L285.64,207.26L285.76,207.26L285.88,207.26L286.00,207.26L286.12,207.26L286.24,207.26L286.35,207.26L286.47,207.26L286.59,207.26L286.71,207.26L286.83,207.26L286.94,207.26L287.06,207.26L287.18,207.26L287.30,207.26L287.42,207.26L287.53,207.26L287.65,207.26L287.77,207.26L287.89,207.26L288.01,207.26L288.12,207.26L288.24,207.26L288.36,207.26L288.48,207.26" />
  <path d="M326.52,207.26L326.64,207.26L326.76,207.26L326.88,207.26L326.99,207.26L327.11,207.26L327.23,207.26L327.35,207.26L327.47,207.26L327.58,207.26L327.70,207.26L327.82,207.26L327.94,207.26L328.06,207.26L328.17,207.26L328.29,207.26L328.41,207.26L328.53,207.26L328.65,207.26L328.76,207.26L328.88,207.26L329.00,207.26L329.12,207.26L329.24,207.26L329.36,207.26L329.47,207.26L329.59,207.26L329.71,207.26L329.83,207.26L329.95,207.26" />
  <path d="M329.95,207.26L329.71,207.26L329.47,207.26L329.24,207.26L329.00,207.26L328.76,207.26L328.53,207.26L328.29,207.26L328.06,207.26L327.82,207.26L327.58,207.26L327.35,207.26L327.11,207.26L326.88,207.26L326.64,207.26L326.40,207.26L326.17,207.26L325.93,207.26L325.70,207.26L325.46,207.26L325.22,207.26L324.99,207.26L324.75,207.26L324.51,207.26L324.28,207.26L324.04,207.26L323.81,207.26L323.57,207.26L323.33,207.26L323.10,207.26" />
  <path d="M323.10,207.26L323.22,207.26L323.33,207.26L323.45,207.26L323.57,207.26L323.69,207.26L323.81,207.26L323.92,207.26L324.04,207.26L324.16,207.26L324.28,207.26L324.40,207.26L324.51,207.26L324.63,207.26L324.75,207.26L324.87,207.26L324.99,207.26L325.10,207.26L325.22,207.26L325.34,207.26L325.46,207.26L325.58,207.26L325.70,207.26L325.81,207.26L325.93,207.26L326.05,207.26L326.17,207.26L326.29,207.26L326.40,207.26L326.52,207.26" />
  <path d="M277.07,207.26L277.07,163.13" />
  <path d="M277.07,163.13L337.93,163.13" />
  <path d="M337.93,207.26L337.93,163.13" />
  <path d="M277.07,207.26L277.07,181.39" />
  <path d="M277.07,207.26L277.07,181.39" />
  <path d="M337.93,207.26L337.93,181.39" />
  <path d="M277.07,181.39L337.93,181.39" />
  <path d="M337.93,207.26L337.93,181.39" />
</g>
<g class="hard_visible" stroke="#000" stroke-width="0.7" fill="none" stroke-linecap="round" stroke-linejoin="round">
  <path d="M277.07,214.87L277.07,207.26" />
  <path d="M337.93,214.87L337.93,207.26" />
  <path d="M277.07,214.87L337.93,214.87" />
  <path d="M277.07,207.26L337.93,207.26" />
  <path d="M277.07,207.26L277.07,181.39" />
  <path d="M277.07,181.39L337.93,181.39" />
  <path d="M337.93,207.26L337.93,181.39" />
  <path d="M277.07,181.39L277.07,163.13" />
  <path d="M277.07,163.13L337.93,163.13" />
  <path d="M337.93,181.39L337.93,163.13" />
</g>
<g class="symmetry-axes" stroke="#000" stroke-width="0.13" fill="none" stroke-dasharray="8,2,1.5,2" stroke-linecap="round" opacity="0.5" vector-effect="non-scaling-stroke">
  <line x1="307.50" y1="158.49" x2="307.50" y2="219.51" />
</g>
<text x="213.0" y="141.0" font-family="monospace" font-size="3.5" fill="#666">RIGHT</text>
<g class="dimensions-right" stroke="#000" stroke-width="0.18" fill="none" stroke-linecap="round" vector-effect="non-scaling-stroke">
<line x1="277.07" y1="216.87" x2="277.07" y2="221.37" />
<line x1="337.93" y1="216.87" x2="337.93" y2="221.37" />
<line x1="277.07" y1="222.87" x2="337.93" y2="222.87" />
<polygon points="277.07,222.87 275.07,222.17 275.07,223.57" fill="#000" />
<polygon points="337.93,222.87 339.93,223.57 339.93,222.17" fill="#000" />
<text x="307.50" y="221.87" text-anchor="middle" font-family="sans-serif" font-size="3" fill="#000">80</text>
<line x1="335.93" y1="163.13" x2="347.43" y2="163.13" />
<line x1="335.93" y1="214.87" x2="347.43" y2="214.87" />
<line x1="345.93" y1="163.13" x2="345.93" y2="214.87" />
<polygon points="345.93,163.13 346.63,161.13 345.23,161.13" fill="#000" />
<polygon points="345.93,214.87 345.23,216.87 346.63,216.87" fill="#000" />
<text x="344.43" y="189.00" text-anchor="middle" font-family="sans-serif" font-size="3" fill="#000" transform="rotate(-90,344.43,189.00)">68</text>
</g>
<g class="datums-right">
  <polygon points="290.78,214.87 293.78,214.87 292.28,217.37" fill="#000" stroke="#000" stroke-width="0.25" />
  <line x1="292.28" y1="217.37" x2="292.28" y2="220.37" stroke="#000" stroke-width="0.3" />
  <rect x="290.03" y="220.37" width="4.5" height="4.5" fill="white" stroke="#000" stroke-width="0.35" />
  <text x="292.28" y="223.61" text-anchor="middle" font-family="sans-serif" font-size="3.5" font-weight="bold" fill="#000">A</text>
  <polygon points="277.07,197.85 277.07,200.85 274.57,199.35" fill="#000" stroke="#000" stroke-width="0.25" />
  <line x1="274.57" y1="199.35" x2="271.57" y2="199.35" stroke="#000" stroke-width="0.3" />
  <rect x="267.07" y="197.10" width="4.5" height="4.5" fill="white" stroke="#000" stroke-width="0.35" />
  <text x="269.32" y="200.34" text-anchor="middle" font-family="sans-serif" font-size="3.5" font-weight="bold" fill="#000">C</text>
</g>
</g>

<g class="drawing-view drawing-view-iso" id="drawing-view-iso" data-view-id="iso" data-view-kind="isometric" data-view-label="ISOMETRIC" data-region-ref="drawing-view-iso">
<g class="smooth_visible" stroke="#000" stroke-width="0.35" fill="none" stroke-linecap="round" stroke-linejoin="round">
  <path d="M289.21,115.56L289.21,65.86" />
  <path d="M293.51,68.34L289.21,65.86" />
  <path d="M293.51,118.04L293.51,68.34" />
  <path d="M288.13,114.93L288.13,65.23" />
  <path d="M289.21,65.86L288.13,65.23" />
  <path d="M331.17,41.63L330.10,41.01" />
  <path d="M311.80,52.81L331.17,41.63" />
  <path d="M311.80,52.81L310.73,52.19" />
  <path d="M294.59,61.51L310.73,52.19" />
  <path d="M295.66,62.13L294.59,61.51" />
  <path d="M289.21,65.86L295.66,62.13" />
  <path d="M293.51,68.34L358.07,31.07" />
  <path d="M306.69,101.11L306.69,101.05L306.69,100.99L306.69,100.92L306.68,100.86L306.68,100.80L306.67,100.74L306.66,100.68L306.65,100.62L306.64,100.56L306.63,100.49L306.61,100.43L306.59,100.38L306.57,100.32L306.55,100.26L306.53,100.20L306.51,100.14L306.48,100.09L306.45,100.03L306.42,99.98L306.39,99.93L306.35,99.87L306.31,99.83L306.27,99.78L306.23,99.73L306.18,99.69L306.14,99.65L306.09,99.61L306.04,99.58L305.98,99.54" />
  <path d="M305.98,99.54L305.71,99.43L305.42,99.38L305.12,99.40L304.83,99.47L304.55,99.57L304.28,99.71L304.03,99.86L303.79,100.04L303.57,100.24L303.36,100.45L303.16,100.67L302.97,100.90L302.80,101.14L302.64,101.39L302.49,101.65L302.35,101.92L302.23,102.19L302.12,102.46L302.03,102.75L301.95,103.04L301.90,103.33L301.86,103.62L301.85,103.92L301.87,104.22L301.92,104.51L302.00,104.80L302.14,105.06L302.32,105.29L302.56,105.47" />
  <path d="M302.56,105.47L302.77,105.57L303.00,105.62L303.24,105.63L303.47,105.61L303.70,105.55L303.92,105.48L304.14,105.38L304.34,105.26L304.54,105.13L304.73,104.99L304.91,104.84L305.08,104.68L305.24,104.51L305.40,104.33L305.55,104.15L305.69,103.96L305.82,103.76L305.95,103.56L306.06,103.36L306.17,103.15L306.27,102.93L306.36,102.72L306.44,102.50L306.51,102.27L306.57,102.04L306.62,101.81L306.66,101.58L306.68,101.35L306.69,101.11" />
  <path d="M349.73,76.26L349.73,76.20L349.73,76.14L349.73,76.08L349.72,76.01L349.72,75.95L349.71,75.89L349.70,75.83L349.69,75.77L349.68,75.71L349.67,75.65L349.65,75.59L349.63,75.53L349.62,75.47L349.59,75.41L349.57,75.35L349.55,75.29L349.52,75.24L349.49,75.18L349.46,75.13L349.43,75.08L349.39,75.03L349.35,74.98L349.31,74.93L349.27,74.88L349.22,74.84L349.18,74.80L349.13,74.76L349.08,74.73L349.02,74.69" />
  <path d="M349.02,74.69L348.75,74.58L348.46,74.54L348.16,74.55L347.87,74.62L347.59,74.72L347.33,74.86L347.07,75.02L346.84,75.19L346.61,75.39L346.40,75.60L346.20,75.82L346.01,76.05L345.84,76.29L345.68,76.54L345.53,76.80L345.39,77.07L345.27,77.34L345.16,77.62L345.07,77.90L345.00,78.19L344.94,78.48L344.90,78.77L344.89,79.07L344.91,79.37L344.96,79.66L345.04,79.95L345.18,80.21L345.36,80.44L345.60,80.62" />
  <path d="M345.60,80.62L345.82,80.72L346.05,80.77L346.28,80.78L346.51,80.76L346.74,80.71L346.97,80.63L347.18,80.53L347.38,80.41L347.58,80.28L347.77,80.14L347.95,79.99L348.12,79.83L348.29,79.66L348.44,79.48L348.59,79.30L348.73,79.11L348.86,78.91L348.99,78.71L349.10,78.51L349.21,78.30L349.31,78.09L349.40,77.87L349.48,77.65L349.55,77.42L349.62,77.19L349.66,76.96L349.70,76.73L349.73,76.50L349.73,76.26" />
  <path d="M306.69,70.05L306.69,69.99L306.69,69.92L306.69,69.86L306.68,69.80L306.68,69.74L306.67,69.68L306.66,69.62L306.65,69.55L306.64,69.49L306.63,69.43L306.61,69.37L306.59,69.31L306.57,69.25L306.55,69.20L306.53,69.14L306.51,69.08L306.48,69.02L306.45,68.97L306.42,68.92L306.39,68.86L306.35,68.81L306.31,68.76L306.27,68.72L306.23,68.67L306.18,68.63L306.14,68.59L306.09,68.55L306.04,68.51L305.98,68.48" />
  <path d="M305.98,68.48L305.71,68.37L305.42,68.32L305.12,68.34L304.83,68.40L304.55,68.51L304.28,68.64L304.03,68.80L303.79,68.98L303.57,69.18L303.36,69.39L303.16,69.61L302.97,69.84L302.80,70.08L302.64,70.33L302.49,70.59L302.35,70.85L302.23,71.13L302.12,71.40L302.03,71.69L301.95,71.97L301.90,72.27L301.86,72.56L301.85,72.86L301.87,73.16L301.92,73.45L302.00,73.73L302.14,74.00L302.32,74.23L302.56,74.41" />
  <path d="M302.56,74.41L302.77,74.51L303.00,74.56L303.24,74.57L303.47,74.55L303.70,74.49L303.92,74.41L304.14,74.32L304.34,74.20L304.54,74.07L304.73,73.93L304.91,73.78L305.08,73.61L305.24,73.45L305.40,73.27L305.55,73.09L305.69,72.90L305.82,72.70L305.95,72.50L306.06,72.30L306.17,72.09L306.27,71.87L306.36,71.66L306.44,71.43L306.51,71.21L306.57,70.98L306.62,70.75L306.66,70.52L306.68,70.28L306.69,70.05" />
  <path d="M349.73,45.20L349.73,45.14L349.73,45.08L349.73,45.01L349.72,44.95L349.72,44.89L349.71,44.83L349.70,44.77L349.69,44.70L349.68,44.64L349.67,44.58L349.65,44.52L349.63,44.46L349.62,44.40L349.59,44.35L349.57,44.29L349.55,44.23L349.52,44.17L349.49,44.12L349.46,44.07L349.43,44.01L349.39,43.96L349.35,43.91L349.31,43.87L349.27,43.82L349.22,43.78L349.18,43.74L349.13,43.70L349.08,43.66L349.02,43.63" />
  <path d="M349.02,43.63L348.75,43.52L348.46,43.47L348.16,43.49L347.87,43.56L347.59,43.66L347.33,43.79L347.07,43.95L346.84,44.13L346.61,44.33L346.40,44.54L346.20,44.76L346.01,44.99L345.84,45.23L345.68,45.48L345.53,45.74L345.39,46.00L345.27,46.28L345.16,46.55L345.07,46.84L345.00,47.12L344.94,47.42L344.90,47.71L344.89,48.01L344.91,48.31L344.96,48.60L345.04,48.88L345.18,49.15L345.36,49.38L345.60,49.56" />
  <path d="M345.60,49.56L345.82,49.66L346.05,49.71L346.28,49.72L346.51,49.70L346.74,49.64L346.97,49.56L347.18,49.47L347.38,49.35L347.58,49.22L347.77,49.08L347.95,48.93L348.12,48.77L348.29,48.60L348.44,48.42L348.59,48.24L348.73,48.05L348.86,47.85L348.99,47.65L349.10,47.45L349.21,47.24L349.31,47.02L349.40,46.81L349.48,46.58L349.55,46.36L349.62,46.13L349.66,45.90L349.70,45.67L349.73,45.43L349.73,45.20" />
  <path d="M294.59,92.57L294.59,61.51" />
  <path d="M310.73,101.89L310.73,52.19" />
  <path d="M301.31,66.94L301.31,66.88L301.31,66.82L301.31,66.76L301.30,66.69L301.30,66.63L301.29,66.57L301.28,66.51L301.27,66.45L301.26,66.39L301.25,66.33L301.23,66.27L301.21,66.21L301.19,66.15L301.17,66.09L301.15,66.03L301.13,65.97L301.10,65.92L301.07,65.86L301.04,65.81L301.01,65.76L300.97,65.71L300.93,65.66L300.89,65.61L300.85,65.56L300.80,65.52L300.76,65.48L300.71,65.44L300.66,65.41L300.60,65.38" />
  <path d="M300.60,65.38L300.33,65.26L300.04,65.22L299.74,65.23L299.45,65.30L299.17,65.40L298.90,65.54L298.65,65.70L298.41,65.88L298.19,66.07L297.98,66.28L297.78,66.50L297.59,66.73L297.42,66.97L297.26,67.22L297.11,67.48L296.97,67.75L296.85,68.02L296.74,68.30L296.65,68.58L296.57,68.87L296.52,69.16L296.48,69.46L296.47,69.75L296.49,70.05L296.54,70.34L296.62,70.63L296.76,70.89L296.94,71.13L297.18,71.31" />
  <path d="M297.18,71.31L297.39,71.40L297.62,71.45L297.86,71.47L298.09,71.44L298.32,71.39L298.54,71.31L298.76,71.21L298.96,71.09L299.16,70.96L299.35,70.82L299.53,70.67L299.70,70.51L299.86,70.34L300.02,70.16L300.17,69.98L300.31,69.79L300.44,69.59L300.57,69.39L300.68,69.19L300.79,68.98L300.89,68.77L300.98,68.55L301.06,68.33L301.13,68.10L301.19,67.88L301.24,67.65L301.28,67.41L301.30,67.18L301.31,66.94" />
  <path d="M288.13,65.23L256.93,47.22" />
  <path d="M288.13,65.23L294.59,61.51" />
  <path d="M310.73,52.19L330.10,41.01" />
  <path d="M294.59,61.51L292.44,60.26" />
  <path d="M310.73,52.19L292.44,41.63" />
</g>
<g class="hard_visible" stroke="#000" stroke-width="0.7" fill="none" stroke-linecap="round" stroke-linejoin="round">
  <path d="M293.51,118.04L289.21,115.56" />
  <path d="M330.10,90.71L352.69,77.66" />
  <path d="M331.17,91.33L330.10,90.71" />
  <path d="M311.80,102.51L331.17,91.33" />
  <path d="M311.80,102.51L310.73,101.89" />
  <path d="M294.59,111.21L310.73,101.89" />
  <path d="M295.66,111.83L294.59,111.21" />
  <path d="M289.21,115.56L295.66,111.83" />
  <path d="M293.51,118.04L358.07,80.77" />
  <path d="M358.07,80.77L352.69,77.66" />
  <path d="M289.21,115.56L288.13,114.93" />
  <path d="M330.10,41.01L352.69,27.96" />
  <path d="M358.07,31.07L352.69,27.96" />
  <path d="M358.07,80.77L358.07,31.07" />
  <path d="M330.10,90.71L330.10,41.01" />
  <path d="M352.69,77.66L352.69,27.96" />
  <path d="M344.35,73.16L344.35,73.09L344.35,73.03L344.35,72.97L344.34,72.91L344.34,72.85L344.33,72.78L344.32,72.72L344.31,72.66L344.30,72.60L344.29,72.54L344.27,72.48L344.25,72.42L344.24,72.36L344.21,72.30L344.19,72.24L344.17,72.19L344.14,72.13L344.11,72.08L344.08,72.02L344.05,71.97L344.01,71.92L343.97,71.87L343.93,71.82L343.89,71.78L343.84,71.73L343.80,71.69L343.75,71.66L343.70,71.62L343.64,71.59" />
  <path d="M343.64,71.59L343.37,71.47L343.08,71.43L342.78,71.45L342.49,71.51L342.21,71.62L341.95,71.75L341.69,71.91L341.46,72.09L341.23,72.28L341.02,72.49L340.82,72.71L340.63,72.95L340.46,73.19L340.30,73.44L340.15,73.69L340.01,73.96L339.89,74.23L339.78,74.51L339.69,74.79L339.62,75.08L339.56,75.37L339.52,75.67L339.51,75.97L339.53,76.26L339.58,76.56L339.66,76.84L339.80,77.11L339.98,77.34L340.22,77.52" />
  <path d="M340.22,77.52L340.44,77.61L340.66,77.67L340.90,77.68L341.13,77.65L341.36,77.60L341.59,77.52L341.80,77.42L342.00,77.31L342.20,77.18L342.39,77.03L342.57,76.88L342.74,76.72L342.91,76.55L343.06,76.37L343.21,76.19L343.35,76.00L343.48,75.81L343.61,75.61L343.72,75.40L343.83,75.19L343.93,74.98L344.02,74.76L344.10,74.54L344.17,74.32L344.24,74.09L344.28,73.86L344.32,73.63L344.35,73.39L344.35,73.16" />
  <path d="M344.35,42.09L344.35,42.03L344.35,41.97L344.35,41.91L344.34,41.85L344.34,41.78L344.33,41.72L344.32,41.66L344.31,41.60L344.30,41.54L344.29,41.48L344.27,41.42L344.25,41.36L344.24,41.30L344.21,41.24L344.19,41.18L344.17,41.12L344.14,41.07L344.11,41.01L344.08,40.96L344.05,40.91L344.01,40.86L343.97,40.81L343.93,40.76L343.89,40.72L343.84,40.67L343.80,40.63L343.75,40.59L343.70,40.56L343.64,40.53" />
  <path d="M343.64,40.53L343.37,40.41L343.08,40.37L342.78,40.38L342.49,40.45L342.21,40.55L341.95,40.69L341.69,40.85L341.46,41.03L341.23,41.22L341.02,41.43L340.82,41.65L340.63,41.88L340.46,42.12L340.30,42.37L340.15,42.63L340.01,42.90L339.89,43.17L339.78,43.45L339.69,43.73L339.62,44.02L339.56,44.31L339.52,44.61L339.51,44.90L339.53,45.20L339.58,45.49L339.66,45.78L339.80,46.04L339.98,46.28L340.22,46.46" />
  <path d="M340.22,46.46L340.44,46.55L340.66,46.60L340.90,46.62L341.13,46.59L341.36,46.54L341.59,46.46L341.80,46.36L342.00,46.24L342.20,46.11L342.39,45.97L342.57,45.82L342.74,45.66L342.91,45.49L343.06,45.31L343.21,45.13L343.35,44.94L343.48,44.75L343.61,44.54L343.72,44.34L343.83,44.13L343.93,43.92L344.02,43.70L344.10,43.48L344.17,43.25L344.24,43.03L344.28,42.80L344.32,42.56L344.35,42.33L344.35,42.09" />
  <path d="M310.73,101.89L330.10,90.71" />
  <path d="M294.59,111.21L294.59,92.57" />
  <path d="M301.31,98.00L301.31,97.94L301.31,97.88L301.31,97.82L301.30,97.76L301.30,97.69L301.29,97.63L301.28,97.57L301.27,97.51L301.26,97.45L301.25,97.39L301.23,97.33L301.21,97.27L301.19,97.21L301.17,97.15L301.15,97.09L301.13,97.04L301.10,96.98L301.07,96.93L301.04,96.87L301.01,96.82L300.97,96.77L300.93,96.72L300.89,96.67L300.85,96.63L300.80,96.58L300.76,96.54L300.71,96.51L300.66,96.47L300.60,96.44" />
  <path d="M300.60,96.44L300.33,96.32L300.04,96.28L299.74,96.29L299.45,96.36L299.17,96.47L298.90,96.60L298.65,96.76L298.41,96.94L298.19,97.13L297.98,97.34L297.78,97.56L297.59,97.79L297.42,98.04L297.26,98.29L297.11,98.54L296.97,98.81L296.85,99.08L296.74,99.36L296.65,99.64L296.57,99.93L296.52,100.22L296.48,100.52L296.47,100.82L296.49,101.11L296.54,101.41L296.62,101.69L296.76,101.96L296.94,102.19L297.18,102.37" />
  <path d="M297.18,102.37L297.39,102.46L297.62,102.52L297.86,102.53L298.09,102.50L298.32,102.45L298.54,102.37L298.76,102.27L298.96,102.16L299.16,102.03L299.35,101.88L299.53,101.73L299.70,101.57L299.86,101.40L300.02,101.22L300.17,101.04L300.31,100.85L300.44,100.66L300.57,100.46L300.68,100.25L300.79,100.04L300.89,99.83L300.98,99.61L301.06,99.39L301.13,99.17L301.19,98.94L301.24,98.71L301.28,98.47L301.30,98.24L301.31,98.00" />
  <path d="M288.13,114.93L294.59,111.21" />
  <path d="M288.13,114.93L256.93,96.92" />
  <path d="M256.93,96.92L256.93,47.22" />
  <path d="M330.10,90.71L311.80,80.14" />
  <path d="M311.80,80.14L311.80,30.44" />
  <path d="M330.10,41.01L311.80,30.44" />
  <path d="M292.44,91.33L311.80,80.14" />
  <path d="M310.73,101.89L292.44,91.33" />
  <path d="M294.59,111.21L263.38,93.19" />
  <path d="M263.38,93.19L263.38,43.49" />
  <path d="M292.44,60.26L263.38,43.49" />
  <path d="M292.44,91.33L292.44,41.63" />
  <path d="M256.93,96.92L263.38,93.19" />
  <path d="M256.93,47.22L263.38,43.49" />
  <path d="M292.44,41.63L311.80,30.44" />
</g>
<text x="213.0" y="25.0" font-family="monospace" font-size="3.5" fill="#666">ISO</text>
</g>
<rect x="15" y="247" width="390" height="35" fill="#fafafa" stroke="black" stroke-width="0.5" />
<line x1="235" y1="247" x2="235" y2="282" stroke="black" stroke-width="0.35" />
<line x1="235" y1="255.8" x2="405" y2="255.8" stroke="black" stroke-width="0.25" />
<line x1="235" y1="264.5" x2="405" y2="264.5" stroke="black" stroke-width="0.25" />
<line x1="235" y1="273.2" x2="405" y2="273.2" stroke="black" stroke-width="0.25" />
<line x1="320.0" y1="247" x2="320.0" y2="282" stroke="black" stroke-width="0.25" />
<text x="237.0" y="250.5" font-family="sans-serif" font-size="2" fill="#888" letter-spacing="0.3">PART NAME</text>
<text x="237.0" y="254.2" font-family="sans-serif" font-size="4.5" font-weight="bold">CNC Motor Mount Bracket</text>
<text x="322.0" y="250.5" font-family="sans-serif" font-size="2" fill="#888" letter-spacing="0.3">DRAWING NO.</text>
<text x="322.0" y="254.2" font-family="sans-serif" font-size="4.5" font-weight="bold">CNC-MOTOR-MOUNT-A</text>
<text x="237.0" y="259.2" font-family="sans-serif" font-size="2" fill="#888" letter-spacing="0.3">MATERIAL</text>
<text x="237.0" y="263.0" font-family="sans-serif" font-size="3.5" font-weight="normal">AL6061-T6</text>
<text x="322.0" y="259.2" font-family="sans-serif" font-size="2" fill="#888" letter-spacing="0.3">SCALE</text>
<text x="322.0" y="263.0" font-family="sans-serif" font-size="3.5" font-weight="normal">1:1</text>
<text x="237.0" y="268.0" font-family="sans-serif" font-size="2" fill="#888" letter-spacing="0.3">TOLERANCE</text>
<text x="237.0" y="271.8" font-family="sans-serif" font-size="3.5" font-weight="normal">ISO 2768-m</text>
<text x="322.0" y="268.0" font-family="sans-serif" font-size="2" fill="#888" letter-spacing="0.3">DATE</text>
<text x="322.0" y="271.8" font-family="sans-serif" font-size="3.5" font-weight="normal">2026-04-27</text>
<text x="237.0" y="276.8" font-family="sans-serif" font-size="2" fill="#888" letter-spacing="0.3">DESIGNED BY</text>
<text x="237.0" y="280.5" font-family="sans-serif" font-size="3.5" font-weight="normal">-</text>
<text x="322.0" y="276.8" font-family="sans-serif" font-size="2" fill="#888" letter-spacing="0.3">SIZE / SHEET</text>
<text x="322.0" y="280.5" font-family="sans-serif" font-size="3.5" font-weight="normal">A3</text>
<g class="projection-symbol" transform="translate(387,277.625)">
<line x1="0" y1="-4.0" x2="0" y2="4.0" stroke="black" stroke-width="0.35" />
<line x1="0" y1="-1.6" x2="4.8" y2="-4.0" stroke="black" stroke-width="0.35" />
<line x1="0" y1="1.6" x2="4.8" y2="4.0" stroke="black" stroke-width="0.35" />
<line x1="4.8" y1="-4.0" x2="4.8" y2="4.0" stroke="black" stroke-width="0.35" />
<line x1="-1" y1="0" x2="5.8" y2="0" stroke="black" stroke-width="0.13" stroke-dasharray="2,1" />
<circle cx="8.4" cy="0" r="4.0" fill="none" stroke="black" stroke-width="0.35" />
<circle cx="8.4" cy="0" r="1.6" fill="none" stroke="black" stroke-width="0.35" />
<line x1="3.40" y1="0" x2="13.4" y2="0" stroke="black" stroke-width="0.13" stroke-dasharray="2,1" />
<line x1="8.4" y1="-5.0" x2="8.4" y2="5.0" stroke="black" stroke-width="0.13" stroke-dasharray="2,1" />
</g>
<text x="322.0" y="276.8" font-family="monospace" font-size="1.8" fill="#999">BBox: 120 x 80 x 68 mm</text>
<line x1="19" y1="277" x2="29" y2="277" stroke="#000" stroke-width="0.7" stroke-linecap="round" />
<text x="31" y="277.8" font-family="monospace" font-size="2" fill="#666">Visible</text>
<line x1="51" y1="277" x2="61" y2="277" stroke="#000" stroke-width="0.30" stroke-linecap="round" stroke-dasharray="4,2" />
<text x="63" y="277.8" font-family="monospace" font-size="2" fill="#666">Hidden</text>
<line x1="83" y1="277" x2="93" y2="277" stroke="#000" stroke-width="0.18" stroke-linecap="round" stroke-dasharray="8,2,1.5,2" />
<text x="95" y="277.8" font-family="monospace" font-size="2" fill="#666">Center</text>
<line x1="115" y1="277" x2="125" y2="277" stroke="#000" stroke-width="0.18" stroke-linecap="round" />
<text x="127" y="277.8" font-family="monospace" font-size="2" fill="#666">Dimension</text>
<g class="general-notes" font-family="sans-serif" font-size="2.0" fill="#333">
<text x="19.0" y="236.0" font-size="2.5" font-weight="bold" fill="#000">NOTES:</text><text x="19.0" y="240.0">1. GENERAL TOLERANCES PER ISO 2768-m</text><text x="19.0" y="244.0">2. BREAK ALL SHARP EDGES 0.2~0.5</text><text x="19.0" y="248.0">3. DEBURR ALL MACHINED EDGES</text><text x="19.0" y="252.0">4. MATERIAL: AL6061-T6</text><text x="19.0" y="256.0">5. ALL DIMENSIONS IN mm</text></g>
</svg>